<?xml version="1.0" encoding="utf-8" standalone="yes"?>
<!DOCTYPE svg PUBLIC "-//W3C//DTD SVG 1.1//EN" "http://www.w3.org/Graphics/SVG/1.1/DTD/svg11.dtd">
<svg width="976" height="472" viewBox="0 0 976 472" style="fill:none;stroke:none;fill-rule:evenodd;clip-rule:evenodd;stroke-linecap:round;stroke-linejoin:round;stroke-miterlimit:1.5;" version="1.1" xmlns="http://www.w3.org/2000/svg" xmlns:xlink="http://www.w3.org/1999/xlink"><g id="items" style="isolation: isolate"><g id="blend" style="mix-blend-mode: normal"><g id="g-root-sy_1_gauge-filled-1_m9u58oqf9q0x-fill" data-item-order="-62698" transform="translate(502.2019958496094, 146)"><g id="sy_1_gauge-filled-1_m9u58oqf9q0x-fill" stroke="none" fill="#2c2c2c"><g><path d="M 10 10C 57.850261 9.999958 101.127186 38.427607 120.130743 82.34243C 139.1343 126.257253 130.231907 177.26481 97.476011 212.146011L 10 130L 10 130L 10 10Z"></path></g></g></g><g id="g-root-sy_2_gauge-filled-2_de74zsqf9qtm-fill" data-item-order="-62694" transform="translate(390.6289978027344, 266)"><g id="sy_2_gauge-filled-2_de74zsqf9qtm-fill" stroke="none" fill="#dd57a8"><g><path d="M 209.048998 92.146C 180.927061 122.092576 139.440404 135.572264 99.087169 127.874398C 58.733934 120.176531 25.12292 92.371055 9.999998 54.175009L 121.572998 10L 121.572998 10L 209.048998 92.146Z"></path></g></g></g><g id="g-root-sy_3_gauge-filled-3_8ydmvcqf9rlv-fill" data-item-order="-62690" transform="translate(382.2015686035156, 146)"><g id="sy_3_gauge-filled-3_8ydmvcqf9rlv-fill" stroke="none" fill="#ababab"><g><path d="M 18.427427 174.175C 3.796594 137.221801 8.411332 95.421753 30.750852 62.550083C 53.090372 29.678414 90.256241 10.000049 130.000434 10L 130.000427 130L 130.000427 130L 18.427427 174.175Z"></path></g></g></g><g id="g-root-tx_enterpri_1qbyivcqf9r0q-fill" data-item-order="0" transform="translate(190.20199584960938, 38)"><g id="tx_enterpri_1qbyivcqf9r0q-fill" stroke="none" fill="#fff0fc"><g><text style="font: bold 25px &quot;DM Mono Regular&quot;, monospace; white-space: pre;" font-weight="bold" font-size="25px" font-family="'DM Mono Regular', monospace"><tspan x="14.5" y="41" dominant-baseline="ideographic">Enterprise Cybersecurity Cost Allocation </tspan><tspan x="254.5" y="71" dominant-baseline="ideographic">Patterns</tspan></text></g></g></g><g id="g-root-tx_31infras_zrjeh4qf9q18-fill" data-item-order="0" transform="translate(14, 171.18798828125)"><g id="tx_31infras_zrjeh4qf9q18-fill" stroke="none" fill="#fff0fc"><g><text style="font: 20px &quot;DM Mono Regular&quot;, monospace; white-space: pre;" font-size="20px" font-family="'DM Mono Regular', monospace"><tspan x="20" y="35" dominant-baseline="ideographic">31% Infrastructure and services</tspan></text></g></g></g><g id="g-root-tx_37person_hz0ft4qf9q86-fill" data-item-order="0" transform="translate(617.8699951171875, 191.97802734375)"><g id="tx_37person_hz0ft4qf9q86-fill" stroke="none" fill="#fff0fc"><g><text style="font: 20px &quot;DM Mono Regular&quot;, monospace; white-space: pre;" font-size="20px" font-family="'DM Mono Regular', monospace"><tspan x="12" y="35" dominant-baseline="ideographic">37% Personnel and staffing</tspan></text></g></g></g><g id="g-root-tx_32softwa_1ly0g08qf9qte-fill" data-item-order="0" transform="translate(142.63998413085938, 389.73193359375)"><g id="tx_32softwa_1ly0g08qf9qte-fill" stroke="none" fill="#fff0fc"><g><text style="font: 20px &quot;DM Mono Regular&quot;, monospace; white-space: pre;" font-size="20px" font-family="'DM Mono Regular', monospace"><tspan x="20" y="35" dominant-baseline="ideographic">32% Software and technology</tspan></text></g></g></g><g id="g-root-sy_1_gauge-filled-1_m9u58oqf9q0x-stroke" data-item-order="-62698" transform="translate(502.2019958496094, 146)"><g id="sy_1_gauge-filled-1_m9u58oqf9q0x-stroke" fill="none" stroke-linecap="round" stroke-linejoin="round" stroke-miterlimit="4" stroke="#fff0fc" stroke-width="2"><g><path d="M 10 10C 57.850261 9.999958 101.127186 38.427607 120.130743 82.34243C 139.1343 126.257253 130.231907 177.26481 97.476011 212.146011L 10 130L 10 130L 10 10Z"></path></g></g></g><g id="g-root-sy_2_gauge-filled-2_de74zsqf9qtm-stroke" data-item-order="-62694" transform="translate(390.6289978027344, 266)"><g id="sy_2_gauge-filled-2_de74zsqf9qtm-stroke" fill="none" stroke-linecap="round" stroke-linejoin="round" stroke-miterlimit="4" stroke="#fff0fc" stroke-width="2"><g><path d="M 209.048998 92.146C 180.927061 122.092576 139.440404 135.572264 99.087169 127.874398C 58.733934 120.176531 25.12292 92.371055 9.999998 54.175009L 121.572998 10L 121.572998 10L 209.048998 92.146Z"></path></g></g></g><g id="g-root-sy_3_gauge-filled-3_8ydmvcqf9rlv-stroke" data-item-order="-62690" transform="translate(382.2015686035156, 146)"><g id="sy_3_gauge-filled-3_8ydmvcqf9rlv-stroke" fill="none" stroke-linecap="round" stroke-linejoin="round" stroke-miterlimit="4" stroke="#fff0fc" stroke-width="2"><g><path d="M 18.427427 174.175C 3.796594 137.221801 8.411332 95.421753 30.750852 62.550083C 53.090372 29.678414 90.256241 10.000049 130.000434 10L 130.000427 130L 130.000427 130L 18.427427 174.175Z"></path></g></g></g><g id="g-root-tx_enterpri_1qbyivcqf9r0q-stroke" data-item-order="0" transform="translate(190.20199584960938, 38)"></g><g id="g-root-tx_31infras_zrjeh4qf9q18-stroke" data-item-order="0" transform="translate(14, 171.18798828125)"></g><g id="g-root-tx_37person_hz0ft4qf9q86-stroke" data-item-order="0" transform="translate(617.8699951171875, 191.97802734375)"></g><g id="g-root-tx_32softwa_1ly0g08qf9qte-stroke" data-item-order="0" transform="translate(142.63998413085938, 389.73193359375)"></g></g></g><path id="w1cy07bsm9k170" d="M65.283 12.757a.35.35 0 0 0 .584.157l5.203-5.141-6.183 3.523.396 1.461zm-2.216-11.7a.35.35 0 0 0-.522.305v3.111l3.276-1.868-2.754-1.548zm3.728 2.105l-4.25 2.421v2.445l6.391-3.644-2.141-1.222zm4.708 3.303a.35.35 0 0 0 0-.609l-1.592-.9-7.365 4.199v1.782a.35.35 0 0 0 .523.305l8.435-4.777z M44.542 2.513c0-.433.355-.783.792-.783s.792.35.792.783-.355.783-.792.783-.792-.35-.792-.783zm59.171 0c0-.433.355-.783.792-.783s.792.35.792.783-.355.783-.792.783-.792-.35-.792-.783zm-85.951 7.636h-1.27v-.487c-.276.201-.864.609-1.881.609-1.202 0-2.274-.794-2.137-2.078.118-1.106 1.153-1.584 1.848-1.727l2.17-.345c0-.539-.29-.956-1.064-1.006s-1.21.305-1.571 1.017l-1.124-.605c1.218-2.631 5.029-1.764 5.029.414v4.207zm-1.27-2.86c.006.396-.062 1.112-.819 1.59-.587.37-1.841.299-1.903-.395-.049-.555.461-.791.906-.898l1.816-.297zm72.662 2.86h-1.27v-.487c-.276.201-.864.609-1.881.609-1.202 0-2.274-.794-2.137-2.078.118-1.106 1.153-1.584 1.848-1.727l2.17-.345c0-.539-.29-.956-1.064-1.006s-1.21.305-1.571 1.017l-1.124-.605c1.218-2.631 5.029-1.764 5.029.414v4.207zm-1.27-2.86c.006.396-.062 1.112-.82 1.59-.587.37-1.841.299-1.903-.395-.049-.555.461-.791.906-.898l1.816-.297zM99.096 10.149H97.85v-8.45h1.246v4.895l2.68-2.559h1.738l-2.633 2.535 2.715 3.578h-1.556l-2.077-2.707-.867.844v1.863zm6.053-6.114h-1.255v6.113h1.255V4.035zm-59.2 0h-1.255v6.113h1.255V4.035zm5.584 6.113V1.697h1.255v2.695c.361-.346 1-.485 1.47-.485 1.452 0 2.477 1.082 2.457 2.448v3.792h-1.27v-3.68c0-.408-.214-1.339-1.315-1.339-.968 0-1.342.756-1.342 1.339v3.681h-1.255zm-4.76-4.894V4.039h.621a.45.45 0 0 0 .45-.45v-.855h1.251v1.305h1.309v1.215h-1.309v3.109c0 .293.105.664.648.664.365 0 .531-.035.736-.07v1.137s-.361.113-.857.113c-1.398 0-1.777-1.051-1.777-1.788V5.254h-1.071zM36.528 4.039h-1.394l2.191 6.106h1.125l1.234-3.918 1.238 3.918h1.129l2.188-6.106h-1.383l-1.359 3.93-1.256-3.93h-1.124l-1.242 3.957-1.348-3.957zM26.212 7.141c-.02 1.566 1.187 3.129 3.223 3.129 1.566 0 2.383-.918 2.734-1.719L31.172 8c-.315.399-.801 1.094-1.738 1.094-1.145 0-1.825-.781-1.891-1.52h4.625c.074-.284.148-.995-.03-1.559-.336-1.064-1.221-2.102-2.839-2.102s-3.088 1.152-3.088 3.227zm1.363-.75h3.348c-.055-.43-.566-1.301-1.623-1.301a1.79 1.79 0 0 0-1.725 1.301zm-8.758.75c.038 1.758 1.277 3.133 3.145 3.133 1.074 0 1.723-.477 1.961-.672v.547h1.242V1.703h-1.258v2.888c-.414-.36-1.062-.68-1.93-.68-1.91 0-3.198 1.473-3.16 3.23zm1.309-.08c0 1.119.723 1.978 1.836 1.978a1.88 1.88 0 0 0 1.94-1.904c0-1.371-1.011-1.99-1.972-1.99s-1.805.798-1.805 1.916zm76.683-.028C96.771 5.275 95.532 3.9 93.664 3.9c-1.074 0-1.723.477-1.961.672v-.547h-1.242v8.22h1.258V9.583c.414.36 1.063.68 1.93.68 1.91 0 3.198-1.473 3.16-3.23zm-1.309.08c0-1.119-.723-1.978-1.836-1.978a1.88 1.88 0 0 0-1.94 1.904c0 1.371 1.011 1.99 1.972 1.99S95.5 8.231 95.5 7.113zM106.441 10.173V4.036h1.254v.382c.361-.346 1-.485 1.47-.485 1.452 0 2.477 1.082 2.457 2.448v3.792h-1.27V6.492c0-.408-.214-1.339-1.315-1.339-.969 0-1.342.756-1.342 1.339v3.681h-1.254zm-30.383-.021V1.824h1.084l4.215 5.777V1.824h1.32v8.328h-1.094l-4.207-5.796v5.796h-1.319zM5.24 10.149H4V2.377h1.014l2.664 3.597 2.654-3.592h1.03v7.766h-1.256V4.762L7.678 8.068 5.24 4.742v5.407z" transform="translate(839.8699951171875, 437.73193359375)" fill="#ababab88" stroke="none"></path></svg>