<?xml version="1.0" encoding="utf-8" standalone="yes"?>
<!DOCTYPE svg PUBLIC "-//W3C//DTD SVG 1.1//EN" "http://www.w3.org/Graphics/SVG/1.1/DTD/svg11.dtd">
<svg width="504" height="642" viewBox="0 0 504 642" style="fill:none;stroke:none;fill-rule:evenodd;clip-rule:evenodd;stroke-linecap:round;stroke-linejoin:round;stroke-miterlimit:1.5;" version="1.1" xmlns="http://www.w3.org/2000/svg" xmlns:xlink="http://www.w3.org/1999/xlink"><style class="text-font-style fontImports" data-font-family="Arial"></style><g id="items" style="isolation: isolate"><g id="blend" style="mix-blend-mode: normal"><g id="g-root-cp_-1_Frame_645_v7da5pc9ugp2-fill" data-item-order="-248962" transform="translate(50, 176)"><g id="cp_-1_Frame_645_v7da5pc9ugp2-fill" stroke="none" fill="#959595"><g><path d="M 202 28C 202 18.0589 159.0193 10 106 10C 52.9807 10 10 18.0589 10 28C 10 44.775 10 35.225 10 52C 10 61.9411 52.9807 70 106 70C 159.0193 70 202 61.9411 202 52C 202 35.225 202 44.775 202 28Z"></path></g></g><g id="cp_-1_Frame_645_v7da5pc9ugp2-fill" stroke="none" fill="#959595"><g><path d="M 10 28C 10.000003 37.941126 52.980667 46 106.000003 46C 159.019339 46 202.000003 37.941126 202.000003 28C 202.000003 18.058875 159.019339 10 106.000003 10C 52.980667 10 10.000003 18.058875 10.000003 28"></path></g></g><g id="cp_-1_Frame_645_v7da5pc9ugp2-fill" stroke="none" fill="#959595"><g><path d="M 70 28C 70 31.866 86.1177 35 106 35C 125.8823 35 142 31.866 142 28L 142 17C 142 13.134 125.8823 10 106 10C 86.1177 10 70 13.134 70 17L 70 28Z"></path></g></g><g id="cp_-1_Frame_645_v7da5pc9ugp2-fill" stroke="none" fill="#959595"><g><path d="M 142 17C 142 13.134 125.8823 10 106 10C 86.1177 10 70 13.134 70 17C 70 20.866 86.1177 24 106 24C 125.8823 24 142 20.866 142 17Z"></path></g></g></g><g id="g-root-cp_3_bubble-3_hwj8vhc9uf4a-fill" data-item-order="-248950" transform="translate(50, 218)"><g id="cp_3_bubble-3_hwj8vhc9uf4a-fill" stroke="none" fill="#5d83c0"><g><path d="M 10 10L 10 58L 202 58L 202 10C 202 19.9411 159.0193 28 106 28C 52.9807 28 10 19.9411 10 10ZM 10 118L 10 70L 202 70L 202 118C 202 127.9411 159.0193 136 106 136C 52.9807 136 10 127.9411 10 118ZM 202 70L 202 58L 10 58L 10 70L 202 70Z"></path></g></g></g><g id="g-root-cp_3_bubble-3_1_4l2qi5c9ugp8-fill" data-item-order="-248930" transform="translate(242, 218)"><g id="cp_3_bubble-3_1_4l2qi5c9ugp8-fill" stroke="none" fill="#5d83c0"><g><path d="M 202 58L 10 58C 10.000001 31.4903 10 10 10 10L 202 10L 202 58ZM 202 70L 202 58L 10 58L 10 70L 202 70ZM 10 118L 10 70L 202 70L 202 118L 10 118Z"></path></g></g></g><g id="g-root-cp_2_bubble-2_1qbcr71c9uexa-fill" data-item-order="-248904" transform="translate(50, 326)"><g id="cp_2_bubble-2_1qbcr71c9uexa-fill" stroke="none" fill="#4e8ef5"><g><path d="M 10 10L 10 58L 202 58L 202 10C 202 19.9411 159.0193 28 106 28C 52.9807 28 10 19.9411 10 10ZM 10 106L 10 58L 202 58L 202 106C 202 115.9411 159.0193 124 106 124C 52.9807 124 10 115.9411 10 106ZM 202 58L 202 58L 10 58L 10 58L 202 58Z"></path></g></g></g><g id="g-root-cp_2_bubble-2_1_1lvj92lc9ufpk-fill" data-item-order="-248884" transform="translate(242, 326)"><g id="cp_2_bubble-2_1_1lvj92lc9ufpk-fill" stroke="none" fill="#4e8ef5"><g><path d="M 202 58L 10 58C 10.000001 31.4903 10 10 10 10L 202 10L 202 58ZM 202 58L 202 58L 10 58L 10 58L 202 58ZM 10 106L 10 58L 202 58L 202 106L 10 106Z"></path></g></g></g><g id="g-root-cp_1_bubble-1_18k2qp9c9uhai-fill" data-item-order="-248860" transform="translate(50, 422)"><g id="cp_1_bubble-1_18k2qp9c9uhai-fill" stroke="none" fill="#a1c5ff"><g><path d="M 10 10L 10 58L 202 58L 202 10C 202 19.9411 159.0193 28 106 28C 52.9807 28 10 19.9411 10 10ZM 10 106L 10 58L 202 58L 202 106C 202 115.9411 159.0193 124 106 124C 52.9807 124 10 115.9411 10 106ZM 202 58L 202 58L 10 58L 10 58L 202 58Z"></path></g></g></g><g id="g-root-cp_1_bubble-1_1_144vpnxc9uex0-fill" data-item-order="-248840" transform="translate(242, 422)"><g id="cp_1_bubble-1_1_144vpnxc9uex0-fill" stroke="none" fill="#a1c5ff"><g><path d="M 202 58L 10 58C 10.000001 31.4903 10 10 10 10L 202 10L 202 58ZM 202 58L 202 58L 10 58L 10 58L 202 58ZM 10 106L 10 58L 202 58L 202 106L 10 106Z"></path></g></g></g><g id="g-root-cp_-1_bottom_qtf7alc9ughy-fill" data-item-order="-248818" transform="translate(50, 518)"><g id="cp_-1_bottom_qtf7alc9ughy-fill" stroke="none" fill="#959595"><g><path d="M 106 52C 52.9807 52 10 43.9411 10 34L 10 10C 10 19.9411 52.9807 28 106 28C 159.0193 28 202 19.9411 202 10L 202 34C 202 43.9411 159.0193 52 106 52ZM 202 10C 202 26.775 202 17.225 202 34M 10 10C 10 26.775 10 17.225 10 34"></path></g></g></g><g id="g-root-tx_groundtr_mdlp65c9uha8-fill" data-item-order="0" transform="translate(14, 38)"><g id="tx_groundtr_mdlp65c9uha8-fill" stroke="none" fill="#f4f4f4"><g><text style="font: bold 25px Arial, Helvetica, sans-serif; white-space: pre;" font-weight="bold" font-size="25px" font-family="Arial, Helvetica, sans-serif"><tspan x="13.87" y="39" dominant-baseline="ideographic">Ground truth confidence levels range </tspan><tspan x="135.45" y="69" dominant-baseline="ideographic">from low to high.</tspan></text></g></g></g><g id="g-root-tx_confiden_92rnvxc9ufpd-fill" data-item-order="0" transform="translate(290, 146)"><g id="tx_confiden_92rnvxc9ufpd-fill" stroke="none" fill="#f4f4f4"><g><text style="font: bold 20px Arial, Helvetica, sans-serif; white-space: pre;" font-weight="bold" font-size="20px" font-family="Arial, Helvetica, sans-serif"><tspan x="12.77" y="33" dominant-baseline="ideographic">Confidence </tspan><tspan x="41.64" y="57" dominant-baseline="ideographic">Level</tspan></text></g></g></g><g id="g-root-tx_conveyss_1hhl67hc9ufib-fill" data-item-order="0" transform="translate(278, 242)"><g id="tx_conveyss_1hhl67hc9ufib-fill" stroke="none" fill="#2c2c2c"><g><text style="font: 15px Arial, Helvetica, sans-serif; white-space: pre;" font-size="15px" font-family="Arial, Helvetica, sans-serif"><tspan x="15.8" y="30" dominant-baseline="ideographic">Conveys strong </tspan><tspan x="24.14" y="48" dominant-baseline="ideographic">reliability and </tspan><tspan x="40.82" y="66" dominant-baseline="ideographic">success</tspan></text></g></g></g><g id="g-root-tx_highconf_1usf7hpc9uh36-fill" data-item-order="0" transform="translate(86, 260)"><g id="tx_highconf_1usf7hpc9uh36-fill" stroke="none" fill="#2c2c2c"><g><text style="font: bold 20px Arial, Helvetica, sans-serif; white-space: pre;" font-weight="bold" font-size="20px" font-family="Arial, Helvetica, sans-serif"><tspan x="47.79" y="33" dominant-baseline="ideographic">High </tspan><tspan x="15.55" y="57" dominant-baseline="ideographic">Confidence</tspan></text></g></g></g><g id="g-root-tx_mediumco_1464nu5c9uh38-fill" data-item-order="0" transform="translate(86, 362)"><g id="tx_mediumco_1464nu5c9uh38-fill" stroke="none" fill="#2c2c2c"><g><text style="font: bold 20px Arial, Helvetica, sans-serif; white-space: pre;" font-weight="bold" font-size="20px" font-family="Arial, Helvetica, sans-serif"><tspan x="32.22" y="33" dominant-baseline="ideographic">Medium </tspan><tspan x="15.55" y="57" dominant-baseline="ideographic">Confidence</tspan></text></g></g></g><g id="g-root-tx_suggests_qvamjxc9ufid-fill" data-item-order="0" transform="translate(266, 356)"><g id="tx_suggests_qvamjxc9ufid-fill" stroke="none" fill="#2c2c2c"><g><text style="font: 15px Arial, Helvetica, sans-serif; white-space: pre;" font-size="15px" font-family="Arial, Helvetica, sans-serif"><tspan x="14.88" y="27" dominant-baseline="ideographic">Suggests caution is </tspan><tspan x="48.22" y="45" dominant-baseline="ideographic">advisable</tspan></text></g></g></g><g id="g-root-tx_lowconfi_dju46lc9uh3a-fill" data-item-order="0" transform="translate(86, 458)"><g id="tx_lowconfi_dju46lc9uh3a-fill" stroke="none" fill="#2c2c2c"><g><text style="font: bold 20px Arial, Helvetica, sans-serif; white-space: pre;" font-weight="bold" font-size="20px" font-family="Arial, Helvetica, sans-serif"><tspan x="50" y="33" dominant-baseline="ideographic">Low </tspan><tspan x="15.55" y="57" dominant-baseline="ideographic">Confidence</tspan></text></g></g></g><g id="g-root-tx_indicate_902wdc9ufif-fill" data-item-order="0" transform="translate(278, 452)"><g id="tx_indicate_902wdc9ufif-fill" stroke="none" fill="#2c2c2c"><g><text style="font: 15px Arial, Helvetica, sans-serif; white-space: pre;" font-size="15px" font-family="Arial, Helvetica, sans-serif"><tspan x="19.14" y="27" dominant-baseline="ideographic">Indicates areas </tspan><tspan x="12.45" y="45" dominant-baseline="ideographic">needing attention</tspan></text></g></g></g><g id="g-root-cp_-1_Frame_645_v7da5pc9ugp2-stroke" data-item-order="-248962" transform="translate(50, 176)"><g id="cp_-1_Frame_645_v7da5pc9ugp2-stroke" fill="none" stroke-linecap="butt" stroke-linejoin="miter" stroke-miterlimit="4" stroke="#f4f4f4" stroke-width="1"><g><path d="M 202 28C 202 18.0589 159.0193 10 106 10C 52.9807 10 10 18.0589 10 28C 10 44.775 10 35.225 10 52C 10 61.9411 52.9807 70 106 70C 159.0193 70 202 61.9411 202 52C 202 35.225 202 44.775 202 28Z"></path></g></g><g id="cp_-1_Frame_645_v7da5pc9ugp2-stroke" fill="none" stroke-linecap="butt" stroke-linejoin="miter" stroke-miterlimit="4" stroke="#f4f4f4" stroke-width="1"><g><path d="M 10 28C 10.000003 37.941126 52.980667 46 106.000003 46C 159.019339 46 202.000003 37.941126 202.000003 28C 202.000003 18.058875 159.019339 10 106.000003 10C 52.980667 10 10.000003 18.058875 10.000003 28"></path></g></g><g id="cp_-1_Frame_645_v7da5pc9ugp2-stroke" fill="none" stroke-linecap="butt" stroke-linejoin="miter" stroke-miterlimit="4" stroke="#f4f4f4" stroke-width="1"><g><path d="M 70 28C 70 31.866 86.1177 35 106 35C 125.8823 35 142 31.866 142 28L 142 17C 142 13.134 125.8823 10 106 10C 86.1177 10 70 13.134 70 17L 70 28Z"></path></g></g><g id="cp_-1_Frame_645_v7da5pc9ugp2-stroke" fill="none" stroke-linecap="butt" stroke-linejoin="miter" stroke-miterlimit="4" stroke="#f4f4f4" stroke-width="1"><g><path d="M 142 17C 142 13.134 125.8823 10 106 10C 86.1177 10 70 13.134 70 17C 70 20.866 86.1177 24 106 24C 125.8823 24 142 20.866 142 17Z"></path></g></g></g><g id="g-root-cp_3_bubble-3_hwj8vhc9uf4a-stroke" data-item-order="-248950" transform="translate(50, 218)"><g id="cp_3_bubble-3_hwj8vhc9uf4a-stroke" fill="none" stroke-linecap="butt" stroke-linejoin="miter" stroke-miterlimit="4" stroke="#5d83c0" stroke-width="1"><g><path d="M 202 70L 202 58M 10 70L 10 58M 10 70L 10 118C 10 127.9411 52.9807 136 106 136C 159.0193 136 202 127.9411 202 118L 202 70M 10 58L 10 10C 10 19.9411 52.9807 28 106 28C 159.0193 28 202 19.9411 202 10L 202 58"></path></g></g></g><g id="g-root-cp_3_bubble-3_1_4l2qi5c9ugp8-stroke" data-item-order="-248930" transform="translate(242, 218)"><g id="cp_3_bubble-3_1_4l2qi5c9ugp8-stroke" fill="none" stroke-linecap="butt" stroke-linejoin="miter" stroke-miterlimit="4" stroke="#5d83c0" stroke-width="1"><g><path d="M 202 58L 202 10.0001L 10.0001 10L 10 57.9999M 202 70L 202 58M 10 70L 10 58M 10 70L 10 118L 202 118L 202 70"></path></g></g></g><g id="g-root-cp_2_bubble-2_1qbcr71c9uexa-stroke" data-item-order="-248904" transform="translate(50, 326)"><g id="cp_2_bubble-2_1qbcr71c9uexa-stroke" fill="none" stroke-linecap="butt" stroke-linejoin="miter" stroke-miterlimit="4" stroke="#4e8ef5" stroke-width="1"><g><path d="M 202 58L 202 58M 10 58L 10 58M 10 58L 10 106C 10 115.9411 52.9807 124 106 124C 159.0193 124 202 115.9411 202 106L 202 58M 10 58L 10 10C 10 19.9411 52.9807 28 106 28C 159.0193 28 202 19.9411 202 10L 202 58"></path></g></g></g><g id="g-root-cp_2_bubble-2_1_1lvj92lc9ufpk-stroke" data-item-order="-248884" transform="translate(242, 326)"><g id="cp_2_bubble-2_1_1lvj92lc9ufpk-stroke" fill="none" stroke-linecap="butt" stroke-linejoin="miter" stroke-miterlimit="4" stroke="#4e8ef5" stroke-width="1"><g><path d="M 202 58L 202 10.0001L 10.0001 10L 10 57.9999M 202 58L 202 58M 10 58L 10 58M 10 58L 10 106L 202 106L 202 58"></path></g></g></g><g id="g-root-cp_1_bubble-1_18k2qp9c9uhai-stroke" data-item-order="-248860" transform="translate(50, 422)"><g id="cp_1_bubble-1_18k2qp9c9uhai-stroke" fill="none" stroke-linecap="butt" stroke-linejoin="miter" stroke-miterlimit="4" stroke="#a1c5ff" stroke-width="1"><g><path d="M 202 58L 202 58M 10 58L 10 58M 10 58L 10 106C 10 115.9411 52.9807 124 106 124C 159.0193 124 202 115.9411 202 106L 202 58M 10 58L 10 10C 10 19.9411 52.9807 28 106 28C 159.0193 28 202 19.9411 202 10L 202 58"></path></g></g></g><g id="g-root-cp_1_bubble-1_1_144vpnxc9uex0-stroke" data-item-order="-248840" transform="translate(242, 422)"><g id="cp_1_bubble-1_1_144vpnxc9uex0-stroke" fill="none" stroke-linecap="butt" stroke-linejoin="miter" stroke-miterlimit="4" stroke="#a1c5ff" stroke-width="1"><g><path d="M 202 58L 202 10.0001L 10.0001 10L 10 57.9999M 202 58L 202 58M 10 58L 10 58M 10 58L 10 106L 202 106L 202 58"></path></g></g></g><g id="g-root-cp_-1_bottom_qtf7alc9ughy-stroke" data-item-order="-248818" transform="translate(50, 518)"><g id="cp_-1_bottom_qtf7alc9ughy-stroke" fill="none" stroke-linecap="butt" stroke-linejoin="miter" stroke-miterlimit="4" stroke="#f4f4f4" stroke-width="1"><g><path d="M 106 52C 52.9807 52 10 43.9411 10 34L 10 10C 10 19.9411 52.9807 28 106 28C 159.0193 28 202 19.9411 202 10L 202 34C 202 43.9411 159.0193 52 106 52ZM 202 10C 202 26.775 202 17.225 202 34M 10 10C 10 26.775 10 17.225 10 34"></path></g></g></g><g id="g-root-tx_groundtr_mdlp65c9uha8-stroke" data-item-order="0" transform="translate(14, 38)"></g><g id="g-root-tx_confiden_92rnvxc9ufpd-stroke" data-item-order="0" transform="translate(290, 146)"></g><g id="g-root-tx_conveyss_1hhl67hc9ufib-stroke" data-item-order="0" transform="translate(278, 242)"></g><g id="g-root-tx_highconf_1usf7hpc9uh36-stroke" data-item-order="0" transform="translate(86, 260)"></g><g id="g-root-tx_mediumco_1464nu5c9uh38-stroke" data-item-order="0" transform="translate(86, 362)"></g><g id="g-root-tx_suggests_qvamjxc9ufid-stroke" data-item-order="0" transform="translate(266, 356)"></g><g id="g-root-tx_lowconfi_dju46lc9uh3a-stroke" data-item-order="0" transform="translate(86, 458)"></g><g id="g-root-tx_indicate_902wdc9ufif-stroke" data-item-order="0" transform="translate(278, 452)"></g></g></g><path id="wv7zueld3hzpe" d="M65.283 12.757a.35.35 0 0 0 .584.157l5.203-5.141-6.183 3.523.396 1.461zm-2.216-11.7a.35.35 0 0 0-.522.305v3.111l3.276-1.868-2.754-1.548zm3.728 2.105l-4.25 2.421v2.445l6.391-3.644-2.141-1.222zm4.708 3.303a.35.35 0 0 0 0-.609l-1.592-.9-7.365 4.199v1.782a.35.35 0 0 0 .523.305l8.435-4.777z M44.542 2.513c0-.433.355-.783.792-.783s.792.35.792.783-.355.783-.792.783-.792-.35-.792-.783zm59.171 0c0-.433.355-.783.792-.783s.792.35.792.783-.355.783-.792.783-.792-.35-.792-.783zm-85.951 7.636h-1.27v-.487c-.276.201-.864.609-1.881.609-1.202 0-2.274-.794-2.137-2.078.118-1.106 1.153-1.584 1.848-1.727l2.17-.345c0-.539-.29-.956-1.064-1.006s-1.21.305-1.571 1.017l-1.124-.605c1.218-2.631 5.029-1.764 5.029.414v4.207zm-1.27-2.86c.006.396-.062 1.112-.819 1.59-.587.37-1.841.299-1.903-.395-.049-.555.461-.791.906-.898l1.816-.297zm72.662 2.86h-1.27v-.487c-.276.201-.864.609-1.881.609-1.202 0-2.274-.794-2.137-2.078.118-1.106 1.153-1.584 1.848-1.727l2.17-.345c0-.539-.29-.956-1.064-1.006s-1.21.305-1.571 1.017l-1.124-.605c1.218-2.631 5.029-1.764 5.029.414v4.207zm-1.27-2.86c.006.396-.062 1.112-.82 1.59-.587.37-1.841.299-1.903-.395-.049-.555.461-.791.906-.898l1.816-.297zM99.096 10.149H97.85v-8.45h1.246v4.895l2.68-2.559h1.738l-2.633 2.535 2.715 3.578h-1.556l-2.077-2.707-.867.844v1.863zm6.053-6.114h-1.255v6.113h1.255V4.035zm-59.2 0h-1.255v6.113h1.255V4.035zm5.584 6.113V1.697h1.255v2.695c.361-.346 1-.485 1.47-.485 1.452 0 2.477 1.082 2.457 2.448v3.792h-1.27v-3.68c0-.408-.214-1.339-1.315-1.339-.968 0-1.342.756-1.342 1.339v3.681h-1.255zm-4.76-4.894V4.039h.621a.45.45 0 0 0 .45-.45v-.855h1.251v1.305h1.309v1.215h-1.309v3.109c0 .293.105.664.648.664.365 0 .531-.035.736-.07v1.137s-.361.113-.857.113c-1.398 0-1.777-1.051-1.777-1.788V5.254h-1.071zM36.528 4.039h-1.394l2.191 6.106h1.125l1.234-3.918 1.238 3.918h1.129l2.188-6.106h-1.383l-1.359 3.93-1.256-3.93h-1.124l-1.242 3.957-1.348-3.957zM26.212 7.141c-.02 1.566 1.187 3.129 3.223 3.129 1.566 0 2.383-.918 2.734-1.719L31.172 8c-.315.399-.801 1.094-1.738 1.094-1.145 0-1.825-.781-1.891-1.52h4.625c.074-.284.148-.995-.03-1.559-.336-1.064-1.221-2.102-2.839-2.102s-3.088 1.152-3.088 3.227zm1.363-.75h3.348c-.055-.43-.566-1.301-1.623-1.301a1.79 1.79 0 0 0-1.725 1.301zm-8.758.75c.038 1.758 1.277 3.133 3.145 3.133 1.074 0 1.723-.477 1.961-.672v.547h1.242V1.703h-1.258v2.888c-.414-.36-1.062-.68-1.93-.68-1.91 0-3.198 1.473-3.16 3.23zm1.309-.08c0 1.119.723 1.978 1.836 1.978a1.88 1.88 0 0 0 1.94-1.904c0-1.371-1.011-1.99-1.972-1.99s-1.805.798-1.805 1.916zm76.683-.028C96.771 5.275 95.532 3.9 93.664 3.9c-1.074 0-1.723.477-1.961.672v-.547h-1.242v8.22h1.258V9.583c.414.36 1.063.68 1.93.68 1.91 0 3.198-1.473 3.16-3.23zm-1.309.08c0-1.119-.723-1.978-1.836-1.978a1.88 1.88 0 0 0-1.94 1.904c0 1.371 1.011 1.99 1.972 1.99S95.5 8.231 95.5 7.113zM106.441 10.173V4.036h1.254v.382c.361-.346 1-.485 1.47-.485 1.452 0 2.477 1.082 2.457 2.448v3.792h-1.27V6.492c0-.408-.214-1.339-1.315-1.339-.969 0-1.342.756-1.342 1.339v3.681h-1.254zm-30.383-.021V1.824h1.084l4.215 5.777V1.824h1.32v8.328h-1.094l-4.207-5.796v5.796h-1.319zM5.24 10.149H4V2.377h1.014l2.664 3.597 2.654-3.592h1.03v7.766h-1.256V4.762L7.678 8.068 5.24 4.742v5.407z" transform="translate(368, 608)" fill="#ababab88" stroke="none"></path></svg>