<?xml version="1.0" encoding="utf-8" standalone="yes"?>
<!DOCTYPE svg PUBLIC "-//W3C//DTD SVG 1.1//EN" "http://www.w3.org/Graphics/SVG/1.1/DTD/svg11.dtd">
<svg width="666" height="480" viewBox="0 0 666 480" style="fill:none;stroke:none;fill-rule:evenodd;clip-rule:evenodd;stroke-linecap:round;stroke-linejoin:round;stroke-miterlimit:1.5;" version="1.1" xmlns="http://www.w3.org/2000/svg" xmlns:xlink="http://www.w3.org/1999/xlink"><g id="items" style="isolation: isolate"><g id="blend" style="mix-blend-mode: normal"><g id="g-root-cp_0_g-0_hwit31alvgne-fill" data-item-order="-237301" transform="translate(20, 254)"></g><g id="g-root-sy_0_Vector_4l2appalvi8c-fill" data-item-order="-237297" transform="translate(562, 254)"></g><g id="g-root-cp_1_g-1_4l2appalvi8d-fill" data-item-order="-237293" transform="translate(77, 251)"></g><g id="g-root-cp_2_g-2_1qbcbelalvggf-fill" data-item-order="-237289" transform="translate(137, 251)"></g><g id="g-root-cp_3_g-3_1lvita5alvh8p-fill" data-item-order="-237285" transform="translate(197, 251)"></g><g id="g-root-cp_6_g-6_1hfpb5palvi0z-fill" data-item-order="-237281" transform="translate(377, 251)"></g><g id="g-root-cp_5_g-5_18k2awtalvitp-fill" data-item-order="-237277" transform="translate(317, 251)"></g><g id="g-root-cp_7_g-7_v989mlalvh8v-fill" data-item-order="-237273" transform="translate(437, 251)"></g><g id="g-root-cp_4_g-4_qteri5alvi15-fill" data-item-order="-237269" transform="translate(257, 251)"></g><g id="g-root-cp_8_g-8_mdl9dpalvitf-fill" data-item-order="-237265" transform="translate(497, 251)"></g><g id="g-root-cp_9_g-9_dikq7xalvggd-fill" data-item-order="-237261" transform="translate(557, 251)"></g><g id="g-root-ic_shar_18hkhq5alhez3-fill" data-item-order="-1296" transform="translate(482, 266)"><g id="ic_shar_18hkhq5alhez3-fill" stroke="none" fill="#fff0fc"><g><path d="M 20.875 26.5L 12.625 26.5C 11.17866 26.508194 10.008195 27.678659 10 29.125L 10 43.375C 10.008195 44.821339 11.17866 45.991806 12.625 46L 20.875 46C 22.324747 46.000004 23.5 44.824749 23.5 43.375004L 23.5 29.125C 23.5 27.675255 22.324747 26.5 20.875 26.500002ZM 12.625 28.75L 20.875 28.75C 21.082108 28.75 21.25 28.917892 21.25 29.125L 21.25 40L 12.25 40L 12.25 29.200001C 12.227186 29.088354 12.256374 28.972395 12.329325 28.884853C 12.402275 28.797314 12.511071 28.747692 12.625 28.75ZM 43.375 10L 32.125 10C 30.678659 10.008195 29.508194 11.17866 29.5 12.625L 29.5 23.125C 29.508194 24.571339 30.678659 25.741804 32.125 25.75L 43.375 25.75C 44.821339 25.741804 45.991806 24.571339 46 23.125L 46 12.625C 45.991806 11.17866 44.821339 10.008195 43.375 10ZM 38.5 15.355L 38.5 18.355L 31.75 18.355L 31.75 15.355ZM 40.75 15.355L 43.75 15.355L 43.75 18.355L 40.75 18.355ZM 31.75 23.125L 31.75 20.575001L 38.5 20.575001L 38.5 23.5L 32.125 23.5C 31.917892 23.5 31.75 23.332108 31.75 23.125ZM 43.375 23.5L 40.779999 23.5L 40.779999 20.575001L 43.779999 20.575001L 43.779999 23.125C 43.780334 23.229879 43.736736 23.330107 43.659782 23.401361C 43.582825 23.472618 43.479546 23.508392 43.375 23.5ZM 27.715 13.555L 24.34 10.315C 24.018038 10.000672 23.53817 9.911807 23.125 10.09C 22.707836 10.264906 22.436005 10.672655 22.434999 11.125L 22.434999 13.24L 21.309999 13.24C 18.256229 13.198188 15.742494 15.631485 15.684999 18.684999L 15.684999 19.18L 13.434999 19.18C 12.97634 19.180294 12.563782 19.459 12.392303 19.884398C 12.220825 20.309795 12.324765 20.796703 12.655 21.115L 16 24.355C 16.439226 24.79368 17.150774 24.79368 17.59 24.355001L 20.965 21.115C 21.295235 20.796703 21.399176 20.309795 21.227697 19.884398C 21.056217 19.459 20.64366 19.180294 20.185001 19.18L 17.934999 19.18L 17.934999 18.684999C 17.992161 16.874084 19.498671 15.447921 21.310001 15.49L 22.434999 15.49L 22.434999 17.605C 22.436005 18.057344 22.707836 18.465096 23.125 18.639999C 23.243587 18.692255 23.370613 18.72274 23.5 18.73C 23.791571 18.73304 24.072311 18.619665 24.280001 18.415001L 27.655001 15.175C 27.886946 14.973564 28.025036 14.68501 28.036407 14.378016C 28.047775 14.071021 27.93141 13.773042 27.715 13.555Z"></path></g></g></g><g id="g-root-ic_conn_qu18l9am14wd-fill" data-item-order="-1296" transform="translate(362, 266)"><g id="ic_conn_qu18l9am14wd-fill" stroke="none" fill="#fff0fc"><g><path d="M 43.75 15.07L 36.43 15.07C 36.144207 15.067082 35.883877 14.905099 35.755001 14.65L 35.079998 13.315001C 34.707928 12.545506 33.924671 12.060355 33.07 12.07L 30.25 12.07C 29.00736 12.07 28 13.077359 28 14.32L 28 24.82C 28 26.062641 29.00736 27.07 30.25 27.07L 43.75 27.07C 44.992641 27.07 46 26.062641 46 24.82L 46 17.32C 46 16.077358 44.992641 15.07 43.75 15.07ZM 43.75 33.07L 36.43 33.07C 36.144207 33.067081 35.883877 32.905098 35.755001 32.649998L 35.079998 31.315001C 34.707928 30.545506 33.924671 30.060356 33.07 30.07L 30.25 30.07C 29.00736 30.07 28 31.07736 28 32.32L 28 42.82C 28 44.062641 29.00736 45.07 30.25 45.07L 43.75 45.07C 44.992641 45.07 46 44.062641 46 42.82L 46 35.32C 46 34.077358 44.992641 33.07 43.75 33.07ZM 11.125 33.43C 11.740509 33.430054 12.241794 32.935455 12.25 32.32L 12.25 30.82C 12.250054 30.196207 11.748739 29.688206 11.125 29.68C 10.501261 29.688206 9.999946 30.196207 10 30.82L 10 32.32C 10.008206 32.935455 10.509491 33.430054 11.125 33.43ZM 11.125 14.68C 11.740509 14.680055 12.241794 14.185455 12.25 13.57L 12.25 12.07C 12.250054 11.446207 11.748739 10.938208 11.125 10.93C 10.501261 10.938208 9.999946 11.446207 10 12.07L 10 13.57C 10.008206 14.185455 10.509491 14.680055 11.125 14.68ZM 11.125 27.43C 11.740509 27.430056 12.241794 26.935455 12.25 26.32L 12.25 24.82C 12.250054 24.196207 11.748739 23.688208 11.125 23.68C 10.501261 23.688208 9.999946 24.196207 10 24.82L 10 26.32C 10.008206 26.935455 10.509491 27.430056 11.125 27.43ZM 13.375 19.18L 12.25 19.18L 12.25 18.07C 12.250054 17.446207 11.748739 16.938208 11.125 16.93C 10.501261 16.938208 9.999946 17.446207 10 18.07L 10 19.57C 10.008238 20.599672 10.845296 21.430033 11.875 21.43L 13.375 21.43C 13.990509 21.430056 14.491794 20.935455 14.5 20.32C 14.500054 19.696207 13.998739 19.188208 13.375 19.18ZM 19.375 19.18L 17.875 19.18C 17.251261 19.188208 16.749947 19.696207 16.75 20.32C 16.758207 20.935455 17.259491 21.430056 17.875 21.43L 19.375 21.43C 19.990509 21.430056 20.491795 20.935455 20.5 20.32C 20.500053 19.696207 19.998739 19.188208 19.375 19.18ZM 25.375 19.18L 23.875 19.18C 23.251261 19.188208 22.749947 19.696207 22.75 20.32C 22.758207 20.935455 23.259491 21.430056 23.875 21.43L 25.375 21.43C 25.990511 21.430056 26.491793 20.935455 26.5 20.32C 26.500053 19.696207 25.998739 19.188208 25.375 19.18ZM 19.375 37.93L 17.875 37.93C 17.251261 37.938206 16.749947 38.446205 16.75 39.07C 16.758207 39.685455 17.259491 40.180054 17.875 40.18L 19.375 40.18C 19.990509 40.180054 20.491795 39.685455 20.5 39.07C 20.500053 38.446205 19.998739 37.938206 19.375 37.93ZM 25.375 37.93L 23.875 37.93C 23.251261 37.938206 22.749947 38.446205 22.75 39.07C 22.758207 39.685455 23.259491 40.180054 23.875 40.18L 25.375 40.18C 25.990511 40.180054 26.491793 39.685455 26.5 39.07C 26.500053 38.446205 25.998739 37.938206 25.375 37.93ZM 13.375 37.93L 12.25 37.93L 12.25 36.82C 12.250054 36.196205 11.748739 35.688206 11.125 35.68C 10.501261 35.688206 9.999946 36.196205 10 36.82L 10 38.32C 10.008238 39.34967 10.845296 40.180031 11.875 40.18L 13.375 40.18C 13.990509 40.180054 14.491794 39.685455 14.5 39.07C 14.500054 38.446205 13.998739 37.938206 13.375 37.93Z"></path></g></g></g><g id="g-root-ic_shie_1q7lgvxalzo5f-fill" data-item-order="-1296" transform="translate(242, 266)"><g id="ic_shie_1q7lgvxalzo5f-fill" stroke="none" fill="#fff0fc"><g><path d="M 27.280001 43L 13.78 43C 13.365787 43 13.03 42.664215 13.03 42.25L 13.03 21.25C 13.029677 20.847225 13.347548 20.516111 13.75 20.5L 23.5 20.5C 23.703379 20.497051 23.898888 20.578512 24.039999 20.725L 28.66 25.344999C 29.785789 24.999199 30.933319 24.728603 32.095001 24.535L 25.494999 17.934999C 25.200987 17.642876 24.799208 17.48542 24.385 17.5L 19.75 17.5L 19.75 13.75C 19.75 13.335787 20.085787 13 20.5 13L 30.190001 13C 30.393379 12.997051 30.588886 13.078512 30.73 13.225L 36.025002 18.52C 36.157097 18.646441 36.23732 18.817581 36.25 19L 36.25 24.099998C 37.253048 24.10359 38.254929 24.168713 39.25 24.295002L 39.25 18.115C 39.248344 17.721491 39.092117 17.344391 38.814999 17.065001L 32.185001 10.435C 31.905609 10.157884 31.528509 10.001657 31.135 10L 19.75 10C 18.093145 10 16.75 11.343145 16.75 13L 16.75 17.5L 13 17.5C 11.343145 17.5 10 18.843145 10 20.5L 10 43C 10 44.656857 11.343145 46 13 46L 29.5 46C 29.810144 46.002571 30.118813 45.957027 30.414999 45.864998C 29.24004 45.062721 28.184568 44.098152 27.280001 43ZM 44.605 28C 41.918091 27.0177 39.080826 26.510138 36.220001 26.500002C 33.378075 26.50316 30.559303 27.011047 27.895 28C 27.024899 28.374857 26.471901 29.243002 26.5 30.189999L 26.5 35.275002C 26.79398 39.936306 29.866362 43.961777 34.285 45.474998L 35.110001 45.790001C 35.464413 45.925995 35.840401 45.997131 36.220001 45.999996C 36.594917 45.999039 36.966328 45.927807 37.314999 45.790001L 38.154999 45.474998C 42.775002 43.720001 46 39.474998 46 35.275002L 46 30.190001C 46.028095 29.243002 45.475098 28.374857 44.605 28ZM 40.75 35.785L 37.375 35.785L 37.375 39.16C 37.375 39.781319 36.871319 40.285 36.25 40.285C 35.628681 40.285 35.125 39.781319 35.125 39.16L 35.125 35.785L 31.75 35.785C 31.128681 35.785 30.625 35.281319 30.625 34.66C 30.625 34.038681 31.128681 33.535 31.75 33.535L 35.125 33.535L 35.125 30.16C 35.125 29.538679 35.628681 29.035 36.25 29.035C 36.871319 29.035 37.375 29.538679 37.375 30.16L 37.375 33.535L 40.75 33.535C 41.371323 33.535 41.875 34.038681 41.875 34.66C 41.875 35.281319 41.371323 35.785 40.75 35.785ZM 16.795 27.865L 22.795 27.865C 23.623428 27.865 24.295 27.193428 24.295 26.365C 24.295 25.536573 23.623428 24.865 22.795 24.865L 16.795 24.865C 15.966573 24.865 15.295 25.536573 15.295 26.365C 15.295 27.193428 15.966573 27.865 16.795 27.865ZM 22.795 30.865L 16.795 30.865C 15.966573 30.865 15.295 31.536573 15.295 32.364998C 15.295 33.193428 15.966573 33.864998 16.795 33.864998L 22.795 33.864998C 23.623428 33.864998 24.295 33.193428 24.295 32.364998C 24.295 31.536573 23.623428 30.865 22.795 30.865ZM 19.795 36.864998L 16.795 36.864998C 15.966573 36.864998 15.295 37.536575 15.295 38.364998C 15.295 39.193428 15.966573 39.864998 16.795 39.864998L 19.795 39.864998C 20.623428 39.864998 21.295 39.193428 21.295 38.364998C 21.295 37.536575 20.623428 36.864998 19.795 36.864998Z"></path></g></g></g><g id="g-root-ic_page_v989mlalwvep-fill" data-item-order="-1296" transform="translate(122, 266)"><g id="ic_page_v989mlalwvep-fill" stroke="none" fill="#fff0fc"><g><path d="M 11.281 13.1635C 11.281 11.6845 12.4765 10.4875 13.9555 10.4875L 29.455 10.4875C 30.139 10.4875 30.818501 10.75 31.3255 11.2525L 34.421501 14.2225C 34.946503 14.7325 35.23 15.43 35.23 16.1395L 35.23 30.7255C 33.727501 29.343187 31.395262 29.416842 29.982979 30.891205C 28.570692 32.365566 28.597372 34.698814 30.043001 36.140499L 31.391499 37.488998L 13.9555 37.488998C 13.245796 37.489399 12.565067 37.207542 12.063372 36.705566C 11.561676 36.20359 11.280203 35.522701 11.281 34.813L 11.281 13.165ZM 17.493999 15.7945C 16.872681 15.7945 16.368999 16.29818 16.368999 16.9195C 16.368999 17.540821 16.872681 18.0445 17.493999 18.0445L 26.512001 18.0445C 27.13332 18.0445 27.637001 17.540821 27.637001 16.9195C 27.637001 16.29818 27.13332 15.7945 26.512001 15.7945L 17.493999 15.7945ZM 16.368999 23.237499C 16.368999 22.61618 16.872681 22.112499 17.493999 22.112499L 29.1745 22.112499C 29.795822 22.112499 30.2995 22.61618 30.2995 23.237499C 30.2995 23.858822 29.795822 24.362499 29.1745 24.362499L 17.493999 24.362499C 16.872681 24.362501 16.368999 23.858822 16.368999 23.237499ZM 31.636 32.428001C 32.221748 31.842426 33.171249 31.842426 33.757 32.428001L 37.957001 36.628002L 42.158501 32.428001C 42.744202 31.841888 43.694141 31.841555 44.280254 32.42725C 44.866364 33.012951 44.866699 33.962891 44.281002 34.549004L 40.079498 38.7505L 44.279503 42.9505C 44.848389 43.538666 44.840927 44.474239 44.26273 45.053257C 43.684532 45.632271 42.74897 45.641056 42.16 45.072998L 37.9585 40.873001L 33.757 45.072998C 33.168434 45.64146 32.232872 45.633327 31.654272 45.054726C 31.075672 44.476128 31.067541 43.540565 31.636 42.952L 35.836002 38.7505L 31.636 34.550499C 31.354336 34.26915 31.19607 33.887363 31.19607 33.48925C 31.19607 33.091137 31.354336 32.709351 31.636 32.428001Z"></path></g></g></g><g id="g-root-ic_reco_146481palvimg-fill" data-item-order="-1296" transform="translate(62, 206)"><g id="ic_reco_146481palvimg-fill" stroke="none" fill="#fff0fc"><g><path d="M 25.164999 16C 24.8654 15.995923 24.576878 16.11314 24.365009 16.325008C 24.153141 16.536877 24.035923 16.825401 24.040001 17.125L 24.039999 24.535C 24.040001 25.156321 24.54368 25.66 25.165001 25.66C 25.78632 25.66 26.290001 25.156321 26.290001 24.535L 26.289999 17.110001C 26.281794 16.494545 25.78051 15.999946 25.165001 16ZM 28.914999 14.74C 28.29368 14.74 27.790001 15.24368 27.790001 15.865L 27.789999 25.764999C 27.790001 26.38632 28.29368 26.889999 28.915001 26.889999C 29.53632 26.889999 30.040001 26.38632 30.040001 25.764999L 30.039999 15.865C 30.031921 15.247057 29.532944 14.748078 28.914999 14.74ZM 43.915001 17.215C 43.293682 17.215 42.790001 17.718679 42.790001 18.34L 42.790001 23.289999C 42.790001 23.91132 43.293682 24.415001 43.915001 24.415001C 44.53632 24.415001 45.040001 23.91132 45.040001 23.290001L 45.040001 18.34C 45.031921 17.722057 44.532944 17.22308 43.914997 17.215ZM 40.165001 16C 39.865402 15.995923 39.576878 16.11314 39.365009 16.325008C 39.153141 16.536877 39.035923 16.825401 39.040001 17.125L 39.040001 24.535C 39.040001 25.156321 39.543682 25.66 40.165001 25.66C 40.78632 25.66 41.290001 25.156321 41.290001 24.535L 41.290001 17.110001C 41.281796 16.494545 40.78051 15.999946 40.165001 16ZM 36.415001 14.74C 35.793682 14.74 35.290001 15.24368 35.290001 15.865L 35.290001 25.764999C 35.290001 26.38632 35.793682 26.889999 36.415001 26.889999C 37.03632 26.889999 37.540001 26.38632 37.540001 25.764999L 37.540001 15.865C 37.531921 15.247057 37.032944 14.748078 36.414997 14.74ZM 32.665001 11.035C 32.365402 11.030923 32.076878 11.14814 31.865009 11.360009C 31.653141 11.571877 31.535923 11.8604 31.540001 12.16L 31.539999 29.5C 31.540001 30.121321 32.043678 30.625 32.665001 30.625C 33.28632 30.625 33.790001 30.121321 33.790001 29.5L 33.790001 12.16C 33.790001 11.53868 33.28632 11.035 32.665001 11.035ZM 22.539999 22.795L 22.539999 18.295C 22.540001 17.673679 22.03632 17.17 21.415001 17.17C 20.79368 17.17 20.290001 17.673679 20.290001 18.295L 20.290001 21.684999C 21.130064 21.834215 21.910397 22.219179 22.540001 22.795002ZM 20.275 30.039999L 20.275 28.33C 21.360224 27.962799 22.020002 26.863857 21.833931 25.733402C 21.647861 24.602949 20.670666 23.773449 19.525 23.773449C 18.379335 23.773449 17.40214 24.602949 17.216068 25.733402C 17.029997 26.863857 17.689775 27.962799 18.775 28.33L 18.775 30.039999C 13.824326 30.438265 10.007434 34.568336 10 39.535L 10 43.345001C 10 44.811317 11.188684 46 12.655 46L 26.380001 46C 27.846315 46 29.035 44.811317 29.035 43.345001L 29.035 39.535C 29.028208 34.57365 25.219746 30.445641 20.275 30.039999ZM 23.275002 34.27C 23.97403 34.26392 24.607616 34.680325 24.879347 35.324409C 25.151077 35.968491 25.007217 36.712894 24.515074 37.209354C 24.02293 37.705818 23.279814 37.856171 22.633381 37.590073C 21.98695 37.323982 21.565025 36.694057 21.564999 35.994999C 21.556622 35.056355 22.306461 34.28643 23.244999 34.27ZM 15.775 34.27C 16.727692 34.269997 17.5 35.042309 17.5 35.994999C 17.5 36.947689 16.727692 37.720001 15.775 37.720001C 14.822309 37.720001 14.049999 36.947689 14.049999 35.994999C 14.045881 35.533638 14.228371 35.090191 14.556025 34.765362C 14.883679 34.440529 15.328691 34.261887 15.79 34.27ZM 26.77 43.345001C 26.77 43.568676 26.588676 43.75 26.365 43.75L 12.655 43.75C 12.431325 43.75 12.25 43.568676 12.25 43.345001L 12.25 40.66L 26.785 40.66Z"></path></g></g></g><g id="g-root-ic_poin_142ddj1alyc5e-fill" data-item-order="-1296" transform="translate(182, 206)"><g id="ic_poin_142ddj1alyc5e-fill" stroke="none" fill="#fff0fc"><g><path d="M 22.5625 11.5525C 22.570654 10.724162 21.905832 10.046016 21.077497 10.037733C 20.249161 10.029449 19.570911 10.694165 19.5625 11.5225L 19.5625 11.5525L 19.5625 18.309999C 19.5625 18.93132 19.058821 19.434999 18.4375 19.434999C 17.816181 19.434999 17.3125 18.93132 17.3125 18.309999L 17.3125 14.5L 13.776999 14.5C 11.782 14.5015 10.0885 16.193501 10.0885 18.190001L 10.0885 42.259003C 10.0885 44.254002 11.782 45.948997 13.776999 45.948997L 42.223 45.948997C 44.218002 45.948997 45.911499 44.254002 45.911499 42.259003L 45.911499 18.190001C 45.91 16.195 44.218002 14.5 42.223 14.5L 38.3125 14.5L 38.3125 11.5525C 38.320656 10.724162 37.65583 10.046016 36.827496 10.037733C 35.999161 10.029449 35.320911 10.694165 35.312496 11.5225L 35.3125 11.5525L 35.3125 18.309999C 35.3125 18.93132 34.808819 19.434999 34.1875 19.434999C 33.566181 19.434999 33.0625 18.93132 33.0625 18.309999L 33.0625 14.5L 22.5625 14.5L 22.5625 11.5525ZM 13.0885 42.259003L 13.0885 24.214001L 42.911499 24.214001L 42.911499 42.259003C 42.911499 42.598 42.562 42.948997 42.223 42.948997L 13.776999 42.948997C 13.438 42.948997 13.0885 42.598 13.0885 42.259003ZM 27.227499 28.727499C 27.820173 28.760414 28.337688 29.13973 28.547501 29.695L 29.314001 31.719999L 37.846001 28.875999C 38.632126 28.613977 39.481831 29.038757 39.743996 29.824835C 40.006161 30.610914 39.581532 31.460697 38.795502 31.723L 30.3745 34.528L 31.098999 36.445C 31.312443 37.011299 31.164669 37.650398 30.724297 38.065521C 30.283924 38.480644 29.637228 38.590469 29.084499 38.344002L 24.209499 36.168999C 23.844765 36.006805 23.560102 35.705402 23.419001 35.331997L 23.407 35.300499C 23.268387 34.910362 23.297714 34.480213 23.488001 34.112503L 25.808498 29.545C 26.077896 29.01556 26.634352 28.694981 27.227499 28.727499ZM 16.93 36.974499C 16.93 35.780502 17.889999 34.820503 19.084 34.820503C 20.278 34.820503 21.238001 35.780502 21.238001 36.974499C 21.238001 38.168499 20.278 39.128502 19.084 39.128502C 17.8885 39.128502 16.93 38.168499 16.93 36.974499Z"></path></g></g></g><g id="g-root-ic_chec_9m471alzqis-fill" data-item-order="-1296" transform="translate(302, 206)"><g id="ic_chec_9m471alzqis-fill" stroke="none" fill="#fff0fc"><g><path d="M 32.702499 13.257999C 33.28944 12.69467 33.308578 11.762191 32.745251 11.17525C 32.181919 10.588309 31.249439 10.56917 30.662498 11.1325L 27.985001 13.702L 26.7955 12.592C 26.197914 12.061642 25.286465 12.104399 24.741154 12.688372C 24.195841 13.272345 24.215515 14.184583 24.7855 14.7445L 26.994999 16.806999C 27.566957 17.340351 28.456009 17.333765 29.02 16.792L 32.702499 13.257999ZM 20.102501 19.381001C 19.28957 19.381828 18.631001 20.041071 18.631001 20.854L 18.631001 43.804001C 18.631001 44.6185 19.291 45.277 20.104 45.277L 35.896 45.277C 36.710499 45.277 37.368999 44.616997 37.368999 43.8055L 37.368999 20.854C 37.368999 20.040485 36.709518 19.381001 35.896 19.381001L 20.104 19.381001ZM 34.423 34.873001L 34.423 29.929001L 21.5755 29.929001L 21.5755 34.873001L 34.4245 34.873001ZM 21.5755 37.819L 34.4245 37.819L 34.4245 42.3325L 21.573999 42.3325L 21.573999 37.817501ZM 34.4245 22.327L 34.4245 26.983L 21.573999 26.983L 21.573999 22.327L 34.423 22.327ZM 40.911999 27.629501C 40.098484 27.629501 39.439003 28.288984 39.439003 29.102501C 39.439003 29.916016 40.098484 30.5755 40.911999 30.5755L 42.679001 30.5755L 42.679001 33.5215L 40.911999 33.5215C 40.374809 33.504353 39.870922 33.781151 39.597252 34.243721C 39.323586 34.706295 39.323586 35.281204 39.597252 35.743778C 39.870922 36.206348 40.374809 36.48315 40.911999 36.466003L 42.679001 36.466L 42.679001 39.411999L 40.911999 39.411999C 40.098484 39.411999 39.439003 40.071487 39.439003 40.885002C 39.439003 41.698517 40.098484 42.358002 40.911999 42.358002L 42.679001 42.358002C 43.456001 42.358002 44.218002 42.092499 44.787998 41.521C 45.359501 40.951 45.625 40.188999 45.625 39.411999L 45.625 24.684999C 45.625 23.908001 45.359501 23.147501 44.787998 22.576C 44.218002 22.006001 43.456001 21.739 42.679001 21.739L 40.911999 21.739C 40.098484 21.739 39.439003 22.398485 39.439003 23.212002C 39.439003 24.025517 40.098484 24.684999 40.911999 24.684999L 42.679001 24.684999L 42.679001 27.631001L 40.911999 27.631001ZM 10.375 24.683498L 10.375 39.411999C 10.375 40.188999 10.6405 40.951 11.212 41.521C 11.782 42.092499 12.544 42.358002 13.321 42.358002L 15.088 42.358002C 15.901516 42.358002 16.561001 41.698517 16.561001 40.885002C 16.561001 40.071487 15.901516 39.411999 15.088 39.411999L 13.321 39.411999L 13.321 36.466L 15.088 36.466C 15.625191 36.48315 16.12908 36.206348 16.402746 35.743778C 16.676414 35.281204 16.676414 34.706295 16.402746 34.243721C 16.12908 33.781151 15.625191 33.504353 15.088 33.5215L 13.321 33.5215L 13.321 30.5755L 15.088 30.5755C 15.901516 30.5755 16.561001 29.916016 16.561001 29.102501C 16.561001 28.288984 15.901516 27.629501 15.088 27.629501L 13.321 27.629501L 13.321 24.683498L 15.088 24.683498C 15.901516 24.6835 16.561001 24.024017 16.561001 23.210501C 16.561001 22.396986 15.901516 21.737501 15.088 21.737501L 13.321 21.737499C 12.544 21.737499 11.782 22.003 11.212 22.574501C 10.6405 23.144499 10.375 23.9065 10.375 24.683498Z"></path></g></g></g><g id="g-root-ic_1_v7zem5alg26e-fill" data-item-order="-1296" transform="translate(422, 206)"><g id="ic_1_v7zem5alg26e-fill" stroke="none" fill="#fff0fc"><g><path d="M 45.564999 18.565001L 37.435001 10.435C 37.155609 10.157884 36.778511 10.001657 36.385002 10L 19 10C 17.343145 10 16 11.343145 16 13L 16 21.625C 16 21.832108 16.167892 22 16.375 22L 18.625 22C 18.832108 22 19 21.832108 19 21.625L 19 13.75C 19 13.335787 19.335787 13 19.75 13L 35.125 13C 35.332108 13 35.5 13.167893 35.5 13.375L 35.5 17.5C 35.5 19.156855 36.843143 20.5 38.5 20.5L 42.625 20.5C 42.832108 20.5 43 20.667892 43 20.875L 43 23.5L 11.8 23.5C 10.892797 23.430056 10.094796 24.095057 10 25L 10 38.5C 10.094796 39.404945 10.892797 40.069942 11.8 40L 43 40L 43 42.25C 43 42.664215 42.664215 43 42.25 43L 19.375 43C 19.167892 43 19 42.832108 19 42.625L 19 41.875C 19 41.667892 18.832108 41.5 18.625 41.5L 16.375 41.5C 16.167892 41.5 16 41.667892 16 41.875L 16 43C 16 44.656857 17.343145 46 19 46L 43 46C 44.656857 46 46 44.656857 46 43L 46 19.615C 45.998344 19.221491 45.842117 18.844391 45.564999 18.565001ZM 19.764999 28.195L 18.07 28.195C 17.862892 28.195 17.695 28.362894 17.695 28.57L 17.695 36.25C 17.741039 36.613251 17.573093 36.970406 17.263966 37.166641C 16.954834 37.362881 16.560165 37.362881 16.251036 37.166641C 15.941906 36.970406 15.77396 36.613251 15.82 36.25L 15.82 28.57C 15.82 28.362894 15.652107 28.195 15.445 28.195L 13.765 28.195C 13.40175 28.241039 13.044596 28.073095 12.848357 27.763966C 12.652119 27.454834 12.652119 27.060165 12.848357 26.751034C 13.044596 26.441906 13.40175 26.27396 13.765 26.32L 19.764999 26.32C 20.23719 26.379847 20.591179 26.781532 20.591179 27.2575C 20.591179 27.733467 20.23719 28.135153 19.764999 28.195ZM 25.57 35.32L 25.764999 35.32C 26.23719 35.379848 26.591179 35.781532 26.591179 36.2575C 26.591179 36.733467 26.23719 37.135151 25.764999 37.195L 22.764999 37.195C 22.401749 37.241043 22.044594 37.073093 21.848356 36.763966C 21.652119 36.454834 21.652119 36.060165 21.848356 35.751034C 22.044594 35.441906 22.401749 35.27396 22.764999 35.32L 22.945 35.32C 23.152107 35.32 23.32 35.152107 23.32 34.945L 23.32 28.57C 23.32 28.362894 23.152107 28.195 22.945 28.195L 22.764999 28.195C 22.401749 28.241039 22.044594 28.073095 21.848356 27.763966C 21.652119 27.454834 21.652119 27.060165 21.848356 26.751034C 22.044594 26.441906 22.401749 26.27396 22.764999 26.32L 25.764999 26.32C 26.23719 26.379847 26.591179 26.781532 26.591179 27.2575C 26.591179 27.733467 26.23719 28.135153 25.764999 28.195L 25.57 28.195C 25.362894 28.195 25.195 28.362894 25.195 28.57L 25.195 34.945C 25.195 35.152107 25.362894 35.32 25.57 35.32ZM 33.264999 28.195L 30.264999 28.195C 30.115225 28.190952 29.970173 28.247631 29.862823 28.352156C 29.755474 28.45668 29.694946 28.60017 29.695 28.75L 29.695 30.445C 29.695 30.652107 29.862894 30.82 30.07 30.82L 31.764999 30.82C 32.23719 30.879847 32.591179 31.281532 32.591179 31.7575C 32.591179 32.233467 32.23719 32.635155 31.764999 32.695L 30.07 32.695C 29.862894 32.695 29.695 32.862892 29.695 33.07L 29.695 36.25C 29.741039 36.613251 29.573095 36.970406 29.263966 37.166641C 28.954834 37.362881 28.560165 37.362881 28.251034 37.166641C 27.941906 36.970406 27.77396 36.613251 27.82 36.25L 27.82 28.75C 27.819988 28.102917 28.078064 27.482552 28.537025 27.026405C 28.995987 26.570259 29.617928 26.316006 30.264999 26.32L 33.264999 26.32C 33.73719 26.379847 34.091179 26.781532 34.091179 27.2575C 34.091179 27.733467 33.73719 28.135153 33.264999 28.195ZM 40.764999 28.195L 37.764999 28.195C 37.615223 28.190952 37.470177 28.247631 37.362823 28.352156C 37.255474 28.45668 37.194946 28.60017 37.195 28.75L 37.195 30.445C 37.195 30.652107 37.362892 30.82 37.57 30.82L 39.264999 30.82C 39.73719 30.879847 40.091179 31.281532 40.091179 31.7575C 40.091179 32.233467 39.73719 32.635155 39.264999 32.695L 37.57 32.695C 37.362892 32.695 37.195 32.862892 37.195 33.07L 37.195 36.25C 37.241043 36.613251 37.073093 36.970406 36.763966 37.166641C 36.454834 37.362881 36.060165 37.362881 35.751034 37.166641C 35.441906 36.970406 35.27396 36.613251 35.32 36.25L 35.32 28.75C 35.319988 28.102917 35.578064 27.482552 36.037025 27.026405C 36.495987 26.570259 37.117928 26.316006 37.764999 26.32L 40.764999 26.32C 41.23719 26.379847 41.591179 26.781532 41.591179 27.2575C 41.591179 27.733467 41.23719 28.135153 40.764999 28.195Z"></path></g></g></g><g id="g-root-ic_cont_hrj3jxaliv48-fill" data-item-order="-1296" transform="translate(542, 206)"><g id="ic_cont_hrj3jxaliv48-fill" stroke="none" fill="#fff0fc"><g><path d="M 18.448 10.957C 18.148098 10.184509 17.278757 9.801394 16.506262 10.101279C 15.733765 10.401166 15.35063 11.270497 15.6505 12.043L 17.5165 16.858L 15.4465 17.65C 15.002771 17.820158 14.713828 18.250792 14.724595 18.725904C 14.735363 19.201019 15.043518 19.618118 15.4945 19.768L 19.994499 21.268C 20.492773 21.43364 21.039364 21.232559 21.311501 20.783501L 23.8615 16.5835C 24.111948 16.172192 24.072838 15.647091 23.764217 15.277426C 23.455595 14.90776 22.945919 14.775517 22.4965 14.9485L 20.318501 15.784L 18.448 10.957ZM 11.2 39.25C 11.2 29.950001 18.700001 22.450001 28 22.450001C 37.300003 22.450001 44.800003 29.950001 44.800003 39.25L 44.800003 45.699997L 11.2 45.699997L 11.2 39.25ZM 31.900002 39.550003C 31.900173 41.384766 30.621441 42.971539 28.82856 43.36134C 27.035681 43.751137 25.213547 42.838535 24.451904 41.169327C 23.690262 39.500114 24.195103 37.525742 25.664499 36.427002L 22.7395 28.383999C 22.527267 27.799915 22.828789 27.154385 23.412918 26.942276C 23.997047 26.730167 24.642513 27.031826 24.8545 27.615999L 27.779499 35.655998C 28.850449 35.595352 29.899097 35.978481 30.678711 36.71524C 31.458323 37.452 31.900064 38.477333 31.9 39.549999ZM 33.258999 28.378C 33.445068 27.799696 33.138405 27.178125 32.566257 26.973904C 31.99411 26.76968 31.363173 27.056583 31.141001 27.622L 30.390999 29.722C 30.204931 30.300304 30.511599 30.921877 31.083744 31.126099C 31.655891 31.33032 32.286827 31.043417 32.509003 30.478001L 33.258999 28.378ZM 39.6115 32.820999C 39.765522 33.076935 39.81144 33.383617 39.739124 33.673439C 39.666809 33.963257 39.482204 34.212421 39.226002 34.366001L 36.975998 35.716C 36.442909 36.035774 35.751526 35.862843 35.431751 35.32975C 35.111977 34.796658 35.284908 34.105274 35.818001 33.7855L 38.068001 32.435501C 38.323936 32.281479 38.630615 32.235565 38.920441 32.307877C 39.210258 32.380192 39.459423 32.5648 39.612999 32.820999ZM 16.769501 34.365997C 16.236406 34.046227 16.063477 33.354843 16.383251 32.821751C 16.703024 32.288658 17.394407 32.115726 17.9275 32.435501L 20.1775 33.7855C 20.526413 33.990292 20.738493 34.366661 20.732929 34.771198C 20.727364 35.175735 20.505013 35.546127 20.150599 35.741245C 19.796185 35.936363 19.364296 35.926147 19.019501 35.7145L 16.769501 34.364502ZM 36.782501 41.199997C 36.864853 40.584671 37.43008 40.152359 38.045502 40.234001L 40.295502 40.534C 40.694935 40.585651 41.036282 40.846893 41.190495 41.21896C 41.344711 41.591026 41.288254 42.017147 41.04248 42.336224C 40.796703 42.655296 40.399105 42.818642 40 42.7645L 37.75 42.4645C 37.134674 42.382149 36.702362 41.816921 36.784 41.2015ZM 17.950001 40.2355C 18.553497 40.175884 19.095642 40.605343 19.175739 41.206467C 19.255835 41.807587 18.845053 42.364017 18.247 42.4645L 15.997 42.7645C 15.591635 42.832611 15.181393 42.674213 14.926977 42.35136C 14.672563 42.028511 14.614481 41.592602 14.775484 41.214397C 14.936488 40.836197 15.290943 40.575909 15.700001 40.5355L 17.950001 40.2355Z"></path></g></g></g><g id="g-root-tx_ongoingt_zn6fnhalk9hm-fill" data-item-order="0" transform="translate(518, 128)"><g id="tx_ongoingt_zn6fnhalk9hm-fill" stroke="none" fill="#fff0fc"><g><text style="font: 10px &quot;DM Mono Regular&quot;, monospace; white-space: pre;" font-size="10px" font-family="'DM Mono Regular', monospace"><tspan x="13" y="22.5" dominant-baseline="ideographic">Ongoing task </tspan><tspan x="34" y="34.5" dominant-baseline="ideographic">after </tspan><tspan x="16" y="46.5" dominant-baseline="ideographic">Performance </tspan><tspan x="25" y="58.5" dominant-baseline="ideographic">Baseline</tspan></text></g></g></g><g id="g-root-tx_phase3ta_3zxktalk8w0-fill" data-item-order="0" transform="translate(386, 140)"><g id="tx_phase3ta_3zxktalk8w0-fill" stroke="none" fill="#fff0fc"><g><text style="font: 10px &quot;DM Mono Regular&quot;, monospace; white-space: pre;" font-size="10px" font-family="'DM Mono Regular', monospace"><tspan x="26.5" y="22.5" dominant-baseline="ideographic">Phase 3 task </tspan><tspan x="17.5" y="34.5" dominant-baseline="ideographic">after Sensitive </tspan><tspan x="47.5" y="46.5" dominant-baseline="ideographic">Files</tspan></text></g></g></g><g id="g-root-tx_phase2ta_magz3xalk8we-fill" data-item-order="0" transform="translate(272, 140)"><g id="tx_phase2ta_magz3xalk8we-fill" stroke="none" fill="#fff0fc"><g><text style="font: 10px &quot;DM Mono Regular&quot;, monospace; white-space: pre;" font-size="10px" font-family="'DM Mono Regular', monospace"><tspan x="22" y="22.5" dominant-baseline="ideographic">Phase 2 task </tspan><tspan x="28" y="34.5" dominant-baseline="ideographic">after Non-</tspan><tspan x="16" y="46.5" dominant-baseline="ideographic">Critical Files</tspan></text></g></g></g><g id="g-root-tx_startsmi_24ibhalk9vo-fill" data-item-order="0" transform="translate(164, 152)"><g id="tx_startsmi_24ibhalk9vo-fill" stroke="none" fill="#fff0fc"><g><text style="font: 10px &quot;DM Mono Regular&quot;, monospace; white-space: pre;" font-size="10px" font-family="'DM Mono Regular', monospace"><tspan x="13" y="22.5" dominant-baseline="ideographic">Starts mid-</tspan><tspan x="25" y="34.5" dominant-baseline="ideographic">January</tspan></text></g></g></g><g id="g-root-tx_initialp_qof1z1alk9vm-fill" data-item-order="0" transform="translate(32, 152)"><g id="tx_initialp_qof1z1alk9vm-fill" stroke="none" fill="#fff0fc"><g><text style="font: 10px &quot;DM Mono Regular&quot;, monospace; white-space: pre;" font-size="10px" font-family="'DM Mono Regular', monospace"><tspan x="16" y="22.5" dominant-baseline="ideographic">Initial phase </tspan><tspan x="43" y="34.5" dominant-baseline="ideographic">task</tspan></text></g></g></g><g id="g-root-tx_fullprod_8z0gqlalkahb-fill" data-item-order="0" transform="translate(392, 98)"><g id="tx_fullprod_8z0gqlalkahb-fill" stroke="none" fill="#fff0fc"><g><text style="font: bold 15px &quot;DM Mono Regular&quot;, monospace; white-space: pre;" font-weight="bold" font-size="15px" font-family="'DM Mono Regular', monospace"><tspan x="40" y="28.5" dominant-baseline="ideographic">Full </tspan><tspan x="13" y="46.5" dominant-baseline="ideographic">Production</tspan></text></g></g></g><g id="g-root-tx_performa_1cwrirhalk8wd-fill" data-item-order="0" transform="translate(266, 98)"><g id="tx_performa_1cwrirhalk8wd-fill" stroke="none" fill="#fff0fc"><g><text style="font: bold 15px &quot;DM Mono Regular&quot;, monospace; white-space: pre;" font-weight="bold" font-size="15px" font-family="'DM Mono Regular', monospace"><tspan x="12.25" y="28.5" dominant-baseline="ideographic">Performance </tspan><tspan x="25.75" y="46.5" dominant-baseline="ideographic">Baseline</tspan></text></g></g></g><g id="g-root-tx_initialt_ddl0otalk8ar-fill" data-item-order="0" transform="translate(158, 110)"><g id="tx_initialt_ddl0otalk8ar-fill" stroke="none" fill="#fff0fc"><g><text style="font: bold 15px &quot;DM Mono Regular&quot;, monospace; white-space: pre;" font-weight="bold" font-size="15px" font-family="'DM Mono Regular', monospace"><tspan x="18.25" y="28.5" dominant-baseline="ideographic">Initial </tspan><tspan x="13.75" y="46.5" dominant-baseline="ideographic">Training</tspan></text></g></g></g><g id="g-root-tx_pilotset_13zvkcdalk8ap-fill" data-item-order="0" transform="translate(50, 110)"><g id="tx_pilotset_13zvkcdalk8ap-fill" stroke="none" fill="#fff0fc"><g><text style="font: bold 15px &quot;DM Mono Regular&quot;, monospace; white-space: pre;" font-weight="bold" font-size="15px" font-family="'DM Mono Regular', monospace"><tspan x="13" y="28.5" dominant-baseline="ideographic">Pilot </tspan><tspan x="13" y="46.5" dominant-baseline="ideographic">Setup</tspan></text></g></g></g><g id="g-root-tx_performa_1cymy0talk7wp-fill" data-item-order="0" transform="translate(506, 86)"><g id="tx_performa_1cymy0talk7wp-fill" stroke="none" fill="#fff0fc"><g><text style="font: bold 15px &quot;DM Mono Regular&quot;, monospace; white-space: pre;" font-weight="bold" font-size="15px" font-family="'DM Mono Regular', monospace"><tspan x="12.25" y="28.5" dominant-baseline="ideographic">Performance </tspan><tspan x="30.25" y="46.5" dominant-baseline="ideographic">Monitor</tspan></text></g></g></g><g id="g-root-tx_concurre_qva9x9aliu4q-fill" data-item-order="0" transform="translate(86, 398)"><g id="tx_concurre_qva9x9aliu4q-fill" stroke="none" fill="#fff0fc"><g><text style="font: 10px &quot;DM Mono Regular&quot;, monospace; white-space: pre;" font-size="10px" font-family="'DM Mono Regular', monospace"><tspan x="17.5" y="22.5" dominant-baseline="ideographic">Concurrent task </tspan><tspan x="14.5" y="34.5" dominant-baseline="ideographic">with Pilot Setup</tspan></text></g></g></g><g id="g-root-tx_noncriti_1hhktktaliu4p-fill" data-item-order="0" transform="translate(92, 332)"><g id="tx_noncriti_1hhktktaliu4p-fill" stroke="none" fill="#fff0fc"><g><text style="font: bold 15px &quot;DM Mono Regular&quot;, monospace; white-space: pre;" font-weight="bold" font-size="15px" font-family="'DM Mono Regular', monospace"><tspan x="35.5" y="31.5" dominant-baseline="ideographic">Non-</tspan><tspan x="17.5" y="49.5" dominant-baseline="ideographic">Critical </tspan><tspan x="31" y="67.5" dominant-baseline="ideographic">Files</tspan></text></g></g></g><g id="g-root-tx_expandco_8zq9paliu4r-fill" data-item-order="0" transform="translate(218, 332)"><g id="tx_expandco_8zq9paliu4r-fill" stroke="none" fill="#fff0fc"><g><text style="font: bold 15px &quot;DM Mono Regular&quot;, monospace; white-space: pre;" font-weight="bold" font-size="15px" font-family="'DM Mono Regular', monospace"><tspan x="25" y="28.5" dominant-baseline="ideographic">Expand </tspan><tspan x="16" y="46.5" dominant-baseline="ideographic">Coverage</tspan></text></g></g></g><g id="g-root-tx_sensitiv_147zqgtaliupx-fill" data-item-order="0" transform="translate(332, 332)"><g id="tx_sensitiv_147zqgtaliupx-fill" stroke="none" fill="#fff0fc"><g><text style="font: bold 15px &quot;DM Mono Regular&quot;, monospace; white-space: pre;" font-weight="bold" font-size="15px" font-family="'DM Mono Regular', monospace"><tspan x="14.75" y="28.5" dominant-baseline="ideographic">Sensitive </tspan><tspan x="32.75" y="46.5" dominant-baseline="ideographic">Files</tspan></text></g></g></g><g id="g-root-tx_quarterl_vk59alk7pj-fill" data-item-order="0" transform="translate(452, 332)"><g id="tx_quarterl_vk59alk7pj-fill" stroke="none" fill="#fff0fc"><g><text style="font: bold 15px &quot;DM Mono Regular&quot;, monospace; white-space: pre;" font-weight="bold" font-size="15px" font-family="'DM Mono Regular', monospace"><tspan x="14.75" y="28.5" dominant-baseline="ideographic">Quarterly </tspan><tspan x="19.25" y="46.5" dominant-baseline="ideographic">Training</tspan></text></g></g></g><g id="g-root-tx_phase2ta_1lyn9vhalivik-fill" data-item-order="0" transform="translate(212, 374)"><g id="tx_phase2ta_1lyn9vhalivik-fill" stroke="none" fill="#fff0fc"><g><text style="font: 10px &quot;DM Mono Regular&quot;, monospace; white-space: pre;" font-size="10px" font-family="'DM Mono Regular', monospace"><tspan x="22" y="22.5" dominant-baseline="ideographic">Phase 2 task </tspan><tspan x="28" y="34.5" dominant-baseline="ideographic">after Non-</tspan><tspan x="16" y="46.5" dominant-baseline="ideographic">Critical Files</tspan></text></g></g></g><g id="g-root-tx_phase3ta_qn63stalk7pi-fill" data-item-order="0" transform="translate(338, 374)"><g id="tx_phase3ta_qn63stalk7pi-fill" stroke="none" fill="#fff0fc"><g><text style="font: 10px &quot;DM Mono Regular&quot;, monospace; white-space: pre;" font-size="10px" font-family="'DM Mono Regular', monospace"><tspan x="13" y="22.5" dominant-baseline="ideographic">Phase 3 task </tspan><tspan x="13" y="34.5" dominant-baseline="ideographic">after Expand </tspan><tspan x="25" y="46.5" dominant-baseline="ideographic">Coverage</tspan></text></g></g></g><g id="g-root-tx_ongoingt_1lqj3r1alk93c-fill" data-item-order="0" transform="translate(452, 374)"><g id="tx_ongoingt_1lqj3r1alk93c-fill" stroke="none" fill="#fff0fc"><g><text style="font: 10px &quot;DM Mono Regular&quot;, monospace; white-space: pre;" font-size="10px" font-family="'DM Mono Regular', monospace"><tspan x="19" y="22.5" dominant-baseline="ideographic">Ongoing task </tspan><tspan x="16" y="34.5" dominant-baseline="ideographic">after Initial </tspan><tspan x="31" y="46.5" dominant-baseline="ideographic">Training</tspan></text></g></g></g><g id="g-root-tx_implemen_1userp9alvimf-fill" data-item-order="0" transform="translate(185, 38)"><g id="tx_implemen_1userp9alvimf-fill" stroke="none" fill="#fff0fc"><g><text style="font: bold 20px &quot;DM Mono Regular&quot;, monospace; white-space: pre;" font-weight="bold" font-size="20px" font-family="'DM Mono Regular', monospace"><tspan x="16" y="35" dominant-baseline="ideographic">Implementation Roadmap</tspan></text></g></g></g><g id="g-root-cp_0_g-0_hwit31alvgne-stroke" data-item-order="-237301" transform="translate(20, 254)"><g id="cp_0_g-0_hwit31alvgne-stroke" fill="none" stroke-linecap="round" stroke-linejoin="round" stroke-miterlimit="4" stroke="#fff0fc" stroke-width="2"><g><path d="M 67 10L 10 10M 127.0307 10L 72.9706 10M 187 10L 133 10M 247 10L 192.9701 10M 307 10L 252.9703 10M 367.0306 10L 312.9701 10M 427.0299 10L 373 10M 487 10L 433 10M 547.0297 10L 492.9801 10"></path></g></g></g><g id="g-root-sy_0_Vector_4l2appalvi8c-stroke" data-item-order="-237297" transform="translate(562, 254)"><g id="sy_0_Vector_4l2appalvi8c-stroke" fill="none" stroke-linecap="round" stroke-linejoin="round" stroke-miterlimit="4" stroke="#fff0fc" stroke-width="2"><g><path d="M 65 10L 10 10"></path><path d="M 59 16.5L 65.5 10L 59 3.5" stroke-dasharray="none"></path></g></g></g><g id="g-root-cp_1_g-1_4l2appalvi8d-stroke" data-item-order="-237293" transform="translate(77, 251)"><g id="cp_1_g-1_4l2appalvi8d-stroke" fill="none" stroke-linecap="round" stroke-linejoin="round" stroke-miterlimit="4" stroke="#fff0fc" stroke-width="2"><g><path d="M 16 13C 16 14.6569 14.6569 16 13 16C 11.3432 16 10 14.6569 10 13C 10 11.3431 11.3432 10 13 10C 14.6569 10 16 11.3431 16 13Z"></path></g></g></g><g id="g-root-cp_2_g-2_1qbcbelalvggf-stroke" data-item-order="-237289" transform="translate(137, 251)"><g id="cp_2_g-2_1qbcbelalvggf-stroke" fill="none" stroke-linecap="round" stroke-linejoin="round" stroke-miterlimit="4" stroke="#fff0fc" stroke-width="2"><g><path d="M 16 13C 16 14.6569 14.6568 16 13 16C 11.3431 16 10 14.6569 10 13C 10 11.3431 11.3431 10 13 10C 14.6568 10 16 11.3431 16 13Z"></path></g></g></g><g id="g-root-cp_3_g-3_1lvita5alvh8p-stroke" data-item-order="-237285" transform="translate(197, 251)"><g id="cp_3_g-3_1lvita5alvh8p-stroke" fill="none" stroke-linecap="round" stroke-linejoin="round" stroke-miterlimit="4" stroke="#fff0fc" stroke-width="2"><g><path d="M 16 13C 16 14.6569 14.6568 16 13 16C 11.3431 16 10 14.6569 10 13C 10 11.3431 11.3431 10 13 10C 14.6568 10 16 11.3431 16 13Z"></path></g></g></g><g id="g-root-cp_6_g-6_1hfpb5palvi0z-stroke" data-item-order="-237281" transform="translate(377, 251)"><g id="cp_6_g-6_1hfpb5palvi0z-stroke" fill="none" stroke-linecap="round" stroke-linejoin="round" stroke-miterlimit="4" stroke="#fff0fc" stroke-width="2"><g><path d="M 16 13C 16 14.6569 14.6569 16 13 16C 11.3431 16 10 14.6569 10 13C 10 11.3431 11.3431 10 13 10C 14.6569 10 16 11.3431 16 13Z"></path></g></g></g><g id="g-root-cp_5_g-5_18k2awtalvitp-stroke" data-item-order="-237277" transform="translate(317, 251)"><g id="cp_5_g-5_18k2awtalvitp-stroke" fill="none" stroke-linecap="round" stroke-linejoin="round" stroke-miterlimit="4" stroke="#fff0fc" stroke-width="2"><g><path d="M 16 13C 16 14.6569 14.6568 16 13 16C 11.3431 16 10 14.6569 10 13C 10 11.3431 11.3431 10 13 10C 14.6568 10 16 11.3431 16 13Z"></path></g></g></g><g id="g-root-cp_7_g-7_v989mlalvh8v-stroke" data-item-order="-237273" transform="translate(437, 251)"><g id="cp_7_g-7_v989mlalvh8v-stroke" fill="none" stroke-linecap="round" stroke-linejoin="round" stroke-miterlimit="4" stroke="#fff0fc" stroke-width="2"><g><path d="M 16 13C 16 14.6569 14.6569 16 13 16C 11.3432 16 10 14.6569 10 13C 10 11.3431 11.3432 10 13 10C 14.6569 10 16 11.3431 16 13Z"></path></g></g></g><g id="g-root-cp_4_g-4_qteri5alvi15-stroke" data-item-order="-237269" transform="translate(257, 251)"><g id="cp_4_g-4_qteri5alvi15-stroke" fill="none" stroke-linecap="round" stroke-linejoin="round" stroke-miterlimit="4" stroke="#fff0fc" stroke-width="2"><g><path d="M 16 13C 16 14.6569 14.6568 16 13 16C 11.3431 16 10 14.6569 10 13C 10 11.3431 11.3431 10 13 10C 14.6568 10 16 11.3431 16 13Z"></path></g></g></g><g id="g-root-cp_8_g-8_mdl9dpalvitf-stroke" data-item-order="-237265" transform="translate(497, 251)"><g id="cp_8_g-8_mdl9dpalvitf-stroke" fill="none" stroke-linecap="round" stroke-linejoin="round" stroke-miterlimit="4" stroke="#fff0fc" stroke-width="2"><g><path d="M 16 13C 16 14.6569 14.6569 16 13 16C 11.3431 16 10 14.6569 10 13C 10 11.3431 11.3431 10 13 10C 14.6569 10 16 11.3431 16 13Z"></path></g></g></g><g id="g-root-cp_9_g-9_dikq7xalvggd-stroke" data-item-order="-237261" transform="translate(557, 251)"><g id="cp_9_g-9_dikq7xalvggd-stroke" fill="none" stroke-linecap="round" stroke-linejoin="round" stroke-miterlimit="4" stroke="#fff0fc" stroke-width="2"><g><path d="M 16 13C 16 14.6569 14.6569 16 13 16C 11.3431 16 10 14.6569 10 13C 10 11.3431 11.3431 10 13 10C 14.6569 10 16 11.3431 16 13Z"></path></g></g></g><g id="g-root-ic_shar_18hkhq5alhez3-stroke" data-item-order="-1296" transform="translate(482, 266)"></g><g id="g-root-ic_conn_qu18l9am14wd-stroke" data-item-order="-1296" transform="translate(362, 266)"></g><g id="g-root-ic_shie_1q7lgvxalzo5f-stroke" data-item-order="-1296" transform="translate(242, 266)"></g><g id="g-root-ic_page_v989mlalwvep-stroke" data-item-order="-1296" transform="translate(122, 266)"></g><g id="g-root-ic_reco_146481palvimg-stroke" data-item-order="-1296" transform="translate(62, 206)"></g><g id="g-root-ic_poin_142ddj1alyc5e-stroke" data-item-order="-1296" transform="translate(182, 206)"></g><g id="g-root-ic_chec_9m471alzqis-stroke" data-item-order="-1296" transform="translate(302, 206)"></g><g id="g-root-ic_1_v7zem5alg26e-stroke" data-item-order="-1296" transform="translate(422, 206)"></g><g id="g-root-ic_cont_hrj3jxaliv48-stroke" data-item-order="-1296" transform="translate(542, 206)"></g><g id="g-root-tx_ongoingt_zn6fnhalk9hm-stroke" data-item-order="0" transform="translate(518, 128)"></g><g id="g-root-tx_phase3ta_3zxktalk8w0-stroke" data-item-order="0" transform="translate(386, 140)"></g><g id="g-root-tx_phase2ta_magz3xalk8we-stroke" data-item-order="0" transform="translate(272, 140)"></g><g id="g-root-tx_startsmi_24ibhalk9vo-stroke" data-item-order="0" transform="translate(164, 152)"></g><g id="g-root-tx_initialp_qof1z1alk9vm-stroke" data-item-order="0" transform="translate(32, 152)"></g><g id="g-root-tx_fullprod_8z0gqlalkahb-stroke" data-item-order="0" transform="translate(392, 98)"></g><g id="g-root-tx_performa_1cwrirhalk8wd-stroke" data-item-order="0" transform="translate(266, 98)"></g><g id="g-root-tx_initialt_ddl0otalk8ar-stroke" data-item-order="0" transform="translate(158, 110)"></g><g id="g-root-tx_pilotset_13zvkcdalk8ap-stroke" data-item-order="0" transform="translate(50, 110)"></g><g id="g-root-tx_performa_1cymy0talk7wp-stroke" data-item-order="0" transform="translate(506, 86)"></g><g id="g-root-tx_concurre_qva9x9aliu4q-stroke" data-item-order="0" transform="translate(86, 398)"></g><g id="g-root-tx_noncriti_1hhktktaliu4p-stroke" data-item-order="0" transform="translate(92, 332)"></g><g id="g-root-tx_expandco_8zq9paliu4r-stroke" data-item-order="0" transform="translate(218, 332)"></g><g id="g-root-tx_sensitiv_147zqgtaliupx-stroke" data-item-order="0" transform="translate(332, 332)"></g><g id="g-root-tx_quarterl_vk59alk7pj-stroke" data-item-order="0" transform="translate(452, 332)"></g><g id="g-root-tx_phase2ta_1lyn9vhalivik-stroke" data-item-order="0" transform="translate(212, 374)"></g><g id="g-root-tx_phase3ta_qn63stalk7pi-stroke" data-item-order="0" transform="translate(338, 374)"></g><g id="g-root-tx_ongoingt_1lqj3r1alk93c-stroke" data-item-order="0" transform="translate(452, 374)"></g><g id="g-root-tx_implemen_1userp9alvimf-stroke" data-item-order="0" transform="translate(185, 38)"></g></g></g><path id="w1uo1z25b5m8zo" d="M65.283 12.757a.35.35 0 0 0 .584.157l5.203-5.141-6.183 3.523.396 1.461zm-2.216-11.7a.35.35 0 0 0-.522.305v3.111l3.276-1.868-2.754-1.548zm3.728 2.105l-4.25 2.421v2.445l6.391-3.644-2.141-1.222zm4.708 3.303a.35.35 0 0 0 0-.609l-1.592-.9-7.365 4.199v1.782a.35.35 0 0 0 .523.305l8.435-4.777z M44.542 2.513c0-.433.355-.783.792-.783s.792.35.792.783-.355.783-.792.783-.792-.35-.792-.783zm59.171 0c0-.433.355-.783.792-.783s.792.35.792.783-.355.783-.792.783-.792-.35-.792-.783zm-85.951 7.636h-1.27v-.487c-.276.201-.864.609-1.881.609-1.202 0-2.274-.794-2.137-2.078.118-1.106 1.153-1.584 1.848-1.727l2.17-.345c0-.539-.29-.956-1.064-1.006s-1.21.305-1.571 1.017l-1.124-.605c1.218-2.631 5.029-1.764 5.029.414v4.207zm-1.27-2.86c.006.396-.062 1.112-.819 1.59-.587.37-1.841.299-1.903-.395-.049-.555.461-.791.906-.898l1.816-.297zm72.662 2.86h-1.27v-.487c-.276.201-.864.609-1.881.609-1.202 0-2.274-.794-2.137-2.078.118-1.106 1.153-1.584 1.848-1.727l2.17-.345c0-.539-.29-.956-1.064-1.006s-1.21.305-1.571 1.017l-1.124-.605c1.218-2.631 5.029-1.764 5.029.414v4.207zm-1.27-2.86c.006.396-.062 1.112-.82 1.59-.587.37-1.841.299-1.903-.395-.049-.555.461-.791.906-.898l1.816-.297zM99.096 10.149H97.85v-8.45h1.246v4.895l2.68-2.559h1.738l-2.633 2.535 2.715 3.578h-1.556l-2.077-2.707-.867.844v1.863zm6.053-6.114h-1.255v6.113h1.255V4.035zm-59.2 0h-1.255v6.113h1.255V4.035zm5.584 6.113V1.697h1.255v2.695c.361-.346 1-.485 1.47-.485 1.452 0 2.477 1.082 2.457 2.448v3.792h-1.27v-3.68c0-.408-.214-1.339-1.315-1.339-.968 0-1.342.756-1.342 1.339v3.681h-1.255zm-4.76-4.894V4.039h.621a.45.45 0 0 0 .45-.45v-.855h1.251v1.305h1.309v1.215h-1.309v3.109c0 .293.105.664.648.664.365 0 .531-.035.736-.07v1.137s-.361.113-.857.113c-1.398 0-1.777-1.051-1.777-1.788V5.254h-1.071zM36.528 4.039h-1.394l2.191 6.106h1.125l1.234-3.918 1.238 3.918h1.129l2.188-6.106h-1.383l-1.359 3.93-1.256-3.93h-1.124l-1.242 3.957-1.348-3.957zM26.212 7.141c-.02 1.566 1.187 3.129 3.223 3.129 1.566 0 2.383-.918 2.734-1.719L31.172 8c-.315.399-.801 1.094-1.738 1.094-1.145 0-1.825-.781-1.891-1.52h4.625c.074-.284.148-.995-.03-1.559-.336-1.064-1.221-2.102-2.839-2.102s-3.088 1.152-3.088 3.227zm1.363-.75h3.348c-.055-.43-.566-1.301-1.623-1.301a1.79 1.79 0 0 0-1.725 1.301zm-8.758.75c.038 1.758 1.277 3.133 3.145 3.133 1.074 0 1.723-.477 1.961-.672v.547h1.242V1.703h-1.258v2.888c-.414-.36-1.062-.68-1.93-.68-1.91 0-3.198 1.473-3.16 3.23zm1.309-.08c0 1.119.723 1.978 1.836 1.978a1.88 1.88 0 0 0 1.94-1.904c0-1.371-1.011-1.99-1.972-1.99s-1.805.798-1.805 1.916zm76.683-.028C96.771 5.275 95.532 3.9 93.664 3.9c-1.074 0-1.723.477-1.961.672v-.547h-1.242v8.22h1.258V9.583c.414.36 1.063.68 1.93.68 1.91 0 3.198-1.473 3.16-3.23zm-1.309.08c0-1.119-.723-1.978-1.836-1.978a1.88 1.88 0 0 0-1.94 1.904c0 1.371 1.011 1.99 1.972 1.99S95.5 8.231 95.5 7.113zM106.441 10.173V4.036h1.254v.382c.361-.346 1-.485 1.47-.485 1.452 0 2.477 1.082 2.457 2.448v3.792h-1.27V6.492c0-.408-.214-1.339-1.315-1.339-.969 0-1.342.756-1.342 1.339v3.681h-1.254zm-30.383-.021V1.824h1.084l4.215 5.777V1.824h1.32v8.328h-1.094l-4.207-5.796v5.796h-1.319zM5.24 10.149H4V2.377h1.014l2.664 3.597 2.654-3.592h1.03v7.766h-1.256V4.762L7.678 8.068 5.24 4.742v5.407z" transform="translate(539, 455)" fill="#ababab88" stroke="none"></path></svg>