<?xml version="1.0" encoding="utf-8" standalone="yes"?>
<!DOCTYPE svg PUBLIC "-//W3C//DTD SVG 1.1//EN" "http://www.w3.org/Graphics/SVG/1.1/DTD/svg11.dtd">
<svg width="698" height="425" viewBox="0 0 698 425" style="fill:none;stroke:none;fill-rule:evenodd;clip-rule:evenodd;stroke-linecap:round;stroke-linejoin:round;stroke-miterlimit:1.5;" version="1.1" xmlns="http://www.w3.org/2000/svg" xmlns:xlink="http://www.w3.org/1999/xlink"><style class="text-font-style fontImports" data-font-family="Arial"></style><g id="items" style="isolation: isolate"><g id="blend" style="mix-blend-mode: normal"><g id="g-root-sy_1_gauge-filled-1_142dwgtctxukj-fill" data-item-order="-59952" transform="translate(369.9499816894531, 122)"><g id="sy_1_gauge-filled-1_142dwgtctxukj-fill" stroke="none" fill="#bfd7ff"><g><path d="M 10.000031 10C 72.623809 9.998714 124.719226 58.154264 129.632587 120.584992C 134.545948 183.015719 90.625022 238.727852 28.772038 248.523012L 16.195031 169.112C 36.604806 165.877847 51.096606 147.493628 49.475233 126.892898C 47.853859 106.292169 30.664459 90.401408 10.000024 90.399995L 10.000031 10Z"></path></g></g></g><g id="g-root-sy_2_gauge-filled-2_v6qw7xctxvd8-fill" data-item-order="-59948" transform="translate(249.94967651367188, 238.23101806640625)"><g id="sy_2_gauge-filled-2_v6qw7xctxvd8-fill" stroke="none" fill="#68a1ff"><g><path d="M 148.772336 132.291982C 113.448389 137.886786 77.469855 127.434067 50.64268 103.782723C 23.815505 80.131379 8.935914 45.746615 10.059336 9.999988L 90.420336 12.524982C 90.049729 24.321239 94.960003 35.66805 103.812885 43.472899C 112.665768 51.277747 124.538534 54.727143 136.195328 52.880973L 148.772336 132.291982Z"></path></g></g></g><g id="g-root-sy_3_gauge-filled-3_qqxe3hctxw5h-fill" data-item-order="-59944" transform="translate(250.00900268554688, 131.572021484375)"><g id="sy_3_gauge-filled-3_qqxe3hctxw5h-fill" stroke="none" fill="#4e8aeb"><g><path d="M 10.00001 116.658979C 11.468509 69.924906 39.948593 28.299478 82.976013 9.999979L 114.44301 83.986979C 100.244139 90.025761 90.845777 103.761919 90.361005 119.183972L 10.00001 116.658979Z"></path></g></g></g><g id="g-root-sy_4_gauge-filled-4_hvwuxpctxtse-fill" data-item-order="-59940" transform="translate(322.9850158691406, 122)"><g id="sy_4_gauge-filled-4_hvwuxpctxtse-fill" stroke="none" fill="#5d83c0"><g><path d="M 9.999996 19.572C 24.852018 13.255519 40.825598 9.999922 56.965003 10L 56.964996 90.4C 51.639122 90.400106 46.367999 91.474534 41.46699 93.558995L 9.999996 19.572Z"></path></g></g></g><g id="g-root-tx_operatio_1d2e8bhctxwcm-fill" data-item-order="0" transform="translate(123.94998168945312, 38)"><g id="tx_operatio_1d2e8bhctxwcm-fill" stroke="none" fill="#f4f4f4"><g><text style="font: bold 25px Arial, Helvetica, sans-serif; white-space: pre;" font-weight="bold" font-size="25px" font-family="Arial, Helvetica, sans-serif"><tspan x="13.58" y="42" dominant-baseline="ideographic">Operational Cost Breakdown per Sample</tspan></text></g></g></g><g id="g-root-tx_640maint_1umt40tctcsnd-fill" data-item-order="0" transform="translate(104.74996948242188, 94.52001953125)"><g id="tx_640maint_1umt40tctcsnd-fill" stroke="none" fill="#f4f4f4"><g><text style="font: 20px Arial, Helvetica, sans-serif; white-space: pre;" font-size="20px" font-family="Arial, Helvetica, sans-serif"><tspan x="14.53" y="33" dominant-baseline="ideographic">6.40% Maintenance Costs</tspan></text></g></g></g><g id="g-root-tx_1810infr_8x5kf1ctcr9k-fill" data-item-order="0" transform="translate(14, 146.80999755859375)"><g id="tx_1810infr_8x5kf1ctcr9k-fill" stroke="none" fill="#f4f4f4"><g><text style="font: 20px Arial, Helvetica, sans-serif; white-space: pre;" font-size="20px" font-family="Arial, Helvetica, sans-serif"><tspan x="12.11" y="33" dominant-baseline="ideographic">18.10% Infrastructure Costs</tspan></text></g></g></g><g id="g-root-tx_4750apic_4pg599ctxvk2-fill" data-item-order="0" transform="translate(495.5719909667969, 220.1719970703125)"><g id="tx_4750apic_4pg599ctxvk2-fill" stroke="none" fill="#f4f4f4"><g><text style="font: 20px Arial, Helvetica, sans-serif; white-space: pre;" font-size="20px" font-family="Arial, Helvetica, sans-serif"><tspan x="12" y="33" dominant-baseline="ideographic">47.50% API Costs</tspan></text></g></g></g><g id="g-root-tx_28person_m7zlp9ctcsuf-fill" data-item-order="0" transform="translate(82.66400146484375, 336.5)"><g id="tx_28person_m7zlp9ctcsuf-fill" stroke="none" fill="#f4f4f4"><g><text style="font: 20px Arial, Helvetica, sans-serif; white-space: pre;" font-size="20px" font-family="Arial, Helvetica, sans-serif"><tspan x="19.67" y="33" dominant-baseline="ideographic">28% Personnel Costs</tspan></text></g></g></g><g id="g-root-sy_1_gauge-filled-1_142dwgtctxukj-stroke" data-item-order="-59952" transform="translate(369.9499816894531, 122)"><g id="sy_1_gauge-filled-1_142dwgtctxukj-stroke" fill="none" stroke-linecap="butt" stroke-linejoin="miter" stroke-miterlimit="4" stroke="#bfd7ff" stroke-width="1"><g><path d="M 10.000031 10C 72.623809 9.998714 124.719226 58.154264 129.632587 120.584992C 134.545948 183.015719 90.625022 238.727852 28.772038 248.523012L 16.195031 169.112C 36.604806 165.877847 51.096606 147.493628 49.475233 126.892898C 47.853859 106.292169 30.664459 90.401408 10.000024 90.399995L 10.000031 10Z"></path></g></g></g><g id="g-root-sy_2_gauge-filled-2_v6qw7xctxvd8-stroke" data-item-order="-59948" transform="translate(249.94967651367188, 238.23101806640625)"><g id="sy_2_gauge-filled-2_v6qw7xctxvd8-stroke" fill="none" stroke-linecap="butt" stroke-linejoin="miter" stroke-miterlimit="4" stroke="#68a1ff" stroke-width="1"><g><path d="M 148.772336 132.291982C 113.448389 137.886786 77.469855 127.434067 50.64268 103.782723C 23.815505 80.131379 8.935914 45.746615 10.059336 9.999988L 90.420336 12.524982C 90.049729 24.321239 94.960003 35.66805 103.812885 43.472899C 112.665768 51.277747 124.538534 54.727143 136.195328 52.880973L 148.772336 132.291982Z"></path></g></g></g><g id="g-root-sy_3_gauge-filled-3_qqxe3hctxw5h-stroke" data-item-order="-59944" transform="translate(250.00900268554688, 131.572021484375)"><g id="sy_3_gauge-filled-3_qqxe3hctxw5h-stroke" fill="none" stroke-linecap="butt" stroke-linejoin="miter" stroke-miterlimit="4" stroke="#4e8aeb" stroke-width="1"><g><path d="M 10.00001 116.658979C 11.468509 69.924906 39.948593 28.299478 82.976013 9.999979L 114.44301 83.986979C 100.244139 90.025761 90.845777 103.761919 90.361005 119.183972L 10.00001 116.658979Z"></path></g></g></g><g id="g-root-sy_4_gauge-filled-4_hvwuxpctxtse-stroke" data-item-order="-59940" transform="translate(322.9850158691406, 122)"><g id="sy_4_gauge-filled-4_hvwuxpctxtse-stroke" fill="none" stroke-linecap="butt" stroke-linejoin="miter" stroke-miterlimit="4" stroke="#5d83c0" stroke-width="1"><g><path d="M 9.999996 19.572C 24.852018 13.255519 40.825598 9.999922 56.965003 10L 56.964996 90.4C 51.639122 90.400106 46.367999 91.474534 41.46699 93.558995L 9.999996 19.572Z"></path></g></g></g><g id="g-root-tx_operatio_1d2e8bhctxwcm-stroke" data-item-order="0" transform="translate(123.94998168945312, 38)"></g><g id="g-root-tx_640maint_1umt40tctcsnd-stroke" data-item-order="0" transform="translate(104.74996948242188, 94.52001953125)"></g><g id="g-root-tx_1810infr_8x5kf1ctcr9k-stroke" data-item-order="0" transform="translate(14, 146.80999755859375)"></g><g id="g-root-tx_4750apic_4pg599ctxvk2-stroke" data-item-order="0" transform="translate(495.5719909667969, 220.1719970703125)"></g><g id="g-root-tx_28person_m7zlp9ctcsuf-stroke" data-item-order="0" transform="translate(82.66400146484375, 336.5)"></g></g></g><path id="w1ha2oq597t9fx" d="M65.283 12.757a.35.35 0 0 0 .584.157l5.203-5.141-6.183 3.523.396 1.461zm-2.216-11.7a.35.35 0 0 0-.522.305v3.111l3.276-1.868-2.754-1.548zm3.728 2.105l-4.25 2.421v2.445l6.391-3.644-2.141-1.222zm4.708 3.303a.35.35 0 0 0 0-.609l-1.592-.9-7.365 4.199v1.782a.35.35 0 0 0 .523.305l8.435-4.777z M44.542 2.513c0-.433.355-.783.792-.783s.792.35.792.783-.355.783-.792.783-.792-.35-.792-.783zm59.171 0c0-.433.355-.783.792-.783s.792.35.792.783-.355.783-.792.783-.792-.35-.792-.783zm-85.951 7.636h-1.27v-.487c-.276.201-.864.609-1.881.609-1.202 0-2.274-.794-2.137-2.078.118-1.106 1.153-1.584 1.848-1.727l2.17-.345c0-.539-.29-.956-1.064-1.006s-1.21.305-1.571 1.017l-1.124-.605c1.218-2.631 5.029-1.764 5.029.414v4.207zm-1.27-2.86c.006.396-.062 1.112-.819 1.59-.587.37-1.841.299-1.903-.395-.049-.555.461-.791.906-.898l1.816-.297zm72.662 2.86h-1.27v-.487c-.276.201-.864.609-1.881.609-1.202 0-2.274-.794-2.137-2.078.118-1.106 1.153-1.584 1.848-1.727l2.17-.345c0-.539-.29-.956-1.064-1.006s-1.21.305-1.571 1.017l-1.124-.605c1.218-2.631 5.029-1.764 5.029.414v4.207zm-1.27-2.86c.006.396-.062 1.112-.82 1.59-.587.37-1.841.299-1.903-.395-.049-.555.461-.791.906-.898l1.816-.297zM99.096 10.149H97.85v-8.45h1.246v4.895l2.68-2.559h1.738l-2.633 2.535 2.715 3.578h-1.556l-2.077-2.707-.867.844v1.863zm6.053-6.114h-1.255v6.113h1.255V4.035zm-59.2 0h-1.255v6.113h1.255V4.035zm5.584 6.113V1.697h1.255v2.695c.361-.346 1-.485 1.47-.485 1.452 0 2.477 1.082 2.457 2.448v3.792h-1.27v-3.68c0-.408-.214-1.339-1.315-1.339-.968 0-1.342.756-1.342 1.339v3.681h-1.255zm-4.76-4.894V4.039h.621a.45.45 0 0 0 .45-.45v-.855h1.251v1.305h1.309v1.215h-1.309v3.109c0 .293.105.664.648.664.365 0 .531-.035.736-.07v1.137s-.361.113-.857.113c-1.398 0-1.777-1.051-1.777-1.788V5.254h-1.071zM36.528 4.039h-1.394l2.191 6.106h1.125l1.234-3.918 1.238 3.918h1.129l2.188-6.106h-1.383l-1.359 3.93-1.256-3.93h-1.124l-1.242 3.957-1.348-3.957zM26.212 7.141c-.02 1.566 1.187 3.129 3.223 3.129 1.566 0 2.383-.918 2.734-1.719L31.172 8c-.315.399-.801 1.094-1.738 1.094-1.145 0-1.825-.781-1.891-1.52h4.625c.074-.284.148-.995-.03-1.559-.336-1.064-1.221-2.102-2.839-2.102s-3.088 1.152-3.088 3.227zm1.363-.75h3.348c-.055-.43-.566-1.301-1.623-1.301a1.79 1.79 0 0 0-1.725 1.301zm-8.758.75c.038 1.758 1.277 3.133 3.145 3.133 1.074 0 1.723-.477 1.961-.672v.547h1.242V1.703h-1.258v2.888c-.414-.36-1.062-.68-1.93-.68-1.91 0-3.198 1.473-3.16 3.23zm1.309-.08c0 1.119.723 1.978 1.836 1.978a1.88 1.88 0 0 0 1.94-1.904c0-1.371-1.011-1.99-1.972-1.99s-1.805.798-1.805 1.916zm76.683-.028C96.771 5.275 95.532 3.9 93.664 3.9c-1.074 0-1.723.477-1.961.672v-.547h-1.242v8.22h1.258V9.583c.414.36 1.063.68 1.93.68 1.91 0 3.198-1.473 3.16-3.23zm-1.309.08c0-1.119-.723-1.978-1.836-1.978a1.88 1.88 0 0 0-1.94 1.904c0 1.371 1.011 1.99 1.972 1.99S95.5 8.231 95.5 7.113zM106.441 10.173V4.036h1.254v.382c.361-.346 1-.485 1.47-.485 1.452 0 2.477 1.082 2.457 2.448v3.792h-1.27V6.492c0-.408-.214-1.339-1.315-1.339-.969 0-1.342.756-1.342 1.339v3.681h-1.254zm-30.383-.021V1.824h1.084l4.215 5.777V1.824h1.32v8.328h-1.094l-4.207-5.796v5.796h-1.319zM5.24 10.149H4V2.377h1.014l2.664 3.597 2.654-3.592h1.03v7.766h-1.256V4.762L7.678 8.068 5.24 4.742v5.407z" transform="translate(561.949951171875, 390.1177978515625)" fill="#ababab88" stroke="none"></path></svg>