<?xml version="1.0" encoding="utf-8" standalone="yes"?>
<!DOCTYPE svg PUBLIC "-//W3C//DTD SVG 1.1//EN" "http://www.w3.org/Graphics/SVG/1.1/DTD/svg11.dtd">
<svg width="744" height="648" viewBox="0 0 744 648" style="fill:none;stroke:none;fill-rule:evenodd;clip-rule:evenodd;stroke-linecap:round;stroke-linejoin:round;stroke-miterlimit:1.5;" version="1.1" xmlns="http://www.w3.org/2000/svg" xmlns:xlink="http://www.w3.org/1999/xlink"><g id="items" style="isolation: isolate"><g id="blend" style="mix-blend-mode: normal"><g id="g-root-sy_6_arrow-6_1lqjcn01xfk7pg-fill" data-item-order="-194005" transform="translate(146.26400756835938, 129.72100830078125)"><g id="sy_6_arrow-6_1lqjcn01xfk7pg-fill" stroke="none" fill="#3e3d3a"><g><path d="M 222.546992 75.673999L 142.904992 9.999999L 149.088992 33.154999C 115.568992 42.072999 83.877992 59.668999 57.571992 85.943999C 35.740992 107.748999 19.882992 133.269999 9.999992 160.472999L 78.240992 134.963999L 105.214992 181.761999C 110.274992 171.698999 117.007992 162.261999 125.413992 153.866999C 139.340992 139.955999 156.117992 130.640999 173.863992 125.918999L 180.060992 149.123999L 222.546992 75.673999Z"></path></g></g></g><g id="g-root-sy_5_arrow-5_1cuwce41xfk8i5-fill" data-item-order="-194001" transform="translate(117.81201171875, 254.68499755859375)"><g id="sy_5_arrow-5_1cuwce41xfk8i5-fill" stroke="none" fill="#3e3d3a"><g><path d="M 85.903004 164.627002L 139.927004 164.659002C 122.711004 138.532002 118.027004 106.578002 125.871004 77.282002L 149.066004 83.515002L 106.693004 10.000002L 10.000004 46.144002L 33.144004 52.364002C 16.363004 115.044002 29.941004 184.165002 73.891004 236.435002L 85.903004 164.627002Z"></path></g></g></g><g id="g-root-sy_4_arrow-4_1cuwce41xfk8i6-fill" data-item-order="-193997" transform="translate(176.68402099609375, 409.31201171875)"><g id="sy_4_arrow-4_1cuwce41xfk8i6-fill" stroke="none" fill="#3e3d3a"><g><path d="M 26.979994 94.852988C 75.845994 143.776988 143.374994 162.702988 206.679994 151.616988L 150.503994 105.293988L 177.565994 58.508988C 147.860994 60.219988 117.583994 49.718988 94.902994 27.010988L 111.882994 10.049988L 27.029994 9.999988L 9.999994 111.812988L 26.979994 94.852988Z"></path></g></g></g><g id="g-root-sy_3_arrow-3_18f2u9o1xfk9af-fill" data-item-order="-193993" transform="translate(317.18798828125, 398.51800537109375)"><g id="sy_3_arrow-3_18f2u9o1xfk9af-fill" stroke="none" fill="#3e3d3a"><g><path d="M 127.333012 9.999995C 122.272012 20.062995 115.539012 29.498995 107.134012 37.894995C 93.207012 51.805995 76.429012 61.120995 58.683012 65.842995L 52.486012 42.637995L 10.000012 116.087995L 89.642012 181.760995L 83.458012 158.606995C 116.978012 149.687995 148.669012 132.092995 174.976012 105.817995C 196.806012 84.012995 212.664012 58.491995 222.548012 31.288995L 154.306012 56.797995L 127.333012 9.999995Z"></path></g></g></g><g id="g-root-sy_2_arrow-2_13zvt8c1xfk6ww-fill" data-item-order="-193989" transform="translate(419.12200927734375, 218.8809814453125)"><g id="sy_2_arrow-2_13zvt8c1xfk6ww-fill" stroke="none" fill="#3e3d3a"><g><path d="M 73.162991 81.808003L 19.138991 81.776003C 36.354991 107.902003 41.038991 139.856003 33.194991 169.152003L 9.999991 162.919003L 52.372991 236.435003L 149.065991 200.290003L 125.920991 194.071003C 142.702991 131.390003 129.124991 62.269003 85.174991 10.000003L 73.162991 81.808003Z"></path></g></g></g><g id="g-root-sy_1_arrow-1_13zvt8c1xfk6wx-fill" data-item-order="-193985" transform="translate(302.635009765625, 146.00067138671875)"><g id="sy_1_arrow-1_13zvt8c1xfk6wx-fill" stroke="none" fill="#3e3d3a"><g><path d="M 66.17599 59.394344L 39.11399 106.179344C 68.81999 104.468344 99.09599 114.969344 121.77799 137.677344L 104.79699 154.638344L 189.64999 154.688344L 206.68099 52.874344L 189.69999 69.835344C 140.83399 20.911344 73.30499 1.985344 9.99999 13.071344L 66.17599 59.394344Z"></path></g></g></g><g id="g-root-ic_star_v48szg1xfk7pm-fill" data-item-order="-2304" transform="translate(242, 188)"><g id="ic_star_v48szg1xfk7pm-fill" stroke="none" fill="#fff0fc"><g><path d="M 42 28.799999C 42.170677 28.710026 42.277512 28.532942 42.277512 28.339998C 42.277512 28.147055 42.170677 27.969973 42 27.879999L 38.940002 26.799999L 38 26.459999C 37.700165 25.708241 37.657967 24.878298 37.880001 24.100002C 39.666882 22.18047 40.553925 19.592054 40.32 16.98C 40.46384 15.202629 39.866604 13.444853 38.669746 12.123009C 37.472893 10.801165 35.782879 10.032834 34 10C 33.071587 10.004064 32.155865 10.21591 31.319998 10.62C 31.190605 10.687054 31.095287 10.805329 31.057262 10.946017C 31.019239 11.086706 31.042 11.236894 31.119999 11.36C 32.229187 13.023284 32.814365 14.98085 32.800003 16.98C 32.935585 19.526817 32.286362 22.053902 30.939999 24.219999C 30.86887 24.350964 30.86887 24.509033 30.940001 24.639999C 30.975914 24.792461 31.09017 24.914333 31.24 24.959999C 35.059998 26.4 37.82 27.620001 39.040001 30.040001L 39.16 30.280001C 39.252102 30.422586 39.410255 30.508707 39.580002 30.508707C 39.749748 30.508707 39.907898 30.422586 40 30.280001C 40.563782 29.660969 41.243202 29.158195 42 28.799999ZM 34.52 36L 36.900002 36C 37.099442 36.000694 37.280224 35.882793 37.360001 35.700001L 37.739998 34.799999C 37.760666 34.707809 37.760666 34.61219 37.739998 34.519997C 37.563801 33.356674 37.220245 32.224953 36.720001 31.16C 35.82 29.34 32.919998 28.280001 28.9 26.799999L 28 26.459999C 27.700163 25.708241 27.657963 24.878298 27.880001 24.100002C 29.666883 22.18047 30.553923 19.592054 30.32 16.98C 30.46384 15.202629 29.866604 13.444853 28.669746 12.123009C 27.472891 10.801165 25.782879 10.032834 24 10C 22.220631 10.038273 20.535881 10.808961 19.343391 12.130166C 18.150898 13.45137 17.556324 15.206028 17.700001 16.98C 17.47164 19.554062 18.343582 22.104496 20.1 24C 20.328602 24.796331 20.293522 25.645241 20 26.419998L 18.98 26.799999C 14.98 28.280001 12.059999 29.34 11.16 31.16C 10.390079 33.01054 9.995768 34.995689 10 37C 10 37.552284 10.447715 38 11 38L 29.6 38C 29.73247 37.995834 29.85952 37.946426 29.959999 37.860001C 31.177198 36.665894 32.814873 35.997894 34.52 36ZM 51.48 57.66C 52.439034 58.194485 53.631271 58.063484 54.451366 57.333508C 55.271461 56.603535 55.539745 55.434509 55.119999 54.419998L 52.66 48.799999C 52.58007 48.596458 52.636021 48.364662 52.799995 48.219997L 57.220001 44.220001C 57.955341 43.503544 58.191528 42.41708 57.82 41.459999C 57.411827 40.540718 56.48513 39.962521 55.48 40L 50.48 40C 50.280556 40.000694 50.099777 39.882793 50.02 39.700001L 47.34 33.459999C 46.903919 32.583317 46.009151 32.029045 45.029999 32.029045C 44.050846 32.029045 43.156078 32.583317 42.720001 33.459999L 40 39.700001C 39.920223 39.882793 39.739441 40.000694 39.540001 40L 34.540001 40C 33.521908 39.978195 32.593956 40.580967 32.200001 41.52C 31.826065 42.49678 32.078842 43.602673 32.84 44.32L 37.239998 48.220001C 37.39695 48.369434 37.444767 48.600548 37.360001 48.799999L 34.919998 54.419998C 34.462288 55.417374 34.714478 56.596973 35.540001 57.32C 36.016739 57.752769 36.636147 57.994835 37.279999 57.999996C 37.727829 57.99144 38.166954 57.874794 38.560001 57.66L 44.779999 54.16C 44.924236 54.059563 45.115761 54.059563 45.259998 54.16Z"></path></g></g></g><g id="g-root-ic_voti_13z9c581xfn1mx-fill" data-item-order="-2304" transform="translate(386, 188)"><g id="ic_voti_13z9c581xfn1mx-fill" stroke="none" fill="#fff0fc"><g><path d="M 32 25C 32 23.895432 32.895432 23 34 23L 56 23C 57.104568 23 58 23.895432 58 25L 58 31.007999C 58 32.112572 57.104568 33.007999 56 33.007999L 34 33.007999C 32.895432 33.007999 32 32.112572 32 31.007999L 32 25ZM 18 12C 18 10.895431 18.895432 10 20 10L 26 10C 27.10457 10 28 10.895431 28 12L 28 18C 28 19.104568 27.10457 20 26 20L 20 20C 18.895432 20 18 19.104568 18 18L 18 12ZM 32 12C 32 10.895431 32.895432 10 34 10L 56 10C 57.104568 10 58 10.895431 58 12L 58 18.007999C 58 19.11257 57.104568 20.007999 56 20.007999L 34 20.007999C 32.895432 20.007999 32 19.11257 32 18.007999L 32 12ZM 20 23C 18.895432 23 18 23.895432 18 25L 18 28.664C 19.21711 27.590117 20.784863 26.998297 22.407999 27C 24.132 27 25.802 27.666 27.046 28.878C 27.41 29.233999 27.73 29.628 28 30.054001L 28 25C 28 23.895432 27.10457 23 26 23L 20 23ZM 22.408001 30C 21.454 30 20.538 30.370001 19.864 31.025999C 19.191967 31.67627 18.811764 32.570869 18.810001 33.506001L 18.810001 48.698002C 18.805592 48.925514 18.67651 49.132202 18.473999 49.235996C 18.277489 49.365757 18.022512 49.365757 17.826 49.236C 16.765999 48.380001 15.924 47.321999 14.894 46.501999C 13.799793 45.644524 12.266296 45.628124 11.154 46.461998C 10.799669 46.731075 10.511078 47.07711 10.31 47.473999C 9.686757 48.698753 10.022686 50.193638 11.11 51.034L 16.698 57.580002C 16.923424 57.849957 17.258326 58.004189 17.610001 58L 36.799999 58C 37.116394 58.000664 37.420593 57.877979 37.648003 57.658001C 37.872025 57.441475 37.998981 57.143562 38 56.832001L 38 51.806C 38 49.742001 37.16 47.762001 35.66 46.301998C 34.145889 44.835785 32.119675 44.017838 30.011999 44.021999L 27.205999 44.021999C 26.889885 44.023201 26.585728 43.901249 26.358 43.681999C 26.133476 43.464989 26.006479 43.166256 26.006001 42.854L 26.006001 33.506001C 26.006001 32.576 25.625999 31.686001 24.952 31.025999C 24.269772 30.366056 23.357185 29.998009 22.408001 30Z"></path></g></g></g><g id="g-root-ic_robo_1cwrrng1xfk7ij-fill" data-item-order="-2304" transform="translate(158, 326)"><g id="ic_robo_1cwrrng1xfk7ij-fill" stroke="none" fill="#fff0fc"><g><path d="M 46.939999 16.222L 46.939999 12.374001C 46.939999 11.26943 47.83543 10.374 48.939999 10.374C 50.044571 10.374 50.939999 11.26943 50.939999 12.374001L 50.939999 16.222L 53.874001 16.222C 56.083138 16.222 57.874001 18.012861 57.874001 20.222L 57.874001 26.125999C 57.874001 28.335138 56.083138 30.125999 53.874001 30.125999L 44.001999 30.125999C 41.792862 30.125999 40.001999 28.335138 40.001999 26.125999L 40.001999 20.222C 40.001999 18.012861 41.792862 16.222 44.001999 16.222L 46.939999 16.222ZM 45.604 25.862C 44.775574 25.862 44.104 25.190428 44.104 24.362L 44.104 21.996C 44.104 21.167572 44.775574 20.496 45.604 20.496C 46.432426 20.496 47.104 21.167572 47.104 21.996L 47.104 24.360001C 47.104 25.188427 46.432426 25.860001 45.604 25.860001ZM 50.776001 24.362C 50.776001 25.190428 51.447575 25.862 52.276001 25.862C 53.104427 25.862 53.776001 25.190428 53.776001 24.362L 53.776001 21.996C 53.776001 21.167572 53.104427 20.496 52.276001 20.496C 51.447575 20.496 50.776001 21.167572 50.776001 21.996L 50.776001 24.360001ZM 37 20.222C 37 18.782 37.433998 17.444 38.18 16.332001L 14.992001 16.334C 12.36 16.334 10.126 18.568001 10.126 21.202L 10.126 52.75C 10.126 55.383999 12.36 57.618 14.993999 57.618L 49.279999 57.618C 52.041424 57.618 54.280003 55.379425 54.279999 52.618L 54.279999 35.318001C 54.279999 34.213432 53.384571 33.318001 52.279999 33.318001C 51.17543 33.318001 50.279999 34.213432 50.279999 35.318001L 50.279999 52.618C 50.279999 53.170284 49.832283 53.618 49.279999 53.618L 14.993999 53.618C 14.57 53.618 14.125999 53.174 14.125999 52.75L 14.125999 26.886L 37.042 26.886C 37.015038 26.63357 37.001686 26.379868 37.001999 26.126001L 37.001999 20.220001ZM 18.896 33.599998C 18.513742 33.96846 18.293676 34.473793 18.284298 35.004635C 18.274918 35.535477 18.476997 36.048267 18.846001 36.43L 23.33 41.073997L 18.846001 45.716C 18.078209 46.510723 18.100096 47.777405 18.894882 48.545124C 19.689667 49.312847 20.956347 49.290855 21.724001 48.496002L 27.549999 42.464001C 28.299307 41.688805 28.299307 40.459194 27.549999 39.683998L 21.723999 33.652C 20.956879 32.857254 19.690735 32.834869 18.896 33.601997ZM 27.288 47.094002C 27.288 45.989429 28.18343 45.094002 29.288 45.094002L 35.748001 45.099998C 36.85257 45.101105 37.747105 45.997429 37.746002 47.102001C 37.744896 48.20657 36.848572 49.101105 35.743999 49.099998L 29.284 49.096001C 28.180212 49.093792 27.286894 48.197788 27.288 47.094002Z"></path></g></g></g><g id="g-root-ic_clou_qwjgzg1xflmhb-fill" data-item-order="-2304" transform="translate(470, 326)"><g id="ic_clou_qwjgzg1xflmhb-fill" stroke="none" fill="#fff0fc"><g><path d="M 52.139999 54.48L 51.040001 54.48L 51.040001 44.48L 52.139999 44.48C 52.96843 44.48 53.639999 43.80843 53.639999 42.98C 53.639999 42.151573 52.96843 41.480003 52.139999 41.480003L 46.919998 41.48C 46.091576 41.480003 45.420002 42.151573 45.420002 42.98C 45.420002 43.80843 46.091576 44.48 46.920002 44.48L 48 44.48L 48 54.48L 46.880001 54.48C 46.051575 54.48 45.380001 55.151573 45.380001 55.98C 45.380001 56.80843 46.051575 57.48 46.880001 57.48L 52.099998 57.48C 52.928429 57.48 53.600002 56.80843 53.600002 55.98C 53.600002 55.151573 52.928429 54.48 52.100002 54.48ZM 36.16 41.419998L 32.16 41.419998C 31.331573 41.419998 30.66 42.091576 30.66 42.920002L 30.66 56C 30.66 56.82843 31.331573 57.5 32.16 57.5C 32.988426 57.5 33.66 56.82843 33.66 56L 33.66 52.259998L 36.080002 52.259998C 39.072979 52.25943 41.498966 49.832981 41.498966 46.84C 41.498966 43.847019 39.072979 41.42057 36.080002 41.419998ZM 36.16 49.259998L 33.739998 49.259998L 33.739998 44.419998L 36.16 44.419998C 37.496529 44.420002 38.580002 45.503471 38.580002 46.84C 38.580002 48.176533 37.496529 49.260002 36.160004 49.260002ZM 25.4 46C 25.037273 43.393642 22.791239 41.464798 20.16 41.5C 17.536337 41.474937 15.301781 43.401279 14.94 45.999996L 13.46 55.84C 13.338526 56.387905 13.53306 56.957783 13.964203 57.317047C 14.395346 57.676308 14.990971 57.764847 15.507971 57.546524C 16.024971 57.328205 16.376854 56.839546 16.42 56.280003L 16.92 52.98L 23.42 52.98L 24 56.200001C 24.100681 56.93845 24.734753 57.486835 25.48 57.480003L 25.700001 57.48C 26.516237 57.35659 27.079346 56.59684 26.960001 55.780003ZM 17.4 50L 18 46.360001C 18.181488 45.247364 19.142662 44.430267 20.27 44.430267C 21.397339 44.430267 22.358513 45.247364 22.539999 46.359997L 22.959999 50ZM 57 28.52C 57.001762 25.804268 55.898918 23.204611 53.944958 21.318546C 51.990993 19.43248 49.353973 18.422234 46.639999 18.52C 43.910072 12.729048 37.599674 9.527731 31.314335 10.745161C 25.028994 11.962592 20.370277 17.288559 20 23.68C 17.794804 23.229866 15.504026 23.793852 13.759861 25.216316C 12.015696 26.638779 11.002542 28.769333 11 31.02C 11 38.639999 19 38.52 19 38.52L 48 38.52C 48 38.52 57 37.34 57 28.52Z"></path></g></g></g><g id="g-root-ic_code_qqaq4c1xflkwd-fill" data-item-order="-2304" transform="translate(242, 464)"><g id="ic_code_qqaq4c1xflkwd-fill" stroke="none" fill="#fff0fc"><g><path d="M 29.91 13.186C 29.879999 13.216 29.799999 13.316 29.799999 13.576L 29.799999 21.588001C 29.11828 20.5401 28.031534 19.822847 26.799999 19.608L 26.799999 13.573999C 26.799999 12.634 27.120001 11.732 27.790001 11.062C 28.458 10.394 29.360001 10.074 30.299999 10.074L 49.5 10.074C 49.91 10.074 50.326 10.168 50.650002 10.274C 50.905998 10.36 51.344002 10.532 51.694 10.848L 56.459999 14.82C 56.495998 14.85 56.528 14.88 56.560001 14.912001C 57.057999 15.41 57.799999 16.374001 57.799999 17.572001L 57.799999 42.571999C 57.799999 43.512001 57.48 44.414001 56.810001 45.084C 56.141998 45.751999 55.240002 46.074001 54.299999 46.074001L 32.639999 46.074001C 33.452 45.181999 34.139999 44.174 34.678001 43.074001L 54.299999 43.074001C 54.560001 43.074001 54.66 42.993999 54.689999 42.962002C 54.720001 42.931999 54.799999 42.832001 54.799999 42.574001L 54.799999 17.58C 54.787231 17.522057 54.764927 17.466637 54.734001 17.416C 54.663727 17.292593 54.578407 17.178387 54.479996 17.076L 49.759998 13.144C 49.676807 13.10928 49.589378 13.085741 49.5 13.073999L 49.493999 13.073999L 30.299999 13.073999C 30.040001 13.073999 29.940001 13.154 29.91 13.184ZM 45.669998 18.586C 45.986168 17.833628 45.642815 16.966537 44.897274 16.634583C 44.151733 16.302626 43.277599 16.627623 42.93 17.366001L 38.93 26.365999C 38.69854 26.857679 38.75111 27.436098 39.067429 27.877989C 39.383743 28.31988 39.91433 28.556124 40.454376 28.495535C 40.994427 28.434946 41.459469 28.087 41.669998 27.586L 45.669998 18.586ZM 37.360001 18.914C 37.944908 19.499636 37.944908 20.448364 37.360001 21.034L 35.419998 22.973999L 37.360001 24.914C 37.910721 25.50502 37.89447 26.42602 37.323246 26.997246C 36.752022 27.56847 35.83102 27.584719 35.240002 27.034L 32.239998 24.034C 31.655094 23.448364 31.655094 22.499636 32.239998 21.914001L 35.239998 18.914C 35.825638 18.329094 36.774368 18.329094 37.360001 18.914001ZM 47.240002 18.914C 47.825638 18.329094 48.774364 18.329094 49.360001 18.914001L 52.360001 21.914C 52.944908 22.499636 52.944908 23.448364 52.360001 24.034L 49.360001 27.034C 48.768982 27.584719 47.84798 27.56847 47.276756 26.997246C 46.705532 26.42602 46.689281 25.50502 47.240002 24.914001L 49.18 22.973999L 47.240002 21.034C 46.655094 20.448364 46.655094 19.499636 47.240002 18.914001ZM 35.374001 57.826C 33.653999 52.855999 28.875999 49.223999 23.334 49.223999C 17.790001 49.223999 12.82 52.855999 11.1 57.824001L 35.374001 57.824001ZM 23.144001 47.220001C 18.568001 47.220001 14.77 44.02 13.642 39.807999L 17.882 39.807999C 18.84 41.826 20.862 43.220001 23.142 43.220001C 25.562 43.220001 27.58 41.844002 28.478001 39.807999L 32.688 39.807999C 31.629999 44.108002 27.806 47.220001 23.144001 47.220001ZM 24.528 24.026001C 24.444952 22.951977 23.526176 22.136683 22.449902 22.181953C 21.373623 22.227226 20.526562 23.116798 20.534 24.194L 20.534 24.986C 16.826 26.091999 14.09 29.488001 13.82 33.472L 12.632 33.472C 11.527431 33.472 10.632 34.367432 10.632 35.472C 10.632 36.576569 11.527431 37.472 12.632 37.472L 33.655998 37.472C 34.760567 37.472 35.655998 36.576569 35.655998 35.472C 35.655998 34.367432 34.760567 33.472 33.655998 33.472L 32.470001 33.472C 32.335236 30.174555 30.451284 27.199575 27.528 25.667999L 27.528 28.771999C 27.528 29.600428 26.856428 30.272001 26.028 30.272001C 25.199574 30.272001 24.528 29.600428 24.528 28.772001L 24.528 24.028Z"></path></g></g></g><g id="g-root-ic_navi_v98loc1xfllai-fill" data-item-order="-2304" transform="translate(386, 464)"><g id="ic_navi_v98loc1xfllai-fill" stroke="none" fill="#fff0fc"><g><path d="M 44.32 38.16C 44.447037 38.661118 44.867287 39.033791 45.380001 39.099998C 45.868778 39.184338 46.350689 38.918457 46.539997 38.459999L 58 11.68C 58.172306 11.225886 58.053875 10.712687 57.700001 10.38C 57.374165 9.962825 56.813465 9.80843 56.32 10L 29.540001 21.459999C 29.081541 21.649307 28.815659 22.131218 28.899998 22.619999C 28.960768 23.13517 29.335793 23.558071 29.84 23.68L 41.400002 26.6ZM 23.700001 36.720001L 23.700001 34.440002C 25.146965 33.950401 26.02667 32.485142 25.778576 30.977871C 25.530481 29.470598 24.227554 28.364599 22.700001 28.364599C 21.172447 28.364599 19.869518 29.470598 19.621426 30.977871C 19.373329 32.485142 20.253033 33.950401 21.700001 34.440002L 21.700001 36.720001C 15.0991 37.251022 10.009912 42.757782 10 49.380001L 10 54.459999C 10 56.415089 11.584912 58 13.54 58L 31.84 58C 33.79509 58 35.379997 56.415089 35.379997 54.459999L 35.379997 49.380001C 35.370941 42.764866 30.292994 37.260857 23.700001 36.720001ZM 27.700001 42.360001C 28.63204 42.351894 29.476822 42.907101 29.839128 43.765881C 30.201435 44.624657 30.009624 45.617191 29.353432 46.27914C 28.697239 46.94109 27.706419 47.14156 26.844509 46.786766C 25.982601 46.431976 25.420034 45.592075 25.419998 44.66C 25.408829 43.408474 26.408615 42.381908 27.66 42.360001ZM 17.700001 42.360001C 18.970255 42.359997 20 43.389744 20 44.66C 20 45.930252 18.970255 46.959999 17.700001 46.959999C 16.429745 46.959999 15.4 45.930252 15.4 44.66C 15.394508 44.044849 15.637827 43.453587 16.074699 43.020481C 16.511572 42.587372 17.104921 42.349182 17.719999 42.360001ZM 32.360001 54.459999C 32.360001 54.758236 32.118233 55 31.82 55L 13.54 55C 13.241766 55 13 54.758236 13 54.460003L 13 50.880001L 32.379997 50.880001Z"></path></g></g></g><g id="g-root-tx_aidriven_597ss1xf1xjf-fill" data-item-order="0" transform="translate(68, 38)"><g id="tx_aidriven_597ss1xf1xjf-fill" stroke="none" fill="#fff0fc"><g><text style="font-style: normal; font-variant-caps: normal; font-weight: bold; font-width: normal; font-size: 25px; line-height: normal; font-family: &quot;DM Mono Regular&quot;, monospace; font-size-adjust: none; font-kerning: auto; font-variant-alternates: normal; font-variant-ligatures: normal; font-variant-numeric: normal; font-variant-east-asian: normal; font-variant-position: normal; font-variant-emoji: normal; font-feature-settings: normal; font-optical-sizing: auto; font-variation-settings: normal; white-space: pre;"><tspan x="13.1" y="44" dominant-baseline="ideographic">AI-Driven Secure Code Review Cycle</tspan></text></g></g></g><g id="g-root-tx_iterateu_zofmpo1xfn1tw-fill" data-item-order="0" transform="translate(74, 110)"><g id="tx_iterateu_zofmpo1xfn1tw-fill" stroke="none" fill="#fff0fc"><g><text style="font-style: normal; font-variant-caps: normal; font-weight: normal; font-width: normal; font-size: 20px; line-height: normal; font-family: &quot;DM Mono Regular&quot;, monospace; font-size-adjust: none; font-kerning: auto; font-variant-alternates: normal; font-variant-ligatures: normal; font-variant-numeric: normal; font-variant-east-asian: normal; font-variant-position: normal; font-variant-emoji: normal; font-feature-settings: normal; font-optical-sizing: auto; font-variation-settings: normal; white-space: pre;"><tspan x="44" y="35" dominant-baseline="ideographic">Iterate </tspan><tspan x="68" y="59" dominant-baseline="ideographic">Until </tspan><tspan x="20" y="83" dominant-baseline="ideographic">Satisfied</tspan></text></g></g></g><g id="g-root-tx_createpr_1cy0szg1xf1ybl-fill" data-item-order="0" transform="translate(482, 134)"><g id="tx_createpr_1cy0szg1xf1ybl-fill" stroke="none" fill="#fff0fc"><g><text style="font-style: normal; font-variant-caps: normal; font-weight: normal; font-width: normal; font-size: 20px; line-height: normal; font-family: &quot;DM Mono Regular&quot;, monospace; font-size-adjust: none; font-kerning: auto; font-variant-alternates: normal; font-variant-ligatures: normal; font-variant-numeric: normal; font-variant-east-asian: normal; font-variant-position: normal; font-variant-emoji: normal; font-feature-settings: normal; font-optical-sizing: auto; font-variation-settings: normal; white-space: pre;"><tspan x="12" y="35" dominant-baseline="ideographic">Create </tspan><tspan x="12" y="59" dominant-baseline="ideographic">Prompt</tspan></text></g></g></g><g id="g-root-tx_returnup_1hgyldo1xfn1mu-fill" data-item-order="0" transform="translate(14, 314)"><g id="tx_returnup_1hgyldo1xfn1mu-fill" stroke="none" fill="#fff0fc"><g><text style="font-style: normal; font-variant-caps: normal; font-weight: normal; font-width: normal; font-size: 20px; line-height: normal; font-family: &quot;DM Mono Regular&quot;, monospace; font-size-adjust: none; font-kerning: auto; font-variant-alternates: normal; font-variant-ligatures: normal; font-variant-numeric: normal; font-variant-east-asian: normal; font-variant-position: normal; font-variant-emoji: normal; font-feature-settings: normal; font-optical-sizing: auto; font-variation-settings: normal; white-space: pre;"><tspan x="32" y="35" dominant-baseline="ideographic">Return </tspan><tspan x="20" y="59" dominant-baseline="ideographic">Updated </tspan><tspan x="56" y="83" dominant-baseline="ideographic">Code</tspan></text></g></g></g><g id="g-root-tx_aiingest_qpoc701xf1yj3-fill" data-item-order="0" transform="translate(566, 338)"><g id="tx_aiingest_qpoc701xf1yj3-fill" stroke="none" fill="#fff0fc"><g><text style="font-style: normal; font-variant-caps: normal; font-weight: normal; font-width: normal; font-size: 20px; line-height: normal; font-family: &quot;DM Mono Regular&quot;, monospace; font-size-adjust: none; font-kerning: auto; font-variant-alternates: normal; font-variant-ligatures: normal; font-variant-numeric: normal; font-variant-east-asian: normal; font-variant-position: normal; font-variant-emoji: normal; font-feature-settings: normal; font-optical-sizing: auto; font-variation-settings: normal; white-space: pre;"><tspan x="17" y="35" dominant-baseline="ideographic">AI Ingests </tspan><tspan x="41" y="59" dominant-baseline="ideographic">Prompt</tspan></text></g></g></g><g id="g-root-tx_aiproces_qwjgzg1xfn0n5-fill" data-item-order="0" transform="translate(74, 518)"><g id="tx_aiproces_qwjgzg1xfn0n5-fill" stroke="none" fill="#fff0fc"><g><text style="font-style: normal; font-variant-caps: normal; font-weight: normal; font-width: normal; font-size: 20px; line-height: normal; font-family: &quot;DM Mono Regular&quot;, monospace; font-size-adjust: none; font-kerning: auto; font-variant-alternates: normal; font-variant-ligatures: normal; font-variant-numeric: normal; font-variant-east-asian: normal; font-variant-position: normal; font-variant-emoji: normal; font-feature-settings: normal; font-optical-sizing: auto; font-variation-settings: normal; white-space: pre;"><tspan x="104" y="35" dominant-baseline="ideographic">AI </tspan><tspan x="20" y="59" dominant-baseline="ideographic">Processes </tspan><tspan x="44" y="83" dominant-baseline="ideographic">Request</tspan></text></g></g></g><g id="g-root-tx_directai_hssdrw1xf1xxg-fill" data-item-order="0" transform="translate(482, 518)"><g id="tx_directai_hssdrw1xf1xxg-fill" stroke="none" fill="#fff0fc"><g><text style="font-style: normal; font-variant-caps: normal; font-weight: normal; font-width: normal; font-size: 20px; line-height: normal; font-family: &quot;DM Mono Regular&quot;, monospace; font-size-adjust: none; font-kerning: auto; font-variant-alternates: normal; font-variant-ligatures: normal; font-variant-numeric: normal; font-variant-east-asian: normal; font-variant-position: normal; font-variant-emoji: normal; font-feature-settings: normal; font-optical-sizing: auto; font-variation-settings: normal; white-space: pre;"><tspan x="12" y="35" dominant-baseline="ideographic">Direct AI </tspan><tspan x="12" y="59" dominant-baseline="ideographic">Review</tspan></text></g></g></g><g id="g-root-sy_6_arrow-6_1lqjcn01xfk7pg-stroke" data-item-order="-194005" transform="translate(146.26400756835938, 129.72100830078125)"><g id="sy_6_arrow-6_1lqjcn01xfk7pg-stroke" fill="none" stroke-linecap="round" stroke-linejoin="round" stroke-miterlimit="4" stroke="#fff0fc" stroke-width="2"><g><path d="M 222.546992 75.673999L 142.904992 9.999999L 149.088992 33.154999C 115.568992 42.072999 83.877992 59.668999 57.571992 85.943999C 35.740992 107.748999 19.882992 133.269999 9.999992 160.472999L 78.240992 134.963999L 105.214992 181.761999C 110.274992 171.698999 117.007992 162.261999 125.413992 153.866999C 139.340992 139.955999 156.117992 130.640999 173.863992 125.918999L 180.060992 149.123999L 222.546992 75.673999Z"></path></g></g></g><g id="g-root-sy_5_arrow-5_1cuwce41xfk8i5-stroke" data-item-order="-194001" transform="translate(117.81201171875, 254.68499755859375)"><g id="sy_5_arrow-5_1cuwce41xfk8i5-stroke" fill="none" stroke-linecap="round" stroke-linejoin="round" stroke-miterlimit="4" stroke="#fff0fc" stroke-width="2"><g><path d="M 85.903004 164.627002L 139.927004 164.659002C 122.711004 138.532002 118.027004 106.578002 125.871004 77.282002L 149.066004 83.515002L 106.693004 10.000002L 10.000004 46.144002L 33.144004 52.364002C 16.363004 115.044002 29.941004 184.165002 73.891004 236.435002L 85.903004 164.627002Z"></path></g></g></g><g id="g-root-sy_4_arrow-4_1cuwce41xfk8i6-stroke" data-item-order="-193997" transform="translate(176.68402099609375, 409.31201171875)"><g id="sy_4_arrow-4_1cuwce41xfk8i6-stroke" fill="none" stroke-linecap="round" stroke-linejoin="round" stroke-miterlimit="4" stroke="#fff0fc" stroke-width="2"><g><path d="M 26.979994 94.852988C 75.845994 143.776988 143.374994 162.702988 206.679994 151.616988L 150.503994 105.293988L 177.565994 58.508988C 147.860994 60.219988 117.583994 49.718988 94.902994 27.010988L 111.882994 10.049988L 27.029994 9.999988L 9.999994 111.812988L 26.979994 94.852988Z"></path></g></g></g><g id="g-root-sy_3_arrow-3_18f2u9o1xfk9af-stroke" data-item-order="-193993" transform="translate(317.18798828125, 398.51800537109375)"><g id="sy_3_arrow-3_18f2u9o1xfk9af-stroke" fill="none" stroke-linecap="round" stroke-linejoin="round" stroke-miterlimit="4" stroke="#fff0fc" stroke-width="2"><g><path d="M 127.333012 9.999995C 122.272012 20.062995 115.539012 29.498995 107.134012 37.894995C 93.207012 51.805995 76.429012 61.120995 58.683012 65.842995L 52.486012 42.637995L 10.000012 116.087995L 89.642012 181.760995L 83.458012 158.606995C 116.978012 149.687995 148.669012 132.092995 174.976012 105.817995C 196.806012 84.012995 212.664012 58.491995 222.548012 31.288995L 154.306012 56.797995L 127.333012 9.999995Z"></path></g></g></g><g id="g-root-sy_2_arrow-2_13zvt8c1xfk6ww-stroke" data-item-order="-193989" transform="translate(419.12200927734375, 218.8809814453125)"><g id="sy_2_arrow-2_13zvt8c1xfk6ww-stroke" fill="none" stroke-linecap="round" stroke-linejoin="round" stroke-miterlimit="4" stroke="#fff0fc" stroke-width="2"><g><path d="M 73.162991 81.808003L 19.138991 81.776003C 36.354991 107.902003 41.038991 139.856003 33.194991 169.152003L 9.999991 162.919003L 52.372991 236.435003L 149.065991 200.290003L 125.920991 194.071003C 142.702991 131.390003 129.124991 62.269003 85.174991 10.000003L 73.162991 81.808003Z"></path></g></g></g><g id="g-root-sy_1_arrow-1_13zvt8c1xfk6wx-stroke" data-item-order="-193985" transform="translate(302.635009765625, 146.00067138671875)"><g id="sy_1_arrow-1_13zvt8c1xfk6wx-stroke" fill="none" stroke-linecap="round" stroke-linejoin="round" stroke-miterlimit="4" stroke="#fff0fc" stroke-width="2"><g><path d="M 66.17599 59.394344L 39.11399 106.179344C 68.81999 104.468344 99.09599 114.969344 121.77799 137.677344L 104.79699 154.638344L 189.64999 154.688344L 206.68099 52.874344L 189.69999 69.835344C 140.83399 20.911344 73.30499 1.985344 9.99999 13.071344L 66.17599 59.394344Z"></path></g></g></g><g id="g-root-ic_star_v48szg1xfk7pm-stroke" data-item-order="-2304" transform="translate(242, 188)"></g><g id="g-root-ic_voti_13z9c581xfn1mx-stroke" data-item-order="-2304" transform="translate(386, 188)"></g><g id="g-root-ic_robo_1cwrrng1xfk7ij-stroke" data-item-order="-2304" transform="translate(158, 326)"></g><g id="g-root-ic_clou_qwjgzg1xflmhb-stroke" data-item-order="-2304" transform="translate(470, 326)"></g><g id="g-root-ic_code_qqaq4c1xflkwd-stroke" data-item-order="-2304" transform="translate(242, 464)"></g><g id="g-root-ic_navi_v98loc1xfllai-stroke" data-item-order="-2304" transform="translate(386, 464)"></g><g id="g-root-tx_aidriven_597ss1xf1xjf-stroke" data-item-order="0" transform="translate(68, 38)"></g><g id="g-root-tx_iterateu_zofmpo1xfn1tw-stroke" data-item-order="0" transform="translate(74, 110)"></g><g id="g-root-tx_createpr_1cy0szg1xf1ybl-stroke" data-item-order="0" transform="translate(482, 134)"></g><g id="g-root-tx_returnup_1hgyldo1xfn1mu-stroke" data-item-order="0" transform="translate(14, 314)"></g><g id="g-root-tx_aiingest_qpoc701xf1yj3-stroke" data-item-order="0" transform="translate(566, 338)"></g><g id="g-root-tx_aiproces_qwjgzg1xfn0n5-stroke" data-item-order="0" transform="translate(74, 518)"></g><g id="g-root-tx_directai_hssdrw1xf1xxg-stroke" data-item-order="0" transform="translate(482, 518)"></g></g></g><path id="w1ut0se41yjjzm4" d="M65.283 12.757a.35.35 0 0 0 .584.157l5.203-5.141-6.183 3.523.396 1.461zm-2.216-11.7a.35.35 0 0 0-.522.305v3.111l3.276-1.868-2.754-1.548zm3.728 2.105l-4.25 2.421v2.445l6.391-3.644-2.141-1.222zm4.708 3.303a.35.35 0 0 0 0-.609l-1.592-.9-7.365 4.199v1.782a.35.35 0 0 0 .523.305l8.435-4.777z M44.542 2.513c0-.433.355-.783.792-.783s.792.35.792.783-.355.783-.792.783-.792-.35-.792-.783zm59.171 0c0-.433.355-.783.792-.783s.792.35.792.783-.355.783-.792.783-.792-.35-.792-.783zm-85.951 7.636h-1.27v-.487c-.276.201-.864.609-1.881.609-1.202 0-2.274-.794-2.137-2.078.118-1.106 1.153-1.584 1.848-1.727l2.17-.345c0-.539-.29-.956-1.064-1.006s-1.21.305-1.571 1.017l-1.124-.605c1.218-2.631 5.029-1.764 5.029.414v4.207zm-1.27-2.86c.006.396-.062 1.112-.819 1.59-.587.37-1.841.299-1.903-.395-.049-.555.461-.791.906-.898l1.816-.297zm72.662 2.86h-1.27v-.487c-.276.201-.864.609-1.881.609-1.202 0-2.274-.794-2.137-2.078.118-1.106 1.153-1.584 1.848-1.727l2.17-.345c0-.539-.29-.956-1.064-1.006s-1.21.305-1.571 1.017l-1.124-.605c1.218-2.631 5.029-1.764 5.029.414v4.207zm-1.27-2.86c.006.396-.062 1.112-.82 1.59-.587.37-1.841.299-1.903-.395-.049-.555.461-.791.906-.898l1.816-.297zM99.096 10.149H97.85v-8.45h1.246v4.895l2.68-2.559h1.738l-2.633 2.535 2.715 3.578h-1.556l-2.077-2.707-.867.844v1.863zm6.053-6.114h-1.255v6.113h1.255V4.035zm-59.2 0h-1.255v6.113h1.255V4.035zm5.584 6.113V1.697h1.255v2.695c.361-.346 1-.485 1.47-.485 1.452 0 2.477 1.082 2.457 2.448v3.792h-1.27v-3.68c0-.408-.214-1.339-1.315-1.339-.968 0-1.342.756-1.342 1.339v3.681h-1.255zm-4.76-4.894V4.039h.621a.45.45 0 0 0 .45-.45v-.855h1.251v1.305h1.309v1.215h-1.309v3.109c0 .293.105.664.648.664.365 0 .531-.035.736-.07v1.137s-.361.113-.857.113c-1.398 0-1.777-1.051-1.777-1.788V5.254h-1.071zM36.528 4.039h-1.394l2.191 6.106h1.125l1.234-3.918 1.238 3.918h1.129l2.188-6.106h-1.383l-1.359 3.93-1.256-3.93h-1.124l-1.242 3.957-1.348-3.957zM26.212 7.141c-.02 1.566 1.187 3.129 3.223 3.129 1.566 0 2.383-.918 2.734-1.719L31.172 8c-.315.399-.801 1.094-1.738 1.094-1.145 0-1.825-.781-1.891-1.52h4.625c.074-.284.148-.995-.03-1.559-.336-1.064-1.221-2.102-2.839-2.102s-3.088 1.152-3.088 3.227zm1.363-.75h3.348c-.055-.43-.566-1.301-1.623-1.301a1.79 1.79 0 0 0-1.725 1.301zm-8.758.75c.038 1.758 1.277 3.133 3.145 3.133 1.074 0 1.723-.477 1.961-.672v.547h1.242V1.703h-1.258v2.888c-.414-.36-1.062-.68-1.93-.68-1.91 0-3.198 1.473-3.16 3.23zm1.309-.08c0 1.119.723 1.978 1.836 1.978a1.88 1.88 0 0 0 1.94-1.904c0-1.371-1.011-1.99-1.972-1.99s-1.805.798-1.805 1.916zm76.683-.028C96.771 5.275 95.532 3.9 93.664 3.9c-1.074 0-1.723.477-1.961.672v-.547h-1.242v8.22h1.258V9.583c.414.36 1.063.68 1.93.68 1.91 0 3.198-1.473 3.16-3.23zm-1.309.08c0-1.119-.723-1.978-1.836-1.978a1.88 1.88 0 0 0-1.94 1.904c0 1.371 1.011 1.99 1.972 1.99S95.5 8.231 95.5 7.113zM106.441 10.173V4.036h1.254v.382c.361-.346 1-.485 1.47-.485 1.452 0 2.477 1.082 2.457 2.448v3.792h-1.27V6.492c0-.408-.214-1.339-1.315-1.339-.969 0-1.342.756-1.342 1.339v3.681h-1.254zm-30.383-.021V1.824h1.084l4.215 5.777V1.824h1.32v8.328h-1.094l-4.207-5.796v5.796h-1.319zM5.24 10.149H4V2.377h1.014l2.664 3.597 2.654-3.592h1.03v7.766h-1.256V4.762L7.678 8.068 5.24 4.742v5.407z" transform="translate(611, 617)" fill="#ababab88" stroke="none"></path></svg>