<?xml version="1.0" encoding="utf-8" standalone="yes"?>
<!DOCTYPE svg PUBLIC "-//W3C//DTD SVG 1.1//EN" "http://www.w3.org/Graphics/SVG/1.1/DTD/svg11.dtd">
<svg width="894" height="592" viewBox="0 0 894 592" style="fill:none;stroke:none;fill-rule:evenodd;clip-rule:evenodd;stroke-linecap:round;stroke-linejoin:round;stroke-miterlimit:1.5;" version="1.1" xmlns="http://www.w3.org/2000/svg" xmlns:xlink="http://www.w3.org/1999/xlink"><g id="items" style="isolation: isolate"><g id="blend" style="mix-blend-mode: normal"><g id="g-root-sy_-1_Vector_144uq981wlk170-fill" data-item-order="-411143" transform="translate(52.94099426269531, 186)"></g><g id="g-root-cp_1_g-1_zp184s1wlk1z9-fill" data-item-order="-411142" transform="translate(59.941009521484375, 223)"><g id="cp_1_g-1_zp184s1wlk1z9-fill" stroke="none" fill="#3e3d3a"><g><path d="M 10 34C 10.000001 47.254835 20.745167 58.000001 34.000001 58.000001C 47.254835 58.000001 58.000001 47.254835 58.000001 34.000001C 58.000001 20.745167 47.254835 10.000001 34.000001 10.000001C 20.745167 10.000001 10.000001 20.745167 10.000001 34.000001"></path></g></g></g><g id="g-root-cp_2_g-2_qu0oz01wljzm6-fill" data-item-order="-411138" transform="translate(122.94100952148438, 318)"><g id="cp_2_g-2_qu0oz01wljzm6-fill" stroke="none" fill="#3e3d3a"><g><path d="M 10 34C 10.000001 47.254835 20.745167 58.000001 34.000001 58.000001C 47.254835 58.000001 58.000001 47.254835 58.000001 34.000001C 58.000001 20.745167 47.254835 10.000001 34.000001 10.000001C 20.745167 10.000001 10.000001 20.745167 10.000001 34.000001"></path></g></g></g><g id="g-root-cp_3_g-3_me76uk1wlk0ef-fill" data-item-order="-411134" transform="translate(185.94097900390625, 207)"><g id="cp_3_g-3_me76uk1wlk0ef-fill" stroke="none" fill="#3e3d3a"><g><path d="M 10 34C 10.000001 47.254835 20.745167 58.000001 34.000001 58.000001C 47.254835 58.000001 58.000001 47.254835 58.000001 34.000001C 58.000001 20.745167 47.254835 10.000001 34.000001 10.000001C 20.745167 10.000001 10.000001 20.745167 10.000001 34.000001"></path></g></g></g><g id="g-root-cp_4_g-4_hydoq41wlk16o-fill" data-item-order="-411130" transform="translate(249.94097900390625, 294)"><g id="cp_4_g-4_hydoq41wlk16o-fill" stroke="none" fill="#3e3d3a"><g><path d="M 10 34C 10.000001 47.254835 20.745167 58.000001 34.000001 58.000001C 47.254835 58.000001 58.000001 47.254835 58.000001 34.000001C 58.000001 20.745167 47.254835 10.000001 34.000001 10.000001C 20.745167 10.000001 10.000001 20.745167 10.000001 34.000001"></path></g></g></g><g id="g-root-cp_5_g-5_hydoq41wlk16p-fill" data-item-order="-411126" transform="translate(312.9410095214844, 224)"><g id="cp_5_g-5_hydoq41wlk16p-fill" stroke="none" fill="#3e3d3a"><g><path d="M 10 34C 10.000001 47.254835 20.745167 58.000001 34.000001 58.000001C 47.254835 58.000001 58.000001 47.254835 58.000001 34.000001C 58.000001 20.745167 47.254835 10.000001 34.000001 10.000001C 20.745167 10.000001 10.000001 20.745167 10.000001 34.000001"></path></g></g></g><g id="g-root-cp_6_g-6_92qoh81wlk1ze-fill" data-item-order="-411122" transform="translate(375.9410095214844, 351)"><g id="cp_6_g-6_92qoh81wlk1ze-fill" stroke="none" fill="#3e3d3a"><g><path d="M 10 34C 10.000001 47.254835 20.745167 58.000001 34.000001 58.000001C 47.254835 58.000001 58.000001 47.254835 58.000001 34.000001C 58.000001 20.745167 47.254835 10.000001 34.000001 10.000001C 20.745167 10.000001 10.000001 20.745167 10.000001 34.000001"></path></g></g></g><g id="g-root-cp_7_g-7_4njnfw1wljzlv-fill" data-item-order="-411118" transform="translate(438.9410400390625, 195)"><g id="cp_7_g-7_4njnfw1wljzlv-fill" stroke="none" fill="#3e3d3a"><g><path d="M 10 34C 10.000001 47.254835 20.745167 58.000001 34.000001 58.000001C 47.254835 58.000001 58.000001 47.254835 58.000001 34.000001C 58.000001 20.745167 47.254835 10.000001 34.000001 10.000001C 20.745167 10.000001 10.000001 20.745167 10.000001 34.000001"></path></g></g></g><g id="g-root-cp_8_g-8_1ut0p641wlk07g-fill" data-item-order="-411114" transform="translate(501.9410400390625, 315)"><g id="cp_8_g-8_1ut0p641wlk07g-fill" stroke="none" fill="#3e3d3a"><g><path d="M 10 34C 10.000001 47.254835 20.745167 58.000001 34.000001 58.000001C 47.254835 58.000001 58.000001 47.254835 58.000001 34.000001C 58.000001 20.745167 47.254835 10.000001 34.000001 10.000001C 20.745167 10.000001 10.000001 20.745167 10.000001 34.000001"></path></g></g></g><g id="g-root-cp_9_g-9_1qd771o1wlk0zp-fill" data-item-order="-411110" transform="translate(565.9409790039062, 229)"><g id="cp_9_g-9_1qd771o1wlk0zp-fill" stroke="none" fill="#3e3d3a"><g><path d="M 10 34C 10.000001 47.254835 20.745167 58.000001 34.000001 58.000001C 47.254835 58.000001 58.000001 47.254835 58.000001 34.000001C 58.000001 20.745167 47.254835 10.000001 34.000001 10.000001C 20.745167 10.000001 10.000001 20.745167 10.000001 34.000001"></path></g></g></g><g id="g-root-cp_10_g-10_1hhk6ss1wlk1se-fill" data-item-order="-411106" transform="translate(628.9409790039062, 329)"><g id="cp_10_g-10_1hhk6ss1wlk1se-fill" stroke="none" fill="#3e3d3a"><g><path d="M 10 34C 10.000001 47.254835 20.745167 58.000001 34.000001 58.000001C 47.254835 58.000001 58.000001 47.254835 58.000001 34.000001C 58.000001 20.745167 47.254835 10.000001 34.000001 10.000001C 20.745167 10.000001 10.000001 20.745167 10.000001 34.000001"></path></g></g></g><g id="g-root-cp_11_g-11_1d1qooc1wlk2kn-fill" data-item-order="-411102" transform="translate(691.9409790039062, 196)"><g id="cp_11_g-11_1d1qooc1wlk2kn-fill" stroke="none" fill="#3e3d3a"><g><path d="M 10 34C 10.000001 47.254835 20.745167 58.000001 34.000001 58.000001C 47.254835 58.000001 58.000001 47.254835 58.000001 34.000001C 58.000001 20.745167 47.254835 10.000001 34.000001 10.000001C 20.745167 10.000001 10.000001 20.745167 10.000001 34.000001"></path></g></g></g><g id="g-root-cp_12_g-12_1d1qooc1wlk2ko-fill" data-item-order="-411098" transform="translate(754.9409790039062, 315)"><g id="cp_12_g-12_1d1qooc1wlk2ko-fill" stroke="none" fill="#3e3d3a"><g><path d="M 10 34C 10.000001 47.254835 20.745167 58.000001 34.000001 58.000001C 47.254835 58.000001 58.000001 47.254835 58.000001 34.000001C 58.000001 20.745167 47.254835 10.000001 34.000001 10.000001C 20.745167 10.000001 10.000001 20.745167 10.000001 34.000001"></path></g></g></g><g id="g-root-ic_chec_mdkw301wl37kb-fill" data-item-order="-576" transform="translate(577.9409790039062, 241)"><g id="ic_chec_mdkw301wl37kb-fill" stroke="none" fill="#fff0fc"><g><path d="M 27.52 21C 24.889191 20.991906 22.512924 22.570437 21.500543 24.998669C 20.488162 27.4269 21.039327 30.22594 22.89673 32.089076C 24.754134 33.952212 27.551462 34.512 29.982802 33.507107C 32.414141 32.502214 33.999988 30.130823 34.000001 27.500001C 33.994539 23.920212 31.099755 21.016493 27.52 21ZM 30.8 26.21L 27.89 30.08C 27.607765 30.458961 27.16251 30.681588 26.690001 30.680001C 26.292744 30.677488 25.912258 30.51955 25.63 30.24L 24.13 28.74C 23.837547 28.447183 23.837547 27.972818 24.13 27.680001C 24.269288 27.537053 24.460413 27.456431 24.660001 27.456431C 24.859588 27.456431 25.050713 27.537053 25.190001 27.680001L 26.49 28.98C 26.541271 29.028048 26.609809 29.053299 26.679999 29.049999C 26.754434 29.044365 26.823214 29.008165 26.87 28.95L 29.6 25.31C 29.848529 24.97863 30.31863 24.911472 30.650001 25.16C 30.981371 25.408529 31.048529 25.87863 30.800001 26.21ZM 34 13C 34.000001 11.343146 32.656855 10 31.000001 10L 13 10C 11.343146 10 10 11.343146 10 13L 10 27.5C 10 29.156855 11.343146 30.500001 13 30.500001L 18 30.5C 18.552285 30.5 19 30.052285 19 29.5C 19 28.947715 18.552285 28.5 18 28.5L 13 28.5C 12.447715 28.5 12 28.052285 12 27.5L 12 15.25C 11.999581 15.119377 12.099795 15.010449 12.23 15L 31.73 15C 31.868071 15 31.98 15.111929 31.98 15.25L 31.98 19.5C 31.98 20.052285 32.427715 20.5 32.98 20.5C 33.532285 20.5 33.98 20.052285 33.98 19.5ZM 14.32 13C 14.136689 13.289656 13.817788 13.465234 13.475 13.465234C 13.132212 13.465234 12.813311 13.289656 12.63 13C 12.45434 12.727333 12.431661 12.38337 12.57 12.09C 12.731088 11.731641 13.087101 11.50082 13.48 11.5C 13.827934 11.509127 14.146093 11.698508 14.32 12C 14.41691 12.149443 14.472147 12.322058 14.48 12.5C 14.472147 12.677942 14.41691 12.850557 14.32 13ZM 17.82 13C 17.636689 13.289656 17.317788 13.465234 16.975 13.465234C 16.632212 13.465234 16.313311 13.289656 16.13 13C 15.930439 12.696535 15.930439 12.303465 16.13 12C 16.313311 11.710344 16.632212 11.534766 16.975 11.534766C 17.317788 11.534766 17.636689 11.710344 17.82 12C 17.923997 12.147382 17.986193 12.320149 18 12.5C 17.986193 12.679851 17.923997 12.852618 17.82 13ZM 21.32 13C 21.136689 13.289656 20.817788 13.465234 20.475 13.465234C 20.132212 13.465234 19.813311 13.289656 19.63 13C 19.430439 12.696535 19.430439 12.303465 19.630001 12C 19.813311 11.710344 20.132212 11.534766 20.475 11.534766C 20.817788 11.534766 21.136689 11.710344 21.32 12C 21.41691 12.149443 21.472147 12.322058 21.48 12.5C 21.472147 12.677942 21.41691 12.850557 21.32 13Z"></path></g></g></g><g id="g-root-ic_2_1lqik4s1wlil1i-fill" data-item-order="-576" transform="translate(261.94097900390625, 306)"><g id="ic_2_1lqik4s1wlil1i-fill" stroke="none" fill="#fff0fc"><g><path d="M 29.5 32.68C 29.498034 32.544414 29.552342 32.414076 29.65 32.32L 33.21 28.79C 33.394744 28.603739 33.498895 28.35234 33.5 28.09L 33.5 20.94C 33.499224 20.777704 33.421249 20.625467 33.29 20.53C 33.155784 20.435775 32.983895 20.413355 32.83 20.47C 32.11 20.72 31.03 21.86 31 26.3C 30.999231 26.432118 30.945141 26.558327 30.85 26.65L 28.65 28.85C 28.560083 28.913509 28.439915 28.913509 28.349999 28.849999C 28.251188 28.794628 28.201951 28.679741 28.23 28.57L 28.72 26.42C 29.06 24.98 27.72 24.42 27.03 25.48C 26.399471 26.764054 25.88735 28.102931 25.500001 29.480001L 25.5 33.74C 25.5 33.878071 25.611929 33.99 25.75 33.99L 29.25 33.99C 29.388071 33.99 29.5 33.878071 29.5 33.74ZM 18.25 34C 18.388071 34 18.5 33.888071 18.5 33.75L 18.5 29.49C 18.112651 28.112931 17.60053 26.774054 16.97 25.490001C 16.25 24.38 14.97 24.99 15.28 26.43L 15.77 28.58C 15.798049 28.689741 15.748812 28.804628 15.65 28.86C 15.560083 28.923509 15.439916 28.923509 15.35 28.859999L 13.15 26.66C 13.052342 26.565925 12.998034 26.435586 13 26.3C 13 21.86 11.89 20.72 11.17 20.47C 11.016105 20.413355 10.844216 20.435775 10.71 20.53C 10.57875 20.625467 10.500775 20.777704 10.5 20.94L 10.5 28C 10.497825 28.285659 10.617924 28.558611 10.83 28.75C 11.83 29.68 13.83 31.75 14.36 32.28C 14.4488 32.375049 14.498751 32.499928 14.5 32.629999L 14.5 33.71C 14.5 33.848071 14.611929 33.96 14.75 33.96ZM 25.62 18.87C 25.385499 19.1028 25.253613 19.419566 25.253613 19.75C 25.253613 20.080434 25.385499 20.397201 25.62 20.63C 25.851452 20.867011 26.168724 21.00064 26.5 21.00064C 26.831277 21.00064 27.148548 20.867011 27.38 20.63L 31.38 16.63C 31.614502 16.397201 31.746387 16.080434 31.746387 15.75C 31.746387 15.419566 31.614502 15.102799 31.38 14.87L 27.38 10.87C 26.89399 10.383989 26.106011 10.383989 25.62 10.87C 25.13399 11.356011 25.13399 12.143989 25.62 12.63L 28.38 15.4C 28.570571 15.594422 28.570571 15.905578 28.38 16.1ZM 18.38 10.87C 18.147201 10.635499 17.830434 10.503613 17.5 10.503613C 17.169566 10.503613 16.852799 10.635499 16.62 10.87L 12.62 14.87C 12.385499 15.102799 12.253613 15.419566 12.253613 15.75C 12.253613 16.080434 12.385499 16.397201 12.62 16.63L 16.62 20.63C 16.851452 20.867011 17.168723 21.00064 17.5 21.00064C 17.831277 21.00064 18.148548 20.867011 18.38 20.63C 18.614501 20.397201 18.746387 20.080434 18.746387 19.75C 18.746387 19.419566 18.614501 19.1028 18.38 18.87L 15.62 16.1C 15.429429 15.905578 15.429429 15.594422 15.62 15.4L 18.38 12.63C 18.614501 12.397201 18.746387 12.080434 18.746387 11.75C 18.746387 11.419566 18.614501 11.102799 18.38 10.87ZM 10 10M 20.73 21.47L 21 21.47C 21.590834 21.463952 22.098107 21.048155 22.22 20.47L 24.22 11.47C 24.361907 11.011942 24.229259 10.513077 23.878585 10.185995C 23.52791 9.858914 23.021029 9.761277 22.573947 9.934692C 22.126865 10.108108 21.818399 10.522004 21.78 11L 19.78 20C 19.643554 20.666938 20.065881 21.320434 20.73 21.47Z"></path></g></g></g><g id="g-root-ic_robo_m7bywc1wlmtjc-fill" data-item-order="-576" transform="translate(134.94100952148438, 330)"><g id="ic_robo_m7bywc1wlmtjc-fill" stroke="none" fill="#fff0fc"><g><path d="M 28.491 13.41L 30.321 13.41C 31.425569 13.41 32.321 14.305431 32.321 15.41L 32.321 18.923C 32.321 20.027569 31.425569 20.923 30.321 20.923L 24.662 20.923C 23.557431 20.923 22.662 20.027569 22.662 18.923L 22.662 15.41C 22.662 14.305431 23.557431 13.41 24.662 13.41L 26.492 13.41L 26.492 11.332C 26.492 10.779715 26.939715 10.332 27.492 10.332C 28.044285 10.332 28.492 10.779715 28.492 11.332L 28.492 13.409ZM 11.678 17.997C 11.678 14.085 14.932 10.83 18.844 10.83C 20.434 10.83 21.916 11.367 23.114 12.268C 21.918484 12.857558 21.161642 14.075019 21.162 15.408L 21.162 18.922C 21.161775 20.77283 22.602569 22.303893 24.450001 22.416001C 24.284939 22.610819 24.107221 22.79455 23.918001 22.966001C 23.188 23.699 22.692 24.682 22.485 25.732L 15.205 25.732C 14.998 24.682 14.502 23.699 13.772 22.965C 12.452 21.77 11.678 19.938 11.678 17.997ZM 15.314 27.232L 22.376 27.232L 22.376 28.906C 22.372422 30.367402 21.293546 31.603205 19.846 31.804001L 19.846 32.666C 19.846 33.218285 19.398285 33.666 18.846 33.666C 18.293715 33.666 17.846 33.218285 17.846 32.666L 17.846 31.804C 16.397661 31.604111 15.317719 30.368064 15.314 28.906001L 15.314 27.232ZM 25.69 18.558C 25.275787 18.558 24.94 18.222214 24.94 17.808L 24.94 16.528C 24.94 16.113787 25.275787 15.778 25.69 15.778C 26.104214 15.778 26.44 16.113787 26.44 16.528L 26.44 17.808C 26.440001 18.222214 26.104214 18.558 25.69 18.558ZM 28.543 17.808C 28.543001 18.222214 28.878787 18.558 29.293001 18.558C 29.707214 18.558 30.043001 18.222214 30.043001 17.808L 30.043 16.528C 30.043001 16.113787 29.707214 15.778 29.293001 15.778C 28.878787 15.778 28.543001 16.113787 28.543001 16.528L 28.543 17.808Z"></path></g></g></g><g id="g-root-ic_1_5uwdo1wl35du-fill" data-item-order="-576" transform="translate(513.9410400390625, 327)"><g id="ic_1_5uwdo1wl35du-fill" stroke="none" fill="#fff0fc"><g><path d="M 24.68 22.2C 24.930182 21.91361 24.930182 21.48639 24.68 21.2L 22.69 19C 22.599718 18.900799 22.599718 18.7492 22.689999 18.649999L 24.69 16.48C 24.868961 16.177172 24.813417 15.790657 24.556424 15.550477C 24.299432 15.310297 23.910047 15.280991 23.62 15.48L 21 18.28C 20.749818 18.56639 20.749818 18.99361 21 19.28L 23.67 22.13C 23.937761 22.411322 24.375991 22.441694 24.68 22.2ZM 26.29 21.14C 26.11104 21.442828 26.166584 21.829344 26.423577 22.069524C 26.680569 22.309704 27.069954 22.339009 27.360001 22.14L 30.03 19.29C 30.280182 19.00361 30.280182 18.57639 30.03 18.29L 27.38 15.43C 27.087183 15.137547 26.612818 15.137547 26.32 15.43C 26.174447 15.567863 26.091997 15.75952 26.091997 15.96C 26.091997 16.16048 26.174447 16.352137 26.320001 16.49L 28.32 18.67C 28.408929 18.765888 28.408929 18.914112 28.32 19.01ZM 33.41 13L 31 10.59C 30.62665 10.214412 30.119577 10.002233 29.59 10L 18 10C 16.895431 10 16 10.895431 16 12L 16 19.21C 15.999893 19.344258 16.105849 19.45463 16.24 19.46C 16.61 19.46 17.24 19.46 17.73 19.55C 17.799696 19.555594 17.868549 19.531746 17.919853 19.484242C 17.971158 19.436738 18.000224 19.369919 18 19.3L 18 12.5C 18 12.223858 18.223858 12 18.5 12L 29.38 12C 29.512604 11.998383 29.639719 12.052862 29.73 12.15L 31.85 14.27C 31.947138 14.36028 32.001616 14.487396 32 14.62L 32 28C 32 28.276142 31.776142 28.5 31.5 28.5L 24.63 28.5C 24.509943 28.503264 24.409172 28.591439 24.39 28.71C 24.30636 29.207882 24.175777 29.696729 24 30.17C 23.970233 30.243572 23.978763 30.327103 24.022788 30.39314C 24.066812 30.459176 24.140637 30.499178 24.219999 30.499999L 32 30.5C 33.104569 30.5 34 29.604569 34 28.5L 34 14.42C 34.000422 13.886955 33.788039 13.375796 33.41 13ZM 16.5 21C 12.910149 21.000001 10 23.91015 10 27.5C 10.000001 31.089851 12.91015 34 16.5 34C 20.089851 34 23 31.089851 23 27.500001C 22.994493 23.912433 20.087568 21.005507 16.5 21ZM 19.77 26.21L 16.87 30.08C 16.609334 30.431946 16.207028 30.651385 15.77 30.680001L 15.67 30.68C 15.272309 30.679651 14.891035 30.521386 14.61 30.240001L 13.11 28.74C 12.834641 28.444491 12.842766 27.983991 13.128378 27.698378C 13.41399 27.412766 13.87449 27.404641 14.17 27.680001L 15.47 29C 15.517381 29.052129 15.584556 29.081848 15.655 29.081848C 15.725444 29.081848 15.792619 29.052129 15.84 29L 18.57 25.36C 18.818528 25.02863 19.288629 24.961472 19.62 25.21C 19.951371 25.458529 20.018528 25.92863 19.77 26.26Z"></path></g></g></g><g id="g-root-ic_1_1urrxbg1wl7eoe-fill" data-item-order="-576" transform="translate(766.9409790039062, 327)"><g id="ic_1_1urrxbg1wl7eoe-fill" stroke="none" fill="#fff0fc"><g><path d="M 32 31L 12 31C 11.723858 31 11.5 31.223858 11.5 31.5C 11.5 32.880712 12.619288 34 14 34L 30 34C 31.380712 34 32.5 32.880712 32.5 31.5C 32.5 31.223858 32.276142 31 32 31ZM 29.5 23.5L 26.5 23.5C 25.64 23.5 24.5 23.24 24.5 21C 24.577503 19.990555 24.98515 19.034694 25.66 18.28C 26.461512 17.367662 26.933405 16.212579 27 15C 27 12.238576 24.761424 10 22 10C 19.238576 10 17 12.238576 17 15C 17.066594 16.212579 17.538488 17.367662 18.34 18.28C 19.01485 19.034694 19.422497 19.990555 19.5 21C 19.5 23.24 18.36 23.5 17.5 23.5L 14.5 23.5C 12.017 23.5055 10.005499 25.517001 10 28.000001C 10 28.828428 10.671573 29.500001 11.5 29.500001L 32.5 29.5C 33.328428 29.500001 34.000001 28.828428 34.000001 28.000001C 33.994501 25.517001 31.983001 23.5055 29.500001 23.500001Z"></path></g></g></g><g id="g-root-ic_docs_hydrvw1wld1c5-fill" data-item-order="-576" transform="translate(197.94097900390625, 219)"><g id="ic_docs_hydrvw1wld1c5-fill" stroke="none" fill="#fff0fc"><g><path d="M 10 10M 31.85 16.65L 25.35 10.15C 25.25972 10.052862 25.132604 9.998383 25 10L 14.5 10C 13.119288 10 12 11.119288 12 12.5L 12 31.5C 12 32.880712 13.119288 34 14.5 34L 29.5 34C 30.880712 34 32 32.880712 32 31.5L 32 17C 32.001616 16.867396 31.947138 16.74028 31.85 16.65ZM 17 27.46C 16.685207 27.420102 16.449215 27.152312 16.449215 26.835C 16.449215 26.517688 16.685207 26.249898 17 26.21L 27 26.21C 27.314793 26.249898 27.550785 26.517688 27.550785 26.835C 27.550785 27.152312 27.314793 27.420102 27 27.46ZM 22.62 30C 22.62 30.342417 22.342417 30.62 22 30.62L 17 30.62C 16.657584 30.62 16.38 30.342417 16.38 30C 16.38 29.657584 16.657584 29.38 17 29.38L 22 29.38C 22.342417 29.38 22.62 29.657584 22.62 30ZM 27 24.29L 17 24.29C 16.643776 24.29 16.355 24.001223 16.355 23.645C 16.355 23.288776 16.643776 23 17 23L 27 23C 27.314793 23.039898 27.550785 23.307688 27.550785 23.625C 27.550785 23.942312 27.314793 24.210102 27 24.25ZM 27 21.12L 17 21.12C 16.657584 21.12 16.38 20.842417 16.38 20.5C 16.38 20.157584 16.657584 19.88 17 19.88L 27 19.88C 27.342417 19.88 27.62 20.157584 27.62 20.5C 27.62 20.842417 27.342417 21.12 27 21.12ZM 25.4 17.5C 24.902944 17.5 24.5 17.097056 24.5 16.6L 24.5 11.66L 30.34 17.5Z"></path></g></g></g><g id="g-root-ic_2_958nzg1wllerl-fill" data-item-order="-576" transform="translate(450.9410400390625, 207)"><g id="ic_2_958nzg1wllerl-fill" stroke="none" fill="#fff0fc"><g><path d="M 17.25 15.75L 25.25 15.75L 25.25 10L 13.5 10C 12.395431 10 11.5 10.895431 11.5 12L 11.5 26.75L 17.25 26.75ZM 18.75 28.25L 25.25 28.25L 25.25 34L 18.75 34ZM 11.5 32C 11.5 33.104569 12.395431 34 13.5 34L 17.25 34L 17.25 28.25L 11.5 28.25ZM 26.75 17.25L 32.5 17.25L 32.5 26.75L 26.75 26.75ZM 10 10M 26.75 10L 26.75 15.75L 32.5 15.75L 26.75 10ZM 26.75 34L 30.5 34C 31.604569 34 32.5 33.104569 32.5 32L 32.5 28.25L 26.75 28.25Z"></path></g></g></g><g id="g-root-ic_dete_mcyezw1wl7evh-fill" data-item-order="-576" transform="translate(703.9409790039062, 208)"><g id="ic_dete_mcyezw1wl7evh-fill" stroke="none" fill="#fff0fc"><g><path d="M 25.744 21.893L 33.194 21.893C 33.628 21.893 34.252 21.511 33.894 20.793L 28.894 10.793C 28.694 10.493 28.394 10.293 28.094 10.293L 28.086 10.293C 28.012526 10.293234 27.939578 10.305392 27.87 10.329C 27.65 10.399 27.443 10.569 27.293 10.793L 23.756 17.868L 22.293 20.793C 21.935 21.511 22.559 21.893 22.993 21.893L 25.744 21.893ZM 22.72 17.144C 22.116875 16.811159 21.457497 16.592496 20.775 16.499L 20.775 21.425L 20.95 21.425L 20.948 21.403C 20.909226 20.99959 20.988066 20.593581 21.175 20.234L 22.72 17.144ZM 21.626 22.65C 22.011872 22.96584 22.49436 23.139846 22.993 23.143L 25.661 23.143C 25.23 25.539 23.269 27.484 20.775 27.804L 20.775 22.675L 21.45 22.675C 21.509544 22.674894 21.568782 22.66648 21.626 22.65ZM 19.525 16.476L 19.525 21.425L 14.399 21.425C 14.747 18.845 16.921 16.729 19.525 16.475ZM 19.525 22.675L 14.375 22.675C 14.626 25.346 16.774 27.572 19.525 27.826L 19.525 22.675ZM 20.05 29.85C 17.208 29.85 14.683 31.01 12.796 32.896C 12.652623 33.039014 12.60967 33.254389 12.687216 33.441463C 12.764762 33.628537 12.947491 33.750362 13.15 33.75L 26.95 33.75C 27.152509 33.750362 27.335238 33.628537 27.412784 33.441463C 27.49033 33.254389 27.447377 33.039014 27.304 32.896C 25.417 31.01 22.892 29.85 20.05 29.85ZM 28.562 17.394L 28.912 14.794C 28.988 14.231 28.562 13.804 28.094 13.804C 27.626 13.804 27.2 14.231 27.275 14.794L 27.625 17.394C 27.625 17.594 27.86 17.794 28.094 17.794C 28.328 17.794 28.562 17.594 28.562 17.394ZM 28.722 18.764C 28.556323 18.594911 28.330696 18.497906 28.094 18.494C 27.857304 18.497906 27.631678 18.594911 27.466 18.764C 27.295692 18.929839 27.19791 19.15632 27.194 19.394C 27.198434 19.630984 27.296176 19.856651 27.466 20.022C 27.631514 20.191457 27.857161 20.28883 28.094 20.293C 28.331188 20.289092 28.557242 20.191699 28.723 20.022C 28.892699 19.856242 28.990092 19.630188 28.994 19.393C 28.98983 19.156161 28.892457 18.930514 28.723 18.765ZM 12.008 18.95L 12.008 15.75L 15.208 15.75C 15.760285 15.75 16.208 15.302285 16.208 14.75C 16.208 14.197715 15.760285 13.75 15.208 13.75L 12.008 13.75C 11.481 13.75 10.964 13.93 10.576 14.318C 10.188 14.706 10.008 15.223 10.008 15.75L 10.008 18.95C 10.008 19.502285 10.455715 19.95 11.008 19.95C 11.560285 19.95 12.008 19.502285 12.008 18.95ZM 12.008 24.45C 12.008 23.897715 11.560285 23.45 11.008 23.45C 10.455715 23.45 10.008 23.897715 10.008 24.45L 10.008 27.65C 10.008 28.177 10.188 28.694 10.576 29.082C 10.964 29.47 11.481 29.65 12.008 29.65L 15.208 29.65C 15.760285 29.65 16.208 29.202285 16.208 28.65C 16.208 28.097715 15.760285 27.65 15.208 27.65L 12.008 27.65L 12.008 24.45ZM 29.394 23.45C 29.946285 23.45 30.394 23.897715 30.394 24.45L 30.394 27.65C 30.394 28.177 30.214 28.694 29.826 29.082C 29.438 29.47 28.921 29.65 28.394 29.65L 25.094 29.65C 24.541715 29.65 24.094 29.202285 24.094 28.65C 24.094 28.097715 24.541715 27.65 25.094 27.65L 28.394 27.65L 28.394 24.45C 28.394 23.897715 28.841715 23.45 29.394 23.45Z"></path></g></g></g><g id="g-root-ic_code_1qf2mb01wlk002-fill" data-item-order="-576" transform="translate(71.94100952148438, 235)"><g id="ic_code_1qf2mb01wlk002-fill" stroke="none" fill="#fff0fc"><g><path d="M 19.955 11.593C 19.94 11.608 19.9 11.658 19.9 11.788L 19.9 15.794C 19.55914 15.27005 19.015767 14.911424 18.4 14.804L 18.4 11.787C 18.4 11.317 18.56 10.866 18.895 10.531C 19.229 10.197 19.68 10.037 20.15 10.037L 29.75 10.037C 29.955 10.037 30.163 10.084 30.325 10.137C 30.453 10.18 30.672 10.266 30.847 10.424L 33.23 12.41C 33.248 12.425 33.264 12.44 33.28 12.456C 33.529 12.705 33.9 13.187 33.9 13.786L 33.9 26.286C 33.9 26.756 33.74 27.207 33.405 27.542C 33.071 27.876 32.62 28.037 32.15 28.037L 21.32 28.037C 21.726 27.591 22.07 27.087 22.339 26.537L 32.15 26.537C 32.28 26.537 32.33 26.497 32.345 26.481C 32.36 26.466 32.4 26.416 32.4 26.287L 32.4 13.79C 32.393615 13.761029 32.382463 13.733319 32.367 13.708C 32.331863 13.646296 32.289203 13.589193 32.239999 13.538L 29.88 11.572C 29.838403 11.55464 29.794689 11.542871 29.75 11.537L 29.747 11.537L 20.15 11.537C 20.02 11.537 19.97 11.577 19.955 11.592ZM 27.835 14.293C 27.993084 13.916814 27.821408 13.483269 27.448637 13.317291C 27.075867 13.151313 26.6388 13.313811 26.465 13.683L 24.465 18.183C 24.349269 18.42884 24.375555 18.718049 24.533714 18.938994C 24.691873 19.15994 24.957164 19.278062 25.227189 19.247768C 25.497213 19.217473 25.729734 19.0435 25.835 18.793L 27.835 14.293ZM 23.68 14.457C 23.972454 14.749818 23.972454 15.224183 23.68 15.517L 22.71 16.487L 23.68 17.457C 23.95536 17.75251 23.947235 18.21301 23.661623 18.498622C 23.37601 18.784235 22.91551 18.79236 22.62 18.517L 21.12 17.017C 20.827547 16.724183 20.827547 16.249818 21.12 15.957L 22.62 14.457C 22.912818 14.164547 23.387183 14.164547 23.68 14.457ZM 28.62 14.457C 28.912818 14.164547 29.387183 14.164547 29.680001 14.457L 31.18 15.957C 31.472454 16.249818 31.472454 16.724183 31.180001 17.017L 29.68 18.517C 29.384491 18.79236 28.923991 18.784235 28.638378 18.498622C 28.352766 18.21301 28.344641 17.75251 28.620001 17.457L 29.59 16.487L 28.62 15.517C 28.327547 15.224183 28.327547 14.749818 28.620001 14.457ZM 22.687 33.913C 21.827 31.428 19.438 29.612 16.667 29.612C 13.895 29.612 11.41 31.428 10.55 33.912L 22.687 33.912ZM 16.572 28.61C 14.284 28.61 12.385 27.01 11.821 24.904L 13.941 24.904C 14.42 25.913 15.431 26.61 16.571 26.61C 17.781 26.61 18.79 25.922 19.239 24.904L 21.344 24.904C 20.815 27.054 18.903 28.61 16.572 28.61ZM 17.264 17.013C 17.222476 16.475989 16.763089 16.068341 16.22495 16.090977C 15.686812 16.113613 15.26328 16.558399 15.267 17.097L 15.267 17.493C 13.413 18.046 12.045 19.744 11.91 21.736L 11.316 21.736C 10.763715 21.736 10.316 22.183715 10.316 22.736C 10.316 23.288285 10.763715 23.736 11.316 23.736L 21.828 23.736C 22.380285 23.736 22.828 23.288285 22.828 22.736C 22.828 22.183715 22.380285 21.736 21.828 21.736L 21.235 21.736C 21.167617 20.087277 20.225642 18.599788 18.764 17.834L 18.764 19.386C 18.764 19.800214 18.428214 20.136 18.014 20.136C 17.599787 20.136 17.264 19.800214 17.264 19.386L 17.264 17.014Z"></path></g></g></g><g id="g-root-ic_chec_58fak1wl7cp0-fill" data-item-order="-576" transform="translate(640.9409790039062, 341)"><g id="ic_chec_58fak1wl7cp0-fill" stroke="none" fill="#fff0fc"><g><path d="M 17.41 22.53L 16 24.25C 15.975415 24.276317 15.941014 24.291258 15.905 24.291258C 15.868985 24.291258 15.834584 24.276317 15.81 24.249999L 15 23.47C 14.830712 23.208898 14.517775 23.079454 14.213506 23.144673C 13.909237 23.209892 13.676847 23.456226 13.629448 23.763775C 13.582048 24.071324 13.729487 24.376196 14 24.53L 15.47 26C 15.610518 26.140693 15.801155 26.219825 16 26.22C 16.219225 26.23542 16.434392 26.155188 16.59 26L 18.59 23.5C 18.84962 23.174154 18.795911 22.699536 18.470042 22.439946C 18.144173 22.180355 17.669561 22.234107 17.41 22.56ZM 18.47 16.91C 18.149402 16.651869 17.682488 16.691513 17.41 17L 16 18.75C 15.975415 18.776318 15.941014 18.791258 15.905 18.791258C 15.868985 18.791258 15.834584 18.776318 15.81 18.749999L 15 18C 14.713194 17.863024 14.371192 17.921702 14.146447 18.146447C 13.921702 18.371192 13.863024 18.713194 14 19L 15.5 20.5C 15.640518 20.640693 15.831155 20.719825 16.03 20.72L 16 20.72C 16.214684 20.708657 16.41452 20.606922 16.55 20.44L 18.55 17.94C 18.806353 17.613232 18.752914 17.14119 18.43 16.88ZM 23.75 19.5C 23.75 19.085787 23.414214 18.75 23 18.75L 20.5 18.75C 20.085787 18.75 19.75 19.085787 19.75 19.5C 19.75 19.914214 20.085787 20.25 20.5 20.25L 23 20.25C 23.414214 20.25 23.75 19.914214 23.75 19.5ZM 20.5 24.25C 20.085787 24.25 19.75 24.585787 19.75 25C 19.75 25.414214 20.085787 25.75 20.5 25.75L 23 25.75C 23.414214 25.75 23.75 25.414214 23.75 25C 23.75 24.585787 23.414214 24.25 23 24.25ZM 29.71 15.71L 24.29 10.29C 24.103739 10.105256 23.85234 10.001105 23.59 10L 12 10C 10.895431 10 10 10.895431 10 12L 10 32C 10 33.104569 10.895431 34 12 34L 25 34C 25.276142 34 25.5 33.776142 25.5 33.5L 25.5 32.5C 25.5 32.223858 25.276142 32 25 32L 12.5 32C 12.223858 32 12 31.776142 12 31.5L 12 12.5C 12 12.223858 12.223858 12 12.5 12L 22.75 12C 22.888071 12 23 12.111929 23 12.25L 23 15C 23 16.104569 23.895431 17 25 17L 27.75 17C 27.888071 17 28 17.111929 28 17.25L 28 22.5L 30 22.5L 30 16.41C 29.998895 16.14766 29.894744 15.896261 29.71 15.71ZM 24 27.71L 24 30.28C 23.999958 30.635115 24.284926 30.924536 24.64 30.93L 26.57 30.93C 26.846142 30.93 27.07 31.153858 27.07 31.43L 27.07 33.36C 27.07 33.713462 27.356537 33.999999 27.71 33.999999L 30.29 34C 30.643462 33.999999 30.93 33.713462 30.93 33.359999L 30.93 31.43C 30.93 31.153858 31.153858 30.93 31.43 30.93L 33.36 30.93C 33.713462 30.93 33.999999 30.643462 33.999999 30.29L 34 27.71C 33.999999 27.356537 33.713462 27.07 33.359999 27.07L 31.43 27.07C 31.153858 27.07 30.93 26.846142 30.93 26.57L 30.93 24.64C 30.93 24.286537 30.643462 24 30.29 24L 27.71 24C 27.356537 24 27.07 24.286537 27.07 24.64L 27.07 26.57C 27.07 26.846142 26.846142 27.07 26.57 27.07L 24.64 27.07C 24.286537 27.07 24 27.356537 24 27.71Z"></path></g></g></g><g id="g-root-ic_sear_m8l08c1wlilu7-fill" data-item-order="-576" transform="translate(324.9410095214844, 236)"><g id="ic_sear_m8l08c1wlilu7-fill" stroke="none" fill="#fff0fc"><g><path d="M 10 20.78C 10.011007 26.718018 14.821981 31.528993 20.76 31.539999C 22.978005 31.533135 25.138524 30.833938 26.94 29.54C 27.134127 29.400922 27.400241 29.422043 27.57 29.59L 31.5 33.52C 31.766028 33.786016 32.123924 33.939911 32.5 33.95C 32.875636 33.937914 33.232827 33.784322 33.500001 33.520001C 34.06934 32.943547 34.06934 32.016454 33.500001 31.440001L 29.57 27.51C 29.398888 27.342805 29.373524 27.076489 29.51 26.88C 30.773351 25.085623 31.450965 22.944503 31.45 20.75C 30.990429 15.162486 26.317542 10.864199 20.711164 10.87204C 15.104787 10.879881 10.443941 15.191222 10 20.780001ZM 20.76 12C 24.324682 11.983806 27.547004 14.119726 28.920516 17.409207C 30.294027 20.698687 29.547369 24.491841 27.029609 27.01535C 24.511848 29.538859 20.720407 30.294165 17.427802 28.928159C 14.135198 27.562153 11.991935 24.34471 12 20.780001C 12.016385 15.945537 15.925587 12.02741 20.76 12ZM 24 23.1C 23.681542 23.351913 23.547028 23.771383 23.659597 24.161515C 23.772166 24.551648 24.109466 24.834981 24.513174 24.87852C 24.916881 24.922059 25.306837 24.71716 25.5 24.36L 27.95 21.42C 28.2425 21.054667 28.2425 20.535333 27.95 20.17L 25.48 17.24C 25.298206 16.863819 24.901702 16.640309 24.485742 16.679535C 24.069783 16.71876 23.722051 17.012452 23.613785 17.415985C 23.505518 17.819519 23.659538 18.247829 24 18.49L 25.79 20.64C 25.870098 20.727811 25.870098 20.862189 25.79 20.95ZM 16.91 24.71C 17.283393 24.694405 17.616931 24.471905 17.774741 24.13314C 17.93255 23.794375 17.888294 23.395884 17.66 23.1L 15.87 21C 15.789902 20.912189 15.789902 20.777811 15.87 20.69L 17.66 18.49C 17.994208 18.069705 17.936818 17.460488 17.53 17.11C 17.111382 16.782263 16.509503 16.839376 16.16 17.24L 13.71 20.17C 13.4175 20.535333 13.4175 21.054667 13.71 21.42L 16.16 24.36C 16.347724 24.579503 16.621186 24.707118 16.91 24.71ZM 19.5 24.32C 19.608998 24.359561 19.724045 24.379864 19.84 24.38C 20.246152 24.376325 20.609734 24.12735 20.76 23.75L 22.76 18.53C 22.937841 18.025137 22.686599 17.469759 22.19 17.27C 21.685137 17.092159 21.129759 17.343401 20.93 17.84L 18.93 23.06C 18.752159 23.564863 19.003401 24.120241 19.5 24.32Z"></path></g></g></g><g id="g-root-ic_sear_1hi6r1o1wllfk8-fill" data-item-order="-576" transform="translate(387.9410095214844, 363)"><g id="ic_sear_1hi6r1o1wllfk8-fill" stroke="none" fill="#fff0fc"><g><path d="M 33.11 24C 32.713968 24.002623 32.326621 23.883976 31.999999 23.66L 32 25.5C 32 25.776142 31.776142 26 31.5 26L 12.5 26C 12.223858 26 12 25.776142 12 25.5L 12 12.59C 11.976918 12.289576 12.199858 12.026507 12.5 12L 20.55 12C 20.998621 11.232513 21.585123 10.554475 22.28 10L 12.5 10C 11.09553 10.027367 9.977698 11.185441 10 12.59L 10 27.5C 10 29.156855 11.343146 30.500001 13 30.500001L 20.25 30.5C 20.388071 30.5 20.5 30.611929 20.5 30.75L 20.5 31.75C 20.5 31.888071 20.388071 32 20.25 32L 15 32C 14.447715 32 14 32.447715 14 33C 14 33.552285 14.447715 34 15 34L 29 34C 29.552285 34 30 33.552285 30 33C 30 32.447715 29.552285 32 29 32L 22.75 32C 22.611929 32 22.5 31.888071 22.5 31.75L 22.5 30.75C 22.5 30.611929 22.611929 30.5 22.75 30.5L 31 30.5C 32.656855 30.500001 34.000001 29.156855 34.000001 27.500001L 34 23.79C 33.723532 23.927792 33.418903 23.99967 33.11 24ZM 10 10M 19.61 15.5L 19.61 15.1C 19.364871 15.036937 19.113089 15.003367 18.86 15C 18.519044 14.994631 18.180028 15.052264 17.86 15.17C 17.784785 15.209131 17.695214 15.209131 17.62 15.17C 17.284282 14.875384 17.097324 14.446481 17.11 14C 17.11 13.585787 16.774214 13.25 16.36 13.25C 15.945787 13.25 15.61 13.585787 15.61 14C 15.614411 14.740055 15.892211 15.452363 16.39 16C 16.465687 16.089474 16.465687 16.220526 16.39 16.31C 16.087934 16.734925 15.901819 17.231233 15.85 17.75C 15.8427 17.82075 15.868544 17.890897 15.92 17.94C 15.973224 17.990853 16.047573 18.013158 16.12 18L 20.12 18C 19.796957 17.205347 19.624035 16.357691 19.61 15.5ZM 24.1 23.39C 23.8495 22.303336 22.954494 21.483907 21.850001 21.330001L 21.85 20.63C 21.414542 20.2262 21.031543 19.769288 20.71 19.27L 16.61 19.27C 15.35 19.27 15.13 18.54 15.1 18.38C 15.019271 17.9781 14.634356 17.71264 14.23 17.78C 13.825474 17.85126 13.553528 18.23466 13.62 18.64C 13.863973 19.726629 14.756783 20.547695 15.86 20.7L 15.86 21.33C 14.75423 21.481188 13.857905 22.301823 13.61 23.39C 13.54307 23.792083 13.809531 24.17401 14.21 24.25L 14.35 24.25C 14.705636 24.244911 15.011511 23.996904 15.09 23.65C 15.2114 23.186223 15.612229 22.849527 16.09 22.81C 16.539137 23.961746 17.64878 24.720058 18.885 24.720058C 20.121221 24.720058 21.230864 23.961746 21.68 22.81C 22.149381 22.861653 22.542769 23.188165 22.68 23.64C 22.746875 23.996912 23.056892 24.256655 23.42 24.26L 23.54 24.26C 23.925723 24.161437 24.170015 23.781912 24.1 23.39ZM 33.71 21.29L 31 18.62C 32.624446 16.281032 32.194862 13.088911 30.009868 11.262604C 27.824874 9.436297 24.607178 9.579872 22.593525 11.593525C 20.579872 13.607178 20.436297 16.824873 22.262604 19.009867C 24.088911 21.194861 27.281032 21.624446 29.620001 20L 32.29 22.68C 32.477767 22.869313 32.733362 22.975798 33 22.975798C 33.266638 22.975798 33.522233 22.869313 33.71 22.68C 34.084654 22.292403 34.084654 21.677597 33.71 21.29ZM 23 15.5C 23.000001 13.567004 24.567004 12 26.500001 12C 28.432997 12 30.000001 13.567004 30.000001 15.5C 30.000001 17.432997 28.432997 19 26.500001 19C 24.567004 19 23 17.432997 23.000001 15.5Z"></path></g></g></g><g id="g-root-tx_testingt_zqwtpo1wlbls8-fill" data-item-order="0" transform="translate(542, 152)"><g id="tx_testingt_zqwtpo1wlbls8-fill" stroke="none" fill="#fff0fc"><g><text style="font-style: normal; font-variant-caps: normal; font-weight: normal; font-width: normal; font-size: 10px; line-height: normal; font-family: &quot;DM Mono Regular&quot;, monospace; font-size-adjust: none; font-kerning: auto; font-variant-alternates: normal; font-variant-ligatures: normal; font-variant-numeric: normal; font-variant-east-asian: normal; font-variant-position: normal; font-variant-emoji: normal; font-feature-settings: normal; font-optical-sizing: auto; font-variation-settings: normal; white-space: pre;"><tspan x="22" y="22" dominant-baseline="ideographic">Testing the </tspan><tspan x="16" y="34" dominant-baseline="ideographic">application's </tspan><tspan x="16" y="46" dominant-baseline="ideographic">functionality</tspan></text></g></g></g><g id="g-root-tx_reviewin_qs5g181wlbm6c-fill" data-item-order="0" transform="translate(290, 146)"><g id="tx_reviewin_qs5g181wlbm6c-fill" stroke="none" fill="#fff0fc"><g><text style="font-style: normal; font-variant-caps: normal; font-weight: normal; font-width: normal; font-size: 10px; line-height: normal; font-family: &quot;DM Mono Regular&quot;, monospace; font-size-adjust: none; font-kerning: auto; font-variant-alternates: normal; font-variant-ligatures: normal; font-variant-numeric: normal; font-variant-east-asian: normal; font-variant-position: normal; font-variant-emoji: normal; font-feature-settings: normal; font-optical-sizing: auto; font-variation-settings: normal; white-space: pre;"><tspan x="16" y="22" dominant-baseline="ideographic">Reviewing the </tspan><tspan x="31" y="34" dominant-baseline="ideographic">code for </tspan><tspan x="34" y="46" dominant-baseline="ideographic">quality</tspan></text></g></g></g><g id="g-root-tx_decision_1d3ma981wlbmde-fill" data-item-order="0" transform="translate(668, 128)"><g id="tx_decision_1d3ma981wlbmde-fill" stroke="none" fill="#fff0fc"><g><text style="font-style: normal; font-variant-caps: normal; font-weight: normal; font-width: normal; font-size: 10px; line-height: normal; font-family: &quot;DM Mono Regular&quot;, monospace; font-size-adjust: none; font-kerning: auto; font-variant-alternates: normal; font-variant-ligatures: normal; font-variant-numeric: normal; font-variant-east-asian: normal; font-variant-position: normal; font-variant-emoji: normal; font-feature-settings: normal; font-optical-sizing: auto; font-variation-settings: normal; white-space: pre;"><tspan x="14" y="22" dominant-baseline="ideographic">Decision point </tspan><tspan x="23" y="34" dominant-baseline="ideographic">for defects</tspan></text></g></g></g><g id="g-root-tx_updating_v9udf01wlbkee-fill" data-item-order="0" transform="translate(416, 128)"><g id="tx_updating_v9udf01wlbkee-fill" stroke="none" fill="#fff0fc"><g><text style="font-style: normal; font-variant-caps: normal; font-weight: normal; font-width: normal; font-size: 10px; line-height: normal; font-family: &quot;DM Mono Regular&quot;, monospace; font-size-adjust: none; font-kerning: auto; font-variant-alternates: normal; font-variant-ligatures: normal; font-variant-numeric: normal; font-variant-east-asian: normal; font-variant-position: normal; font-variant-emoji: normal; font-feature-settings: normal; font-optical-sizing: auto; font-variation-settings: normal; white-space: pre;"><tspan x="20.5" y="22" dominant-baseline="ideographic">Updating the </tspan><tspan x="17.5" y="34" dominant-baseline="ideographic">documentation</tspan></text></g></g></g><g id="g-root-tx_creating_zlx10s1wlbmde-fill" data-item-order="0" transform="translate(176, 128)"><g id="tx_creating_zlx10s1wlbmde-fill" stroke="none" fill="#fff0fc"><g><text style="font-style: normal; font-variant-caps: normal; font-weight: normal; font-width: normal; font-size: 10px; line-height: normal; font-family: &quot;DM Mono Regular&quot;, monospace; font-size-adjust: none; font-kerning: auto; font-variant-alternates: normal; font-variant-ligatures: normal; font-variant-numeric: normal; font-variant-east-asian: normal; font-variant-position: normal; font-variant-emoji: normal; font-feature-settings: normal; font-optical-sizing: auto; font-variation-settings: normal; white-space: pre;"><tspan x="28" y="22" dominant-baseline="ideographic">Creating </tspan><tspan x="31" y="34" dominant-baseline="ideographic">initial </tspan><tspan x="13" y="46" dominant-baseline="ideographic">documentation</tspan></text></g></g></g><g id="g-root-tx_starting_zko2uk1wlbk7c-fill" data-item-order="0" transform="translate(38, 140)"><g id="tx_starting_zko2uk1wlbk7c-fill" stroke="none" fill="#fff0fc"><g><text style="font-style: normal; font-variant-caps: normal; font-weight: normal; font-width: normal; font-size: 10px; line-height: normal; font-family: &quot;DM Mono Regular&quot;, monospace; font-size-adjust: none; font-kerning: auto; font-variant-alternates: normal; font-variant-ligatures: normal; font-variant-numeric: normal; font-variant-east-asian: normal; font-variant-position: normal; font-variant-emoji: normal; font-feature-settings: normal; font-optical-sizing: auto; font-variation-settings: normal; white-space: pre;"><tspan x="13" y="22" dominant-baseline="ideographic">Starting the </tspan><tspan x="16" y="34" dominant-baseline="ideographic">development </tspan><tspan x="28" y="46" dominant-baseline="ideographic">process</tspan></text></g></g></g><g id="g-root-tx_defects_94ma241wlbls9-fill" data-item-order="0" transform="translate(680, 98)"><g id="tx_defects_94ma241wlbls9-fill" stroke="none" fill="#fff0fc"><g><text style="font-style: normal; font-variant-caps: normal; font-weight: bold; font-width: normal; font-size: 15px; line-height: normal; font-family: &quot;DM Mono Regular&quot;, monospace; font-size-adjust: none; font-kerning: auto; font-variant-alternates: normal; font-variant-ligatures: normal; font-variant-numeric: normal; font-variant-east-asian: normal; font-variant-position: normal; font-variant-emoji: normal; font-feature-settings: normal; font-optical-sizing: auto; font-variation-settings: normal; white-space: pre;"><tspan x="14.17" y="32" dominant-baseline="ideographic">Defects?</tspan></text></g></g></g><g id="g-root-tx_coderevi_1upwi241wlbklf-fill" data-item-order="0" transform="translate(314, 104)"><g id="tx_coderevi_1upwi241wlbklf-fill" stroke="none" fill="#fff0fc"><g><text style="font-style: normal; font-variant-caps: normal; font-weight: bold; font-width: normal; font-size: 15px; line-height: normal; font-family: &quot;DM Mono Regular&quot;, monospace; font-size-adjust: none; font-kerning: auto; font-variant-alternates: normal; font-variant-ligatures: normal; font-variant-numeric: normal; font-variant-east-asian: normal; font-variant-position: normal; font-variant-emoji: normal; font-feature-settings: normal; font-optical-sizing: auto; font-variation-settings: normal; white-space: pre;"><tspan x="27.38" y="29" dominant-baseline="ideographic">Code </tspan><tspan x="17.38" y="47" dominant-baseline="ideographic">Review</tspan></text></g></g></g><g id="g-root-tx_clickthr_1ut0vho1wlbkzz-fill" data-item-order="0" transform="translate(554, 86)"><g id="tx_clickthr_1ut0vho1wlbkzz-fill" stroke="none" fill="#fff0fc"><g><text style="font-style: normal; font-variant-caps: normal; font-weight: bold; font-width: normal; font-size: 15px; line-height: normal; font-family: &quot;DM Mono Regular&quot;, monospace; font-size-adjust: none; font-kerning: auto; font-variant-alternates: normal; font-variant-ligatures: normal; font-variant-numeric: normal; font-variant-east-asian: normal; font-variant-position: normal; font-variant-emoji: normal; font-feature-settings: normal; font-optical-sizing: auto; font-variation-settings: normal; white-space: pre;"><tspan x="18.32" y="32" dominant-baseline="ideographic">Click-</tspan><tspan x="14.32" y="50" dominant-baseline="ideographic">through </tspan><tspan x="14.32" y="68" dominant-baseline="ideographic">Testing</tspan></text></g></g></g><g id="g-root-tx_docupdat_1lw4x2k1wlbked-fill" data-item-order="0" transform="translate(440, 86)"><g id="tx_docupdat_1lw4x2k1wlbked-fill" stroke="none" fill="#fff0fc"><g><text style="font-style: normal; font-variant-caps: normal; font-weight: bold; font-width: normal; font-size: 15px; line-height: normal; font-family: &quot;DM Mono Regular&quot;, monospace; font-size-adjust: none; font-kerning: auto; font-variant-alternates: normal; font-variant-ligatures: normal; font-variant-numeric: normal; font-variant-east-asian: normal; font-variant-position: normal; font-variant-emoji: normal; font-feature-settings: normal; font-optical-sizing: auto; font-variation-settings: normal; white-space: pre;"><tspan x="31.02" y="29" dominant-baseline="ideographic">Doc </tspan><tspan x="13.02" y="47" dominant-baseline="ideographic">Updates</tspan></text></g></g></g><g id="g-root-tx_docscrea_1uo12ss1wlbll5-fill" data-item-order="0" transform="translate(176, 86)"><g id="tx_docscrea_1uo12ss1wlbll5-fill" stroke="none" fill="#fff0fc"><g><text style="font-style: normal; font-variant-caps: normal; font-weight: bold; font-width: normal; font-size: 15px; line-height: normal; font-family: &quot;DM Mono Regular&quot;, monospace; font-size-adjust: none; font-kerning: auto; font-variant-alternates: normal; font-variant-ligatures: normal; font-variant-numeric: normal; font-variant-east-asian: normal; font-variant-position: normal; font-variant-emoji: normal; font-feature-settings: normal; font-optical-sizing: auto; font-variation-settings: normal; white-space: pre;"><tspan x="33.17" y="29" dominant-baseline="ideographic">Docs </tspan><tspan x="14.17" y="47" dominant-baseline="ideographic">Creation</tspan></text></g></g></g><g id="g-root-tx_initialb_4golt81wlblzb-fill" data-item-order="0" transform="translate(38, 98)"><g id="tx_initialb_4golt81wlblzb-fill" stroke="none" fill="#fff0fc"><g><text style="font-style: normal; font-variant-caps: normal; font-weight: bold; font-width: normal; font-size: 15px; line-height: normal; font-family: &quot;DM Mono Regular&quot;, monospace; font-size-adjust: none; font-kerning: auto; font-variant-alternates: normal; font-variant-ligatures: normal; font-variant-numeric: normal; font-variant-east-asian: normal; font-variant-position: normal; font-variant-emoji: normal; font-feature-settings: normal; font-optical-sizing: auto; font-variation-settings: normal; white-space: pre;"><tspan x="14.32" y="29" dominant-baseline="ideographic">Initial </tspan><tspan x="23.32" y="47" dominant-baseline="ideographic">Build</tspan></text></g></g></g><g id="g-root-tx_aiassist_vb359o1wlk1s1-fill" data-item-order="0" transform="translate(233, 38)"><g id="tx_aiassist_vb359o1wlk1s1-fill" stroke="none" fill="#fff0fc"><g><text style="font-style: normal; font-variant-caps: normal; font-weight: bold; font-width: normal; font-size: 20px; line-height: normal; font-family: &quot;DM Mono Regular&quot;, monospace; font-size-adjust: none; font-kerning: auto; font-variant-alternates: normal; font-variant-ligatures: normal; font-variant-numeric: normal; font-variant-east-asian: normal; font-variant-position: normal; font-variant-emoji: normal; font-feature-settings: normal; font-optical-sizing: auto; font-variation-settings: normal; white-space: pre;"><tspan x="13.06" y="35" dominant-baseline="ideographic">AI-Assisted Development Pipeline</tspan></text></g></g></g><g id="g-root-tx_refineme_v483n01wld1jh-fill" data-item-order="0" transform="translate(212, 385.99993896484375)"><g id="tx_refineme_v483n01wld1jh-fill" stroke="none" fill="#fff0fc"><g><text style="font-style: normal; font-variant-caps: normal; font-weight: bold; font-width: normal; font-size: 15px; line-height: normal; font-family: &quot;DM Mono Regular&quot;, monospace; font-size-adjust: none; font-kerning: auto; font-variant-alternates: normal; font-variant-ligatures: normal; font-variant-numeric: normal; font-variant-east-asian: normal; font-variant-position: normal; font-variant-emoji: normal; font-feature-settings: normal; font-optical-sizing: auto; font-variation-settings: normal; white-space: pre;"><tspan x="16" y="32" dominant-baseline="ideographic">Refinement </tspan><tspan x="59" y="50" dominant-baseline="ideographic">&amp; </tspan><tspan x="12" y="68" dominant-baseline="ideographic">Enhancement</tspan></text></g></g></g><g id="g-root-tx_aisurpri_m7c57w1wld0xv-fill" data-item-order="0" transform="translate(86, 409.99993896484375)"><g id="tx_aisurpri_m7c57w1wld0xv-fill" stroke="none" fill="#fff0fc"><g><text style="font-style: normal; font-variant-caps: normal; font-weight: bold; font-width: normal; font-size: 15px; line-height: normal; font-family: &quot;DM Mono Regular&quot;, monospace; font-size-adjust: none; font-kerning: auto; font-variant-alternates: normal; font-variant-ligatures: normal; font-variant-numeric: normal; font-variant-east-asian: normal; font-variant-position: normal; font-variant-emoji: normal; font-feature-settings: normal; font-optical-sizing: auto; font-variation-settings: normal; white-space: pre;"><tspan x="54.71" y="29" dominant-baseline="ideographic">AI </tspan><tspan x="16.71" y="47" dominant-baseline="ideographic">Surprises?</tspan></text></g></g></g><g id="g-root-tx_testingd_1lu9ht81wlczk1-fill" data-item-order="0" transform="translate(488, 403.99993896484375)"><g id="tx_testingd_1lu9ht81wlczk1-fill" stroke="none" fill="#fff0fc"><g><text style="font-style: normal; font-variant-caps: normal; font-weight: bold; font-width: normal; font-size: 15px; line-height: normal; font-family: &quot;DM Mono Regular&quot;, monospace; font-size-adjust: none; font-kerning: auto; font-variant-alternates: normal; font-variant-ligatures: normal; font-variant-numeric: normal; font-variant-east-asian: normal; font-variant-position: normal; font-variant-emoji: normal; font-feature-settings: normal; font-optical-sizing: auto; font-variation-settings: normal; white-space: pre;"><tspan x="16.82" y="32" dominant-baseline="ideographic">Testing </tspan><tspan x="30.82" y="50" dominant-baseline="ideographic">Docs </tspan><tspan x="11.82" y="68" dominant-baseline="ideographic">Creation</tspan></text></g></g></g><g id="g-root-tx_rubberst_92quss1wld0xx-fill" data-item-order="0" transform="translate(746, 403.99993896484375)"><g id="tx_rubberst_92quss1wld0xx-fill" stroke="none" fill="#fff0fc"><g><text style="font-style: normal; font-variant-caps: normal; font-weight: bold; font-width: normal; font-size: 15px; line-height: normal; font-family: &quot;DM Mono Regular&quot;, monospace; font-size-adjust: none; font-kerning: auto; font-variant-alternates: normal; font-variant-ligatures: normal; font-variant-numeric: normal; font-variant-east-asian: normal; font-variant-position: normal; font-variant-emoji: normal; font-feature-settings: normal; font-optical-sizing: auto; font-variation-settings: normal; white-space: pre;"><tspan x="18.31" y="29" dominant-baseline="ideographic">Rubber </tspan><tspan x="14.31" y="47" dominant-baseline="ideographic">Stamp &amp; </tspan><tspan x="14.31" y="65" dominant-baseline="ideographic">Yeet to </tspan><tspan x="28.31" y="83" dominant-baseline="ideographic">Prod</tspan></text></g></g></g><g id="g-root-tx_finalapp_1hhkd4c1wld0qu-fill" data-item-order="0" transform="translate(734, 481.99993896484375)"><g id="tx_finalapp_1hhkd4c1wld0qu-fill" stroke="none" fill="#fff0fc"><g><text style="font-style: normal; font-variant-caps: normal; font-weight: normal; font-width: normal; font-size: 10px; line-height: normal; font-family: &quot;DM Mono Regular&quot;, monospace; font-size-adjust: none; font-kerning: auto; font-variant-alternates: normal; font-variant-ligatures: normal; font-variant-numeric: normal; font-variant-east-asian: normal; font-variant-position: normal; font-variant-emoji: normal; font-feature-settings: normal; font-optical-sizing: auto; font-variation-settings: normal; white-space: pre;"><tspan x="14" y="22" dominant-baseline="ideographic">Final approval </tspan><tspan x="14" y="34" dominant-baseline="ideographic">and deployment</tspan></text></g></g></g><g id="g-root-tx_decision_1um5njg1wld0qs-fill" data-item-order="0" transform="translate(98, 451.99993896484375)"><g id="tx_decision_1um5njg1wld0qs-fill" stroke="none" fill="#fff0fc"><g><text style="font-style: normal; font-variant-caps: normal; font-weight: normal; font-width: normal; font-size: 10px; line-height: normal; font-family: &quot;DM Mono Regular&quot;, monospace; font-size-adjust: none; font-kerning: auto; font-variant-alternates: normal; font-variant-ligatures: normal; font-variant-numeric: normal; font-variant-east-asian: normal; font-variant-position: normal; font-variant-emoji: normal; font-feature-settings: normal; font-optical-sizing: auto; font-variation-settings: normal; white-space: pre;"><tspan x="14" y="22" dominant-baseline="ideographic">Decision point </tspan><tspan x="14" y="34" dominant-baseline="ideographic">for unexpected </tspan><tspan x="23" y="46" dominant-baseline="ideographic">AI outcomes</tspan></text></g></g></g><g id="g-root-tx_improvin_4hxjzg1wld1ji-fill" data-item-order="0" transform="translate(224, 451.99993896484375)"><g id="tx_improvin_4hxjzg1wld1ji-fill" stroke="none" fill="#fff0fc"><g><text style="font-style: normal; font-variant-caps: normal; font-weight: normal; font-width: normal; font-size: 10px; line-height: normal; font-family: &quot;DM Mono Regular&quot;, monospace; font-size-adjust: none; font-kerning: auto; font-variant-alternates: normal; font-variant-ligatures: normal; font-variant-numeric: normal; font-variant-east-asian: normal; font-variant-position: normal; font-variant-emoji: normal; font-feature-settings: normal; font-optical-sizing: auto; font-variation-settings: normal; white-space: pre;"><tspan x="16" y="22" dominant-baseline="ideographic">Improving and </tspan><tspan x="16" y="34" dominant-baseline="ideographic">enhancing the </tspan><tspan x="43" y="46" dominant-baseline="ideographic">code</tspan></text></g></g></g><g id="g-root-tx_security_18hk19o1wlcyyv-fill" data-item-order="0" transform="translate(350, 439.99993896484375)"><g id="tx_security_18hk19o1wlcyyv-fill" stroke="none" fill="#fff0fc"><g><text style="font-style: normal; font-variant-caps: normal; font-weight: bold; font-width: normal; font-size: 15px; line-height: normal; font-family: &quot;DM Mono Regular&quot;, monospace; font-size-adjust: none; font-kerning: auto; font-variant-alternates: normal; font-variant-ligatures: normal; font-variant-numeric: normal; font-variant-east-asian: normal; font-variant-position: normal; font-variant-emoji: normal; font-feature-settings: normal; font-optical-sizing: auto; font-variation-settings: normal; white-space: pre;"><tspan x="16" y="29" dominant-baseline="ideographic">Security </tspan><tspan x="25" y="47" dominant-baseline="ideographic">Review</tspan></text></g></g></g><g id="g-root-tx_checking_hv9hm41wlcyyw-fill" data-item-order="0" transform="translate(350, 481.99993896484375)"><g id="tx_checking_hv9hm41wlcyyw-fill" stroke="none" fill="#fff0fc"><g><text style="font-style: normal; font-variant-caps: normal; font-weight: normal; font-width: normal; font-size: 10px; line-height: normal; font-family: &quot;DM Mono Regular&quot;, monospace; font-size-adjust: none; font-kerning: auto; font-variant-alternates: normal; font-variant-ligatures: normal; font-variant-numeric: normal; font-variant-east-asian: normal; font-variant-position: normal; font-variant-emoji: normal; font-feature-settings: normal; font-optical-sizing: auto; font-variation-settings: normal; white-space: pre;"><tspan x="22" y="22" dominant-baseline="ideographic">Checking for </tspan><tspan x="34" y="34" dominant-baseline="ideographic">security </tspan><tspan x="13" y="46" dominant-baseline="ideographic">vulnerabilities</tspan></text></g></g></g><g id="g-root-tx_creating_v7yy5o1wlczk2-fill" data-item-order="0" transform="translate(488, 469.99993896484375)"><g id="tx_creating_v7yy5o1wlczk2-fill" stroke="none" fill="#fff0fc"><g><text style="font-style: normal; font-variant-caps: normal; font-weight: normal; font-width: normal; font-size: 10px; line-height: normal; font-family: &quot;DM Mono Regular&quot;, monospace; font-size-adjust: none; font-kerning: auto; font-variant-alternates: normal; font-variant-ligatures: normal; font-variant-numeric: normal; font-variant-east-asian: normal; font-variant-position: normal; font-variant-emoji: normal; font-feature-settings: normal; font-optical-sizing: auto; font-variation-settings: normal; white-space: pre;"><tspan x="28" y="22" dominant-baseline="ideographic">Creating </tspan><tspan x="31" y="34" dominant-baseline="ideographic">testing </tspan><tspan x="13" y="46" dominant-baseline="ideographic">documentation</tspan></text></g></g></g><g id="g-root-tx_updating_144uwks1wld05o-fill" data-item-order="0" transform="translate(620, 487.99993896484375)"><g id="tx_updating_144uwks1wld05o-fill" stroke="none" fill="#fff0fc"><g><text style="font-style: normal; font-variant-caps: normal; font-weight: normal; font-width: normal; font-size: 10px; line-height: normal; font-family: &quot;DM Mono Regular&quot;, monospace; font-size-adjust: none; font-kerning: auto; font-variant-alternates: normal; font-variant-ligatures: normal; font-variant-numeric: normal; font-variant-east-asian: normal; font-variant-position: normal; font-variant-emoji: normal; font-feature-settings: normal; font-optical-sizing: auto; font-variation-settings: normal; white-space: pre;"><tspan x="28" y="22" dominant-baseline="ideographic">Updating </tspan><tspan x="31" y="34" dominant-baseline="ideographic">testing </tspan><tspan x="13" y="46" dominant-baseline="ideographic">documentation</tspan></text></g></g></g><g id="g-root-tx_updatete_1ur5g8c1wld05n-fill" data-item-order="0" transform="translate(620, 421.99993896484375)"><g id="tx_updatete_1ur5g8c1wld05n-fill" stroke="none" fill="#fff0fc"><g><text style="font-style: normal; font-variant-caps: normal; font-weight: bold; font-width: normal; font-size: 15px; line-height: normal; font-family: &quot;DM Mono Regular&quot;, monospace; font-size-adjust: none; font-kerning: auto; font-variant-alternates: normal; font-variant-ligatures: normal; font-variant-numeric: normal; font-variant-east-asian: normal; font-variant-position: normal; font-variant-emoji: normal; font-feature-settings: normal; font-optical-sizing: auto; font-variation-settings: normal; white-space: pre;"><tspan x="18.32" y="32" dominant-baseline="ideographic">Update </tspan><tspan x="14.32" y="50" dominant-baseline="ideographic">Testing </tspan><tspan x="28.32" y="68" dominant-baseline="ideographic">Docs</tspan></text></g></g></g><g id="g-root-sy_-1_Vector_144uq981wlk170-stroke" data-item-order="-411143" transform="translate(52.94099426269531, 186)"><g id="sy_-1_Vector_144uq981wlk170-stroke" fill="none" stroke-linecap="round" stroke-linejoin="round" stroke-miterlimit="4" stroke="#fff0fc" stroke-width="2" stroke-dasharray="5.0, 7.0"><style>.fillAsStrokeColor-mk-m7c57w1wvmfb7 { fill:#fff0fc; }</style><g><path d="M 769.037604 63.74L 769.037604 152.17C 769.037604 152.95 769.007604 166.26 768.947604 167.03C 767.677604 183.11 753.357604 195.68 736.357604 195.68C 719.357604 195.68 705.047604 183.11 703.767604 167.04C 703.707604 166.26 703.677604 154.45 703.677604 153.67L 703.677604 40.41C 703.677604 24.42 689.967604 11.42 673.107604 11.42C 656.247604 11.42 642.527604 24.42 642.527604 40.41L 642.527604 178.14C 642.527604 195.22 627.867604 209.13 609.847604 209.13C 591.827604 209.13 577.167604 195.22 577.167604 178.14L 577.167604 73.74C 577.167604 57.75 563.457604 44.75 546.597604 44.75C 529.737604 44.75 516.027604 57.75 516.027604 73.74L 516.027604 163.99C 516.027604 181.08 501.357604 194.98 483.337604 194.98C 465.317604 194.98 450.657604 181.08 450.657604 163.99L 450.657604 38.99C 450.657604 23.01 436.947604 10 420.087604 10C 403.227604 10 389.517604 23.01 389.517604 38.99L 389.517604 200.01C 389.517604 217.1 374.857604 231 356.837604 231C 338.807604 231 324.147604 217.1 324.147604 200.01C 324.147604 199.75 324.147604 199.5 324.157604 199.24L 324.157604 68.95C 324.157604 52.96 310.437604 39.96 293.577604 39.96C 276.717604 39.96 263.007604 52.96 263.007604 68.95L 263.007604 142.58C 263.007604 159.68 248.347604 173.58 230.327604 173.58C 212.307604 173.58 197.647604 159.68 197.647604 142.58L 197.647604 52.02C 197.647604 36.04 183.937604 23.04 167.077604 23.04C 150.217604 23.04 136.497604 36.04 136.497604 52.02L 136.497604 167.58C 136.497604 184.67 121.837604 198.57 103.817604 198.57C 85.797604 198.57 71.137604 184.67 71.137604 167.58L 71.137604 66.91C 71.137604 50.93 57.427604 37.92 40.567604 37.92C 23.707604 37.92 9.997604 50.93 9.997604 66.91L 9.997604 165.42"></path><path d="M 775.497604 69.7L 768.997604 63.2L 762.497604 69.7" stroke-dasharray="none"></path><path d="M 6.999604 165.424C 6.999604 167.080859 8.34275 168.424005 9.999604 168.424005C 11.656459 168.424005 12.999604 167.080859 12.999604 165.424005C 12.999604 163.76715 11.656459 162.424005 9.999604 162.424005C 8.34275 162.424005 6.999604 163.76715 6.999604 165.424005Z" stroke-dasharray="none" class="fillAsStrokeColor-mk-m7c57w1wvmfb7"></path></g></g></g><g id="g-root-cp_1_g-1_zp184s1wlk1z9-stroke" data-item-order="-411142" transform="translate(59.941009521484375, 223)"><g id="cp_1_g-1_zp184s1wlk1z9-stroke" fill="none" stroke-linecap="round" stroke-linejoin="round" stroke-miterlimit="4" stroke="#fff0fc" stroke-width="2"><g><path d="M 10 34C 10.000001 47.254835 20.745167 58.000001 34.000001 58.000001C 47.254835 58.000001 58.000001 47.254835 58.000001 34.000001C 58.000001 20.745167 47.254835 10.000001 34.000001 10.000001C 20.745167 10.000001 10.000001 20.745167 10.000001 34.000001"></path></g></g></g><g id="g-root-cp_2_g-2_qu0oz01wljzm6-stroke" data-item-order="-411138" transform="translate(122.94100952148438, 318)"><g id="cp_2_g-2_qu0oz01wljzm6-stroke" fill="none" stroke-linecap="round" stroke-linejoin="round" stroke-miterlimit="4" stroke="#fff0fc" stroke-width="2"><g><path d="M 10 34C 10.000001 47.254835 20.745167 58.000001 34.000001 58.000001C 47.254835 58.000001 58.000001 47.254835 58.000001 34.000001C 58.000001 20.745167 47.254835 10.000001 34.000001 10.000001C 20.745167 10.000001 10.000001 20.745167 10.000001 34.000001"></path></g></g></g><g id="g-root-cp_3_g-3_me76uk1wlk0ef-stroke" data-item-order="-411134" transform="translate(185.94097900390625, 207)"><g id="cp_3_g-3_me76uk1wlk0ef-stroke" fill="none" stroke-linecap="round" stroke-linejoin="round" stroke-miterlimit="4" stroke="#fff0fc" stroke-width="2"><g><path d="M 10 34C 10.000001 47.254835 20.745167 58.000001 34.000001 58.000001C 47.254835 58.000001 58.000001 47.254835 58.000001 34.000001C 58.000001 20.745167 47.254835 10.000001 34.000001 10.000001C 20.745167 10.000001 10.000001 20.745167 10.000001 34.000001"></path></g></g></g><g id="g-root-cp_4_g-4_hydoq41wlk16o-stroke" data-item-order="-411130" transform="translate(249.94097900390625, 294)"><g id="cp_4_g-4_hydoq41wlk16o-stroke" fill="none" stroke-linecap="round" stroke-linejoin="round" stroke-miterlimit="4" stroke="#fff0fc" stroke-width="2"><g><path d="M 10 34C 10.000001 47.254835 20.745167 58.000001 34.000001 58.000001C 47.254835 58.000001 58.000001 47.254835 58.000001 34.000001C 58.000001 20.745167 47.254835 10.000001 34.000001 10.000001C 20.745167 10.000001 10.000001 20.745167 10.000001 34.000001"></path></g></g></g><g id="g-root-cp_5_g-5_hydoq41wlk16p-stroke" data-item-order="-411126" transform="translate(312.9410095214844, 224)"><g id="cp_5_g-5_hydoq41wlk16p-stroke" fill="none" stroke-linecap="round" stroke-linejoin="round" stroke-miterlimit="4" stroke="#fff0fc" stroke-width="2"><g><path d="M 10 34C 10.000001 47.254835 20.745167 58.000001 34.000001 58.000001C 47.254835 58.000001 58.000001 47.254835 58.000001 34.000001C 58.000001 20.745167 47.254835 10.000001 34.000001 10.000001C 20.745167 10.000001 10.000001 20.745167 10.000001 34.000001"></path></g></g></g><g id="g-root-cp_6_g-6_92qoh81wlk1ze-stroke" data-item-order="-411122" transform="translate(375.9410095214844, 351)"><g id="cp_6_g-6_92qoh81wlk1ze-stroke" fill="none" stroke-linecap="round" stroke-linejoin="round" stroke-miterlimit="4" stroke="#fff0fc" stroke-width="2"><g><path d="M 10 34C 10.000001 47.254835 20.745167 58.000001 34.000001 58.000001C 47.254835 58.000001 58.000001 47.254835 58.000001 34.000001C 58.000001 20.745167 47.254835 10.000001 34.000001 10.000001C 20.745167 10.000001 10.000001 20.745167 10.000001 34.000001"></path></g></g></g><g id="g-root-cp_7_g-7_4njnfw1wljzlv-stroke" data-item-order="-411118" transform="translate(438.9410400390625, 195)"><g id="cp_7_g-7_4njnfw1wljzlv-stroke" fill="none" stroke-linecap="round" stroke-linejoin="round" stroke-miterlimit="4" stroke="#fff0fc" stroke-width="2"><g><path d="M 10 34C 10.000001 47.254835 20.745167 58.000001 34.000001 58.000001C 47.254835 58.000001 58.000001 47.254835 58.000001 34.000001C 58.000001 20.745167 47.254835 10.000001 34.000001 10.000001C 20.745167 10.000001 10.000001 20.745167 10.000001 34.000001"></path></g></g></g><g id="g-root-cp_8_g-8_1ut0p641wlk07g-stroke" data-item-order="-411114" transform="translate(501.9410400390625, 315)"><g id="cp_8_g-8_1ut0p641wlk07g-stroke" fill="none" stroke-linecap="round" stroke-linejoin="round" stroke-miterlimit="4" stroke="#fff0fc" stroke-width="2"><g><path d="M 10 34C 10.000001 47.254835 20.745167 58.000001 34.000001 58.000001C 47.254835 58.000001 58.000001 47.254835 58.000001 34.000001C 58.000001 20.745167 47.254835 10.000001 34.000001 10.000001C 20.745167 10.000001 10.000001 20.745167 10.000001 34.000001"></path></g></g></g><g id="g-root-cp_9_g-9_1qd771o1wlk0zp-stroke" data-item-order="-411110" transform="translate(565.9409790039062, 229)"><g id="cp_9_g-9_1qd771o1wlk0zp-stroke" fill="none" stroke-linecap="round" stroke-linejoin="round" stroke-miterlimit="4" stroke="#fff0fc" stroke-width="2"><g><path d="M 10 34C 10.000001 47.254835 20.745167 58.000001 34.000001 58.000001C 47.254835 58.000001 58.000001 47.254835 58.000001 34.000001C 58.000001 20.745167 47.254835 10.000001 34.000001 10.000001C 20.745167 10.000001 10.000001 20.745167 10.000001 34.000001"></path></g></g></g><g id="g-root-cp_10_g-10_1hhk6ss1wlk1se-stroke" data-item-order="-411106" transform="translate(628.9409790039062, 329)"><g id="cp_10_g-10_1hhk6ss1wlk1se-stroke" fill="none" stroke-linecap="round" stroke-linejoin="round" stroke-miterlimit="4" stroke="#fff0fc" stroke-width="2"><g><path d="M 10 34C 10.000001 47.254835 20.745167 58.000001 34.000001 58.000001C 47.254835 58.000001 58.000001 47.254835 58.000001 34.000001C 58.000001 20.745167 47.254835 10.000001 34.000001 10.000001C 20.745167 10.000001 10.000001 20.745167 10.000001 34.000001"></path></g></g></g><g id="g-root-cp_11_g-11_1d1qooc1wlk2kn-stroke" data-item-order="-411102" transform="translate(691.9409790039062, 196)"><g id="cp_11_g-11_1d1qooc1wlk2kn-stroke" fill="none" stroke-linecap="round" stroke-linejoin="round" stroke-miterlimit="4" stroke="#fff0fc" stroke-width="2"><g><path d="M 10 34C 10.000001 47.254835 20.745167 58.000001 34.000001 58.000001C 47.254835 58.000001 58.000001 47.254835 58.000001 34.000001C 58.000001 20.745167 47.254835 10.000001 34.000001 10.000001C 20.745167 10.000001 10.000001 20.745167 10.000001 34.000001"></path></g></g></g><g id="g-root-cp_12_g-12_1d1qooc1wlk2ko-stroke" data-item-order="-411098" transform="translate(754.9409790039062, 315)"><g id="cp_12_g-12_1d1qooc1wlk2ko-stroke" fill="none" stroke-linecap="round" stroke-linejoin="round" stroke-miterlimit="4" stroke="#fff0fc" stroke-width="2"><g><path d="M 10 34C 10.000001 47.254835 20.745167 58.000001 34.000001 58.000001C 47.254835 58.000001 58.000001 47.254835 58.000001 34.000001C 58.000001 20.745167 47.254835 10.000001 34.000001 10.000001C 20.745167 10.000001 10.000001 20.745167 10.000001 34.000001"></path></g></g></g><g id="g-root-ic_chec_mdkw301wl37kb-stroke" data-item-order="-576" transform="translate(577.9409790039062, 241)"></g><g id="g-root-ic_2_1lqik4s1wlil1i-stroke" data-item-order="-576" transform="translate(261.94097900390625, 306)"></g><g id="g-root-ic_robo_m7bywc1wlmtjc-stroke" data-item-order="-576" transform="translate(134.94100952148438, 330)"></g><g id="g-root-ic_1_5uwdo1wl35du-stroke" data-item-order="-576" transform="translate(513.9410400390625, 327)"></g><g id="g-root-ic_1_1urrxbg1wl7eoe-stroke" data-item-order="-576" transform="translate(766.9409790039062, 327)"></g><g id="g-root-ic_docs_hydrvw1wld1c5-stroke" data-item-order="-576" transform="translate(197.94097900390625, 219)"></g><g id="g-root-ic_2_958nzg1wllerl-stroke" data-item-order="-576" transform="translate(450.9410400390625, 207)"></g><g id="g-root-ic_dete_mcyezw1wl7evh-stroke" data-item-order="-576" transform="translate(703.9409790039062, 208)"></g><g id="g-root-ic_code_1qf2mb01wlk002-stroke" data-item-order="-576" transform="translate(71.94100952148438, 235)"></g><g id="g-root-ic_chec_58fak1wl7cp0-stroke" data-item-order="-576" transform="translate(640.9409790039062, 341)"></g><g id="g-root-ic_sear_m8l08c1wlilu7-stroke" data-item-order="-576" transform="translate(324.9410095214844, 236)"></g><g id="g-root-ic_sear_1hi6r1o1wllfk8-stroke" data-item-order="-576" transform="translate(387.9410095214844, 363)"></g><g id="g-root-tx_testingt_zqwtpo1wlbls8-stroke" data-item-order="0" transform="translate(542, 152)"></g><g id="g-root-tx_reviewin_qs5g181wlbm6c-stroke" data-item-order="0" transform="translate(290, 146)"></g><g id="g-root-tx_decision_1d3ma981wlbmde-stroke" data-item-order="0" transform="translate(668, 128)"></g><g id="g-root-tx_updating_v9udf01wlbkee-stroke" data-item-order="0" transform="translate(416, 128)"></g><g id="g-root-tx_creating_zlx10s1wlbmde-stroke" data-item-order="0" transform="translate(176, 128)"></g><g id="g-root-tx_starting_zko2uk1wlbk7c-stroke" data-item-order="0" transform="translate(38, 140)"></g><g id="g-root-tx_defects_94ma241wlbls9-stroke" data-item-order="0" transform="translate(680, 98)"></g><g id="g-root-tx_coderevi_1upwi241wlbklf-stroke" data-item-order="0" transform="translate(314, 104)"></g><g id="g-root-tx_clickthr_1ut0vho1wlbkzz-stroke" data-item-order="0" transform="translate(554, 86)"></g><g id="g-root-tx_docupdat_1lw4x2k1wlbked-stroke" data-item-order="0" transform="translate(440, 86)"></g><g id="g-root-tx_docscrea_1uo12ss1wlbll5-stroke" data-item-order="0" transform="translate(176, 86)"></g><g id="g-root-tx_initialb_4golt81wlblzb-stroke" data-item-order="0" transform="translate(38, 98)"></g><g id="g-root-tx_aiassist_vb359o1wlk1s1-stroke" data-item-order="0" transform="translate(233, 38)"></g><g id="g-root-tx_refineme_v483n01wld1jh-stroke" data-item-order="0" transform="translate(212, 385.99993896484375)"></g><g id="g-root-tx_aisurpri_m7c57w1wld0xv-stroke" data-item-order="0" transform="translate(86, 409.99993896484375)"></g><g id="g-root-tx_testingd_1lu9ht81wlczk1-stroke" data-item-order="0" transform="translate(488, 403.99993896484375)"></g><g id="g-root-tx_rubberst_92quss1wld0xx-stroke" data-item-order="0" transform="translate(746, 403.99993896484375)"></g><g id="g-root-tx_finalapp_1hhkd4c1wld0qu-stroke" data-item-order="0" transform="translate(734, 481.99993896484375)"></g><g id="g-root-tx_decision_1um5njg1wld0qs-stroke" data-item-order="0" transform="translate(98, 451.99993896484375)"></g><g id="g-root-tx_improvin_4hxjzg1wld1ji-stroke" data-item-order="0" transform="translate(224, 451.99993896484375)"></g><g id="g-root-tx_security_18hk19o1wlcyyv-stroke" data-item-order="0" transform="translate(350, 439.99993896484375)"></g><g id="g-root-tx_checking_hv9hm41wlcyyw-stroke" data-item-order="0" transform="translate(350, 481.99993896484375)"></g><g id="g-root-tx_creating_v7yy5o1wlczk2-stroke" data-item-order="0" transform="translate(488, 469.99993896484375)"></g><g id="g-root-tx_updating_144uwks1wld05o-stroke" data-item-order="0" transform="translate(620, 487.99993896484375)"></g><g id="g-root-tx_updatete_1ur5g8c1wld05n-stroke" data-item-order="0" transform="translate(620, 421.99993896484375)"></g></g></g><path id="whwjhpo1x5hukl" d="M65.283 12.757a.35.35 0 0 0 .584.157l5.203-5.141-6.183 3.523.396 1.461zm-2.216-11.7a.35.35 0 0 0-.522.305v3.111l3.276-1.868-2.754-1.548zm3.728 2.105l-4.25 2.421v2.445l6.391-3.644-2.141-1.222zm4.708 3.303a.35.35 0 0 0 0-.609l-1.592-.9-7.365 4.199v1.782a.35.35 0 0 0 .523.305l8.435-4.777z M44.542 2.513c0-.433.355-.783.792-.783s.792.35.792.783-.355.783-.792.783-.792-.35-.792-.783zm59.171 0c0-.433.355-.783.792-.783s.792.35.792.783-.355.783-.792.783-.792-.35-.792-.783zm-85.951 7.636h-1.27v-.487c-.276.201-.864.609-1.881.609-1.202 0-2.274-.794-2.137-2.078.118-1.106 1.153-1.584 1.848-1.727l2.17-.345c0-.539-.29-.956-1.064-1.006s-1.21.305-1.571 1.017l-1.124-.605c1.218-2.631 5.029-1.764 5.029.414v4.207zm-1.27-2.86c.006.396-.062 1.112-.819 1.59-.587.37-1.841.299-1.903-.395-.049-.555.461-.791.906-.898l1.816-.297zm72.662 2.86h-1.27v-.487c-.276.201-.864.609-1.881.609-1.202 0-2.274-.794-2.137-2.078.118-1.106 1.153-1.584 1.848-1.727l2.17-.345c0-.539-.29-.956-1.064-1.006s-1.21.305-1.571 1.017l-1.124-.605c1.218-2.631 5.029-1.764 5.029.414v4.207zm-1.27-2.86c.006.396-.062 1.112-.82 1.59-.587.37-1.841.299-1.903-.395-.049-.555.461-.791.906-.898l1.816-.297zM99.096 10.149H97.85v-8.45h1.246v4.895l2.68-2.559h1.738l-2.633 2.535 2.715 3.578h-1.556l-2.077-2.707-.867.844v1.863zm6.053-6.114h-1.255v6.113h1.255V4.035zm-59.2 0h-1.255v6.113h1.255V4.035zm5.584 6.113V1.697h1.255v2.695c.361-.346 1-.485 1.47-.485 1.452 0 2.477 1.082 2.457 2.448v3.792h-1.27v-3.68c0-.408-.214-1.339-1.315-1.339-.968 0-1.342.756-1.342 1.339v3.681h-1.255zm-4.76-4.894V4.039h.621a.45.45 0 0 0 .45-.45v-.855h1.251v1.305h1.309v1.215h-1.309v3.109c0 .293.105.664.648.664.365 0 .531-.035.736-.07v1.137s-.361.113-.857.113c-1.398 0-1.777-1.051-1.777-1.788V5.254h-1.071zM36.528 4.039h-1.394l2.191 6.106h1.125l1.234-3.918 1.238 3.918h1.129l2.188-6.106h-1.383l-1.359 3.93-1.256-3.93h-1.124l-1.242 3.957-1.348-3.957zM26.212 7.141c-.02 1.566 1.187 3.129 3.223 3.129 1.566 0 2.383-.918 2.734-1.719L31.172 8c-.315.399-.801 1.094-1.738 1.094-1.145 0-1.825-.781-1.891-1.52h4.625c.074-.284.148-.995-.03-1.559-.336-1.064-1.221-2.102-2.839-2.102s-3.088 1.152-3.088 3.227zm1.363-.75h3.348c-.055-.43-.566-1.301-1.623-1.301a1.79 1.79 0 0 0-1.725 1.301zm-8.758.75c.038 1.758 1.277 3.133 3.145 3.133 1.074 0 1.723-.477 1.961-.672v.547h1.242V1.703h-1.258v2.888c-.414-.36-1.062-.68-1.93-.68-1.91 0-3.198 1.473-3.16 3.23zm1.309-.08c0 1.119.723 1.978 1.836 1.978a1.88 1.88 0 0 0 1.94-1.904c0-1.371-1.011-1.99-1.972-1.99s-1.805.798-1.805 1.916zm76.683-.028C96.771 5.275 95.532 3.9 93.664 3.9c-1.074 0-1.723.477-1.961.672v-.547h-1.242v8.22h1.258V9.583c.414.36 1.063.68 1.93.68 1.91 0 3.198-1.473 3.16-3.23zm-1.309.08c0-1.119-.723-1.978-1.836-1.978a1.88 1.88 0 0 0-1.94 1.904c0 1.371 1.011 1.99 1.972 1.99S95.5 8.231 95.5 7.113zM106.441 10.173V4.036h1.254v.382c.361-.346 1-.485 1.47-.485 1.452 0 2.477 1.082 2.457 2.448v3.792h-1.27V6.492c0-.408-.214-1.339-1.315-1.339-.969 0-1.342.756-1.342 1.339v3.681h-1.254zm-30.383-.021V1.824h1.084l4.215 5.777V1.824h1.32v8.328h-1.094l-4.207-5.796v5.796h-1.319zM5.24 10.149H4V2.377h1.014l2.664 3.597 2.654-3.592h1.03v7.766h-1.256V4.762L7.678 8.068 5.24 4.742v5.407z" transform="translate(20, 557.9999389648438)" fill="#ababab88" stroke="none"></path></svg>