<?xml version="1.0" encoding="utf-8" standalone="yes"?>
<!DOCTYPE svg PUBLIC "-//W3C//DTD SVG 1.1//EN" "http://www.w3.org/Graphics/SVG/1.1/DTD/svg11.dtd">
<svg width="1044" height="1092" viewBox="0 0 1044 1092" style="fill:none;stroke:none;fill-rule:evenodd;clip-rule:evenodd;stroke-linecap:round;stroke-linejoin:round;stroke-miterlimit:1.5;" version="1.1" xmlns="http://www.w3.org/2000/svg" xmlns:xlink="http://www.w3.org/1999/xlink"><g id="items" style="isolation: isolate"><g id="blend" style="mix-blend-mode: normal"><g id="g-root-cp_8_g-8_1usfdbz7tliis-fill" data-item-order="-992006" transform="translate(350, 183.699951171875)"><g id="cp_8_g-8_1usfdbz7tliis-fill" stroke="none" fill="#3e3d3a"><g><path d="M 15.3686 45.960349C 11.7895 44.590649 10 42.795349 10 41.000049C 10 39.204749 11.7895 37.409449 15.3686 36.039749L 78.0391 12.054649C 85.1972 9.315149 96.8028 9.315149 103.9609 12.054649L 166.6314 36.039749C 170.2061 37.407749 171.9956 39.200349 172 40.993349C 172 40.997849 172 41.002249 172 41.006749C 171.9956 42.799749 170.2061 44.592349 166.6314 45.960349L 159.2234 48.795549L 116.5 65.146449L 103.9609 69.945449C 96.8028 72.684949 85.1972 72.684949 78.0391 69.945449L 15.3686 45.960349ZM 78.0391 69.945449L 15.3686 45.960349C 11.7895 44.590649 10 42.795349 10 41.000049L 10 61.500049C 10 63.295349 11.7895 65.090649 15.3686 66.460349L 78.0391 90.445449C 85.1972 93.184949 96.8028 93.184949 103.9609 90.445449L 116.5 85.646449L 116.5 65.146449L 103.9609 69.945449C 96.8028 72.684949 85.1972 72.684949 78.0391 69.945449ZM 172 41.006749C 171.9956 42.799749 170.2061 44.592349 166.6314 45.960349L 159.2234 48.795549L 172 55.186549L 172 41.006749Z"></path></g></g></g><g id="g-root-cp_7_g-7_1lwsd337tljbi-fill" data-item-order="-992002" transform="translate(456.44140625, 222.501953125)"><g id="cp_7_g-7_1lwsd337tljbi-fill" stroke="none" fill="#3e3d3a"><g><path d="M 67.2522 77.4884L 67.2522 85.0116L 110.0841 68.7503L 110.0718 61.2269L 67.2522 77.4884ZM 95.7987 54.0837L 52.9791 70.3453L 67.2522 77.4884L 110.0718 61.2269L 95.7987 54.0837ZM 52.9791 62.8221L 52.9791 70.3453L 95.7987 54.0837L 95.7986 46.5607L 52.9791 62.8221ZM 81.5377 39.4174L 38.7059 55.6794L 52.9791 62.8221L 95.7986 46.5607L 81.5377 39.4174ZM 38.6936 48.1558L 38.7059 55.6794L 81.5377 39.4174L 81.5377 31.8946L 38.6936 48.1558ZM 24.4205 41.0132L 34.9136 46.2536L 38.6936 48.1558L 81.5377 31.8946L 67.2523 24.7519L 24.4205 41.0132ZM 24.4205 33.49L 24.4205 41.0132L 67.2523 24.7519L 67.2523 17.2286L 24.4205 33.49ZM 10 26.2859L 24.4205 33.49L 67.2523 17.2286L 52.795 10L 10 26.2859ZM 70.9272 106.4584C 67.5357 105.1604 65.7511 103.4804 65.5733 101.7803C 65.5635 101.6863 65.5586 101.5922 65.5586 101.498C 65.5586 99.7028 67.3481 97.9075 70.9272 96.5377L 81.8723 92.3489L 124.5732 76.0065L 133.5977 72.5527C 140.7558 69.8132 152.3614 69.8132 159.5195 72.5527L 222.19 96.5377C 225.7646 97.9058 227.5542 99.6983 227.5586 101.4914C 227.5586 101.4958 227.5586 101.5003 227.5586 101.5047C 227.5542 103.2978 225.7646 105.0903 222.19 106.4584L 159.5195 130.4434C 152.3614 133.1829 140.7558 133.1829 133.5977 130.4434L 121.5586 125.8358L 78.8092 109.475L 70.9272 106.4584ZM 24.4205 41.0132L 24.4205 33.49L 10 26.2859L 10 46.8091L 65.5719 103.7632L 65.5733 101.7803C 65.5635 101.6863 65.5586 101.5922 65.5586 101.498C 65.5586 99.7028 67.3481 97.9075 70.9272 96.5377L 81.8723 92.3489L 67.2522 85.0116L 67.2522 77.4884L 52.9791 70.3453L 52.9791 62.8221L 38.7059 55.6794L 38.6936 48.1558L 34.9136 46.2536L 24.4205 41.0132ZM 110.0841 68.7503L 67.2522 85.0116L 81.8723 92.3489L 124.5732 76.0065L 110.0841 68.7503ZM 222.19 106.4584L 159.5195 130.4434C 152.3614 133.1829 140.7558 133.1829 133.5977 130.4434L 121.5586 125.8358L 121.5586 146.3358L 133.5977 150.9434C 140.7558 153.6829 152.3614 153.6829 159.5195 150.9434L 222.19 126.9584C 225.7646 125.5903 227.5542 123.7978 227.5586 122.0047L 227.5586 101.5047C 227.5542 103.2978 225.7646 105.0903 222.19 106.4584ZM 65.5733 101.7803L 65.5719 103.7632L 65.5629 116.1146L 78.8092 109.475L 70.9272 106.4584C 67.5357 105.1604 65.7511 103.4804 65.5733 101.7803ZM 227.5586 101.4914L 227.5586 101.5047L 227.5586 101.4914Z"></path></g></g></g><g id="g-root-cp_6_g-6_1hhlc1r7tlgy0-fill" data-item-order="-991998" transform="translate(350.44140625, 322)"><g id="cp_6_g-6_1hhlc1r7tlgy0-fill" stroke="none" fill="#3e3d3a"><g><path d="M 170.306392 77.4884L 170.306392 85.0116L 127.474492 68.7503L 127.486792 61.2269L 170.306392 77.4884ZM 141.759892 54.0837L 184.579492 70.3453L 170.306392 77.4884L 127.486792 61.2269L 141.759892 54.0837ZM 184.579492 62.8221L 184.579492 70.3453L 141.759892 54.0837L 141.759992 46.5607L 184.579492 62.8221ZM 156.020892 39.4174L 198.852692 55.6794L 184.579492 62.8221L 141.759992 46.5607L 156.020892 39.4174ZM 198.864992 48.1558L 198.852692 55.6794L 156.020892 39.4174L 156.020892 31.8946L 198.864992 48.1558ZM 213.138192 41.0132L 202.644992 46.2536L 198.864992 48.1558L 156.020892 31.8946L 170.306392 24.7519L 213.138192 41.0132ZM 213.138192 33.49L 213.138192 41.0132L 170.306392 24.7519L 170.306292 17.2286L 213.138192 33.49ZM 227.558592 26.2859L 213.138192 33.49L 170.306292 17.2286L 184.763592 10L 227.558592 26.2859ZM 166.631392 106.4584C 170.022892 105.1604 171.807492 103.4804 171.985292 101.7803C 171.995092 101.6863 171.999992 101.5922 171.999992 101.498C 171.999992 99.7028 170.210492 97.9075 166.631392 96.5377L 155.686292 92.3489L 112.985392 76.0065L 103.960892 72.5527C 96.802792 69.8132 85.197192 69.8132 78.039092 72.5527L 15.368592 96.5377C 11.793992 97.9058 10.004392 99.6983 9.999992 101.4914C 9.999992 101.4958 9.999992 101.5003 9.999992 101.5047C 10.004392 103.2978 11.793992 105.0903 15.368592 106.4584L 78.039092 130.4434C 85.197192 133.1829 96.802792 133.1829 103.960892 130.4434L 115.999992 125.8358L 158.749392 109.475L 166.631392 106.4584ZM 213.138192 41.0132L 213.138192 33.49L 227.558592 26.2859L 227.558592 46.8091L 171.986692 103.7632L 171.985292 101.7803C 171.995092 101.6863 171.999992 101.5922 171.999992 101.498C 171.999992 99.7028 170.210492 97.9075 166.631392 96.5377L 155.686292 92.3489L 170.306392 85.0116L 170.306392 77.4884L 184.579492 70.3453L 184.579492 62.8221L 198.852692 55.6794L 198.864992 48.1558L 202.644992 46.2536L 213.138192 41.0132ZM 127.474492 68.7503L 170.306392 85.0116L 155.686292 92.3489L 112.985392 76.0065L 127.474492 68.7503ZM 15.368592 106.4584L 78.039092 130.4434C 85.197192 133.1829 96.802792 133.1829 103.960892 130.4434L 115.999992 125.8358L 115.999992 146.3358L 103.960892 150.9434C 96.802792 153.6829 85.197192 153.6829 78.039092 150.9434L 15.368592 126.9584C 11.793992 125.5903 10.004392 123.7978 9.999992 122.0047L 9.999992 101.5047C 10.004392 103.2978 11.793992 105.0903 15.368592 106.4584ZM 171.986692 103.7632L 171.985292 101.7803C 171.807492 103.4804 170.022892 105.1604 166.631392 106.4584L 158.749392 109.475L 171.995692 116.1146L 171.986692 103.7632ZM 9.999992 101.4914L 9.999992 101.5047L 9.999992 101.4914Z"></path></g></g></g><g id="g-root-cp_5_g-5_1d1rtxb7tlhqa-fill" data-item-order="-991994" transform="translate(456.44140625, 421.501953125)"><g id="cp_5_g-5_1d1rtxb7tlhqa-fill" stroke="none" fill="#3e3d3a"><g><path d="M 67.2522 77.4884L 67.2522 85.0116L 110.0841 68.7503L 110.0718 61.2269L 67.2522 77.4884ZM 95.7987 54.0837L 52.9791 70.3453L 67.2522 77.4884L 110.0718 61.2269L 95.7987 54.0837ZM 52.9791 62.8221L 52.9791 70.3453L 95.7987 54.0837L 95.7986 46.5607L 52.9791 62.8221ZM 81.5377 39.4174L 38.7059 55.6794L 52.9791 62.8221L 95.7986 46.5607L 81.5377 39.4174ZM 38.6936 48.1558L 38.7059 55.6794L 81.5377 39.4174L 81.5377 31.8946L 38.6936 48.1558ZM 24.4205 41.0132L 34.9136 46.2536L 38.6936 48.1558L 81.5377 31.8946L 67.2523 24.7519L 24.4205 41.0132ZM 24.4205 33.49L 24.4205 41.0132L 67.2523 24.7519L 67.2523 17.2286L 24.4205 33.49ZM 10 26.2859L 24.4205 33.49L 67.2523 17.2286L 52.795 10L 10 26.2859ZM 70.9272 106.4584C 67.5357 105.1604 65.7511 103.4804 65.5733 101.7803C 65.5635 101.6863 65.5586 101.5922 65.5586 101.498C 65.5586 99.7028 67.3481 97.9075 70.9272 96.5377L 81.8723 92.3489L 124.5732 76.0065L 133.5977 72.5527C 140.7558 69.8132 152.3614 69.8132 159.5195 72.5527L 222.19 96.5377C 225.7646 97.9058 227.5542 99.6983 227.5586 101.4914C 227.5586 101.4958 227.5586 101.5003 227.5586 101.5047C 227.5542 103.2978 225.7646 105.0903 222.19 106.4584L 159.5195 130.4434C 152.3614 133.1829 140.7558 133.1829 133.5977 130.4434L 121.5586 125.8358L 78.8092 109.475L 70.9272 106.4584ZM 24.4205 41.0132L 24.4205 33.49L 10 26.2859L 10 46.8091L 65.5719 103.7632L 65.5733 101.7803C 65.5635 101.6863 65.5586 101.5922 65.5586 101.498C 65.5586 99.7028 67.3481 97.9075 70.9272 96.5377L 81.8723 92.3489L 67.2522 85.0116L 67.2522 77.4884L 52.9791 70.3453L 52.9791 62.8221L 38.7059 55.6794L 38.6936 48.1558L 34.9136 46.2536L 24.4205 41.0132ZM 110.0841 68.7503L 67.2522 85.0116L 81.8723 92.3489L 124.5732 76.0065L 110.0841 68.7503ZM 222.19 106.4584L 159.5195 130.4434C 152.3614 133.1829 140.7558 133.1829 133.5977 130.4434L 121.5586 125.8358L 121.5586 146.3358L 133.5977 150.9434C 140.7558 153.6829 152.3614 153.6829 159.5195 150.9434L 222.19 126.9584C 225.7646 125.5903 227.5542 123.7978 227.5586 122.0047L 227.5586 101.5047C 227.5542 103.2978 225.7646 105.0903 222.19 106.4584ZM 65.5733 101.7803L 65.5719 103.7632L 65.5629 116.1146L 78.8092 109.475L 70.9272 106.4584C 67.5357 105.1604 65.7511 103.4804 65.5733 101.7803ZM 227.5586 101.4914L 227.5586 101.5047L 227.5586 101.4914Z"></path></g></g></g><g id="g-root-cp_4_g-4_1464tof7tlij0-fill" data-item-order="-991990" transform="translate(350.44140625, 521)"><g id="cp_4_g-4_1464tof7tlij0-fill" stroke="none" fill="#3e3d3a"><g><path d="M 170.306392 77.4884L 170.306392 85.0116L 127.474492 68.7503L 127.486792 61.2269L 170.306392 77.4884ZM 141.759892 54.0837L 184.579492 70.3453L 170.306392 77.4884L 127.486792 61.2269L 141.759892 54.0837ZM 184.579492 62.8221L 184.579492 70.3453L 141.759892 54.0837L 141.759992 46.5607L 184.579492 62.8221ZM 156.020892 39.4174L 198.852692 55.6794L 184.579492 62.8221L 141.759992 46.5607L 156.020892 39.4174ZM 198.864992 48.1558L 198.852692 55.6794L 156.020892 39.4174L 156.020892 31.8946L 198.864992 48.1558ZM 213.138192 41.0132L 202.644992 46.2536L 198.864992 48.1558L 156.020892 31.8946L 170.306392 24.7519L 213.138192 41.0132ZM 213.138192 33.49L 213.138192 41.0132L 170.306392 24.7519L 170.306292 17.2286L 213.138192 33.49ZM 227.558592 26.2859L 213.138192 33.49L 170.306292 17.2286L 184.763592 10L 227.558592 26.2859ZM 166.631392 106.4584C 170.022892 105.1604 171.807492 103.4804 171.985292 101.7803C 171.995092 101.6863 171.999992 101.5922 171.999992 101.498C 171.999992 99.7028 170.210492 97.9075 166.631392 96.5377L 155.686292 92.3489L 112.985392 76.0065L 103.960892 72.5527C 96.802792 69.8132 85.197192 69.8132 78.039092 72.5527L 15.368592 96.5377C 11.793992 97.9058 10.004392 99.6983 9.999992 101.4914C 9.999992 101.4958 9.999992 101.5003 9.999992 101.5047C 10.004392 103.2978 11.793992 105.0903 15.368592 106.4584L 78.039092 130.4434C 85.197192 133.1829 96.802792 133.1829 103.960892 130.4434L 115.999992 125.8358L 158.749392 109.475L 166.631392 106.4584ZM 213.138192 41.0132L 213.138192 33.49L 227.558592 26.2859L 227.558592 46.8091L 171.986692 103.7632L 171.985292 101.7803C 171.995092 101.6863 171.999992 101.5922 171.999992 101.498C 171.999992 99.7028 170.210492 97.9075 166.631392 96.5377L 155.686292 92.3489L 170.306392 85.0116L 170.306392 77.4884L 184.579492 70.3453L 184.579492 62.8221L 198.852692 55.6794L 198.864992 48.1558L 202.644992 46.2536L 213.138192 41.0132ZM 127.474492 68.7503L 170.306392 85.0116L 155.686292 92.3489L 112.985392 76.0065L 127.474492 68.7503ZM 15.368592 106.4584L 78.039092 130.4434C 85.197192 133.1829 96.802792 133.1829 103.960892 130.4434L 115.999992 125.8358L 115.999992 146.3358L 103.960892 150.9434C 96.802792 153.6829 85.197192 153.6829 78.039092 150.9434L 15.368592 126.9584C 11.793992 125.5903 10.004392 123.7978 9.999992 122.0047L 9.999992 101.5047C 10.004392 103.2978 11.793992 105.0903 15.368592 106.4584ZM 171.986692 103.7632L 171.985292 101.7803C 171.807492 103.4804 170.022892 105.1604 166.631392 106.4584L 158.749392 109.475L 171.995692 116.1146L 171.986692 103.7632ZM 9.999992 101.4914L 9.999992 101.5047L 9.999992 101.4914Z"></path></g></g></g><g id="g-root-cp_3_g-3_zqbbjz7tljba-fill" data-item-order="-991986" transform="translate(456.44140625, 620.501953125)"><g id="cp_3_g-3_zqbbjz7tljba-fill" stroke="none" fill="#3e3d3a"><g><path d="M 67.2522 77.4884L 67.2522 85.0116L 110.0841 68.7503L 110.0718 61.2269L 67.2522 77.4884ZM 95.7987 54.0837L 52.9791 70.3453L 67.2522 77.4884L 110.0718 61.2269L 95.7987 54.0837ZM 52.9791 62.8221L 52.9791 70.3453L 95.7987 54.0837L 95.7986 46.5607L 52.9791 62.8221ZM 81.5377 39.4174L 38.7059 55.6794L 52.9791 62.8221L 95.7986 46.5607L 81.5377 39.4174ZM 38.6936 48.1558L 38.7059 55.6794L 81.5377 39.4174L 81.5377 31.8946L 38.6936 48.1558ZM 24.4205 41.0132L 34.9136 46.2536L 38.6936 48.1558L 81.5377 31.8946L 67.2523 24.7519L 24.4205 41.0132ZM 24.4205 33.49L 24.4205 41.0132L 67.2523 24.7519L 67.2523 17.2286L 24.4205 33.49ZM 10 26.2859L 24.4205 33.49L 67.2523 17.2286L 52.795 10L 10 26.2859ZM 70.9272 106.4584C 67.5357 105.1604 65.7511 103.4804 65.5733 101.7803C 65.5635 101.6863 65.5586 101.5922 65.5586 101.498C 65.5586 99.7028 67.3481 97.9075 70.9272 96.5377L 81.8723 92.3489L 124.5732 76.0065L 133.5977 72.5527C 140.7558 69.8132 152.3614 69.8132 159.5195 72.5527L 222.19 96.5377C 225.7646 97.9058 227.5542 99.6983 227.5586 101.4914C 227.5586 101.4958 227.5586 101.5003 227.5586 101.5047C 227.5542 103.2978 225.7646 105.0903 222.19 106.4584L 159.5195 130.4434C 152.3614 133.1829 140.7558 133.1829 133.5977 130.4434L 121.5586 125.8358L 78.8092 109.475L 70.9272 106.4584ZM 24.4205 41.0132L 24.4205 33.49L 10 26.2859L 10 46.8091L 65.5719 103.7632L 65.5733 101.7803C 65.5635 101.6863 65.5586 101.5922 65.5586 101.498C 65.5586 99.7028 67.3481 97.9075 70.9272 96.5377L 81.8723 92.3489L 67.2522 85.0116L 67.2522 77.4884L 52.9791 70.3453L 52.9791 62.8221L 38.7059 55.6794L 38.6936 48.1558L 34.9136 46.2536L 24.4205 41.0132ZM 110.0841 68.7503L 67.2522 85.0116L 81.8723 92.3489L 124.5732 76.0065L 110.0841 68.7503ZM 222.19 106.4584L 159.5195 130.4434C 152.3614 133.1829 140.7558 133.1829 133.5977 130.4434L 121.5586 125.8358L 121.5586 146.3358L 133.5977 150.9434C 140.7558 153.6829 152.3614 153.6829 159.5195 150.9434L 222.19 126.9584C 225.7646 125.5903 227.5542 123.7978 227.5586 122.0047L 227.5586 101.5047C 227.5542 103.2978 225.7646 105.0903 222.19 106.4584ZM 65.5733 101.7803L 65.5719 103.7632L 65.5629 116.1146L 78.8092 109.475L 70.9272 106.4584C 67.5357 105.1604 65.7511 103.4804 65.5733 101.7803ZM 227.5586 101.4914L 227.5586 101.5047L 227.5586 101.4914Z"></path></g></g></g><g id="g-root-cp_2_g-2_vb4ain7tlgxs-fill" data-item-order="-991982" transform="translate(350.44140625, 720)"><g id="cp_2_g-2_vb4ain7tlgxs-fill" stroke="none" fill="#3e3d3a"><g><path d="M 170.3064 77.4884L 170.3064 85.0116L 127.4745 68.7503L 127.4868 61.2269L 170.3064 77.4884ZM 141.7599 54.0837L 184.5795 70.3453L 170.3064 77.4884L 127.4868 61.2269L 141.7599 54.0837ZM 184.5795 62.8221L 184.5795 70.3453L 141.7599 54.0837L 141.76 46.5607L 184.5795 62.8221ZM 156.0209 39.4174L 198.8527 55.6794L 184.5795 62.8221L 141.76 46.5607L 156.0209 39.4174ZM 198.865 48.1558L 198.8527 55.6794L 156.0209 39.4174L 156.0209 31.8946L 198.865 48.1558ZM 213.1382 41.0132L 202.645 46.2536L 198.865 48.1558L 156.0209 31.8946L 170.3064 24.7519L 213.1382 41.0132ZM 213.1382 33.49L 213.1382 41.0132L 170.3064 24.7519L 170.3063 17.2286L 213.1382 33.49ZM 227.5586 26.2859L 213.1382 33.49L 170.3063 17.2286L 184.7636 10L 227.5586 26.2859ZM 166.6314 106.4584C 170.0229 105.1604 171.8075 103.4804 171.9853 101.7803C 171.9951 101.6863 172 101.5922 172 101.498C 172 99.7028 170.2105 97.9075 166.6314 96.5377L 155.6863 92.3489L 112.9854 76.0065L 103.9609 72.5527C 96.8028 69.8132 85.1972 69.8132 78.0391 72.5527L 15.3686 96.5377C 11.794 97.9058 10.0044 99.6983 10 101.4914C 10 101.4958 10 101.5003 10 101.5047C 10.0044 103.2978 11.794 105.0903 15.3686 106.4584L 78.0391 130.4434C 85.1972 133.1829 96.8028 133.1829 103.9609 130.4434L 116 125.8358L 158.7494 109.475L 166.6314 106.4584ZM 213.1382 41.0132L 213.1382 33.49L 227.5586 26.2859L 227.5586 46.8091L 171.9867 103.7632L 171.9853 101.7803C 171.9951 101.6863 172 101.5922 172 101.498C 172 99.7028 170.2105 97.9075 166.6314 96.5377L 155.6863 92.3489L 170.3064 85.0116L 170.3064 77.4884L 184.5795 70.3453L 184.5795 62.8221L 198.8527 55.6794L 198.865 48.1558L 202.645 46.2536L 213.1382 41.0132ZM 127.4745 68.7503L 170.3064 85.0116L 155.6863 92.3489L 112.9854 76.0065L 127.4745 68.7503ZM 15.3686 106.4584L 78.0391 130.4434C 85.1972 133.1829 96.8028 133.1829 103.9609 130.4434L 116 125.8358L 116 146.3358L 103.9609 150.9434C 96.8028 153.6829 85.1972 153.6829 78.0391 150.9434L 15.3686 126.9584C 11.794 125.5903 10.0044 123.7978 10 122.0047L 10 101.5047C 10.0044 103.2978 11.794 105.0903 15.3686 106.4584ZM 171.9867 103.7632L 171.9853 101.7803C 171.8075 103.4804 170.0229 105.1604 166.6314 106.4584L 158.7494 109.475L 171.9957 116.1146L 171.9867 103.7632ZM 10 101.4914L 10 101.5047L 10 101.4914Z"></path></g></g></g><g id="g-root-cp_1_g-1_mfha9r7tlhqi-fill" data-item-order="-991978" transform="translate(456.220703125, 819.501953125)"><g id="cp_1_g-1_mfha9r7tlhqi-fill" stroke="none" fill="#3e3d3a"><g><path d="M 222.19 106.4584L 159.5195 130.4434C 152.3614 133.1829 140.7558 133.1829 133.5977 130.4434L 70.9272 106.4584C 67.5357 105.1604 65.7511 103.4804 65.5733 101.7803L 65.5719 103.7632L 65.5586 121.998C 65.5586 123.7933 67.3481 125.5886 70.9272 126.9584L 133.5977 150.9434C 140.7558 153.6829 152.3614 153.6829 159.5195 150.9434L 222.19 126.9584C 225.7646 125.5903 227.5542 123.7978 227.5586 122.0047L 227.5586 101.5047C 227.5542 103.2978 225.7646 105.0903 222.19 106.4584ZM 222.19 96.5377L 159.5195 72.5527C 152.3614 69.8132 140.7558 69.8132 133.5977 72.5527L 124.5732 76.0065L 81.8723 92.3489L 70.9272 96.5377C 67.3481 97.9075 65.5586 99.7028 65.5586 101.498C 65.5586 101.5922 65.5635 101.6863 65.5733 101.7803C 65.7511 103.4804 67.5357 105.1604 70.9272 106.4584L 133.5977 130.4434C 140.7558 133.1829 152.3614 133.1829 159.5195 130.4434L 222.19 106.4584C 225.7646 105.0903 227.5542 103.2978 227.5586 101.5047L 227.5586 101.4914C 227.5542 99.6983 225.7646 97.9058 222.19 96.5377ZM 24.4205 41.0132L 24.4205 33.49L 10 26.2859L 10 46.8091L 65.5719 103.7632L 65.5733 101.7803C 65.5635 101.6863 65.5586 101.5922 65.5586 101.498C 65.5586 99.7028 67.3481 97.9075 70.9272 96.5377L 81.8723 92.3489L 67.2522 85.0116L 67.2522 77.4884L 52.9791 70.3453L 52.9791 62.8221L 38.7059 55.6794L 38.6936 48.1558L 34.9136 46.2536L 24.4205 41.0132ZM 110.0841 68.7503L 67.2522 85.0116L 81.8723 92.3489L 124.5732 76.0065L 110.0841 68.7503ZM 67.2522 77.4884L 67.2522 85.0116L 110.0841 68.7503L 110.0718 61.2269L 67.2522 77.4884ZM 95.7987 54.0837L 52.9791 70.3453L 67.2522 77.4884L 110.0718 61.2269L 95.7987 54.0837ZM 52.9791 62.8221L 52.9791 70.3453L 95.7987 54.0837L 95.7986 46.5607L 52.9791 62.8221ZM 81.5377 39.4174L 38.7059 55.6794L 52.9791 62.8221L 95.7986 46.5607L 81.5377 39.4174ZM 38.6936 48.1558L 38.7059 55.6794L 81.5377 39.4174L 81.5377 31.8946L 38.6936 48.1558ZM 24.4205 41.0132L 34.9136 46.2536L 38.6936 48.1558L 81.5377 31.8946L 67.2523 24.7519L 24.4205 41.0132ZM 24.4205 33.49L 24.4205 41.0132L 67.2523 24.7519L 67.2523 17.2286L 24.4205 33.49ZM 10 26.2859L 24.4205 33.49L 67.2523 17.2286L 52.795 10L 10 26.2859ZM 227.5586 101.4914C 227.5586 101.4958 227.5586 101.5003 227.5586 101.5047L 227.5586 101.4914Z"></path></g></g></g><g id="g-root-cp_1_number_hzns5b7tliis-fill" data-item-order="-991964" transform="translate(698, 890)"><g id="cp_1_number_hzns5b7tliis-fill" stroke="none" fill="#3e3d3a"><g><path d="M 10 40C 10 23.4315 23.4315 10 40 10C 56.5685 10 70 23.4315 70 40C 70 56.5685 56.5685 70 40 70C 23.4315 70 10 56.5685 10 40Z"></path></g></g></g><g id="g-root-cp_2_number_1_940rwf7tljbi-fill" data-item-order="-991948" transform="translate(266, 794)"><g id="cp_2_number_1_940rwf7tljbi-fill" stroke="none" fill="#3e3d3a"><g><path d="M 10 40C 10 23.4315 23.4315 10 40 10C 56.5685 10 70 23.4315 70 40C 70 56.5685 56.5685 70 40 70C 23.4315 70 10 56.5685 10 40Z"></path></g></g></g><g id="g-root-cp_3_number_2_4otqv37tlgy0-fill" data-item-order="-991932" transform="translate(698, 692)"><g id="cp_3_number_2_4otqv37tlgy0-fill" stroke="none" fill="#3e3d3a"><g><path d="M 10 40C 10 23.4315 23.4315 10 40 10C 56.5685 10 70 23.4315 70 40C 70 56.5685 56.5685 70 40 70C 23.4315 70 10 56.5685 10 40Z"></path></g></g></g><g id="g-root-cp_4_number_3_908qn7tlhqa-fill" data-item-order="-991916" transform="translate(266, 596)"><g id="cp_4_number_3_908qn7tlhqa-fill" stroke="none" fill="#3e3d3a"><g><path d="M 10 40C 10 23.4315 23.4315 10 40 10C 56.5685 10 70 23.4315 70 40C 70 56.5685 56.5685 70 40 70C 23.4315 70 10 56.5685 10 40Z"></path></g></g></g><g id="g-root-cp_5_number_4_908qn7tlhqc-fill" data-item-order="-991900" transform="translate(698, 488)"><g id="cp_5_number_4_908qn7tlhqc-fill" stroke="none" fill="#3e3d3a"><g><path d="M 10 40C 10 23.4315 23.4315 10 40 10C 56.5685 10 70 23.4315 70 40C 70 56.5685 56.5685 70 40 70C 23.4315 70 10 56.5685 10 40Z"></path></g></g></g><g id="g-root-cp_6_number_5_1qehagv7tliby-fill" data-item-order="-991884" transform="translate(266, 398)"><g id="cp_6_number_5_1qehagv7tliby-fill" stroke="none" fill="#3e3d3a"><g><path d="M 10 40C 10 23.4315 23.4315 10 40 10C 56.5685 10 70 23.4315 70 40C 70 56.5685 56.5685 70 40 70C 23.4315 70 10 56.5685 10 40Z"></path></g></g></g><g id="g-root-cp_7_number_6_1lynscf7tlj48-fill" data-item-order="-991868" transform="translate(698, 284)"><g id="cp_7_number_6_1lynscf7tlj48-fill" stroke="none" fill="#3e3d3a"><g><path d="M 10 40C 10 23.4315 23.4315 10 40 10C 56.5685 10 70 23.4315 70 40C 70 56.5685 56.5685 70 40 70C 23.4315 70 10 56.5685 10 40Z"></path></g></g></g><g id="g-root-cp_8_number_7_1hjgrb37tlgqq-fill" data-item-order="-991852" transform="translate(266, 194)"><g id="cp_8_number_7_1hjgrb37tlgqq-fill" stroke="none" fill="#3e3d3a"><g><path d="M 10 40C 10 23.4315 23.4315 10 40 10C 56.5685 10 70 23.4315 70 40C 70 56.5685 56.5685 70 40 70C 23.4315 70 10 56.5685 10 40Z"></path></g></g></g><g id="g-root-ic_key_147drun7tr3t6-fill" data-item-order="-3600" transform="translate(566, 608)"><g id="ic_key_147drun7tr3t6-fill" stroke="none" fill="#fff0fc"><g><path d="M 70 15C 70 12.238576 67.761429 10 65 10L 15 10C 12.238576 10 10 12.238576 10 15L 10 33.275002C 10.096262 50.937962 22.404184 66.18277 39.650002 70C 39.815754 70.024643 39.984241 70.024643 40.149998 70C 40.31583 70.02359 40.484169 70.02359 40.650002 70C 57.871628 66.03125 70.054504 50.672932 70.000008 33ZM 58.75 24.475C 58.75404 24.806509 58.617844 25.1243 58.375 25.35L 46.950001 36.775002C 46.606415 37.103138 46.488781 37.603085 46.649998 38.049999C 48.136143 42.450935 46.396126 47.295792 42.449566 49.74559C 38.503002 52.195381 33.389122 51.605026 30.104549 48.32045C 26.819975 45.035877 26.229618 39.921997 28.679413 35.975433C 31.129208 32.028873 35.974064 30.288858 40.375 31.775C 40.810234 31.925598 41.293156 31.819353 41.625 31.5L 53.400002 20.325001C 53.629669 20.109268 53.934982 19.992533 54.249996 20L 57.5 20C 58.190353 20 58.75 20.559643 58.75 21.25ZM 34.450001 37.75C 32.74667 39.460411 32.750496 42.227207 34.458549 43.932903C 36.166603 45.638596 38.933403 45.638596 40.641453 43.932903C 42.349506 42.227207 42.353333 39.460411 40.650002 37.75C 38.934303 36.046665 36.165699 36.046665 34.450001 37.75Z"></path></g></g></g><g id="g-root-ic_spee_1cz9xkv7ttwjk-fill" data-item-order="-3600" transform="translate(386, 512)"><g id="ic_spee_1cz9xkv7ttwjk-fill" stroke="none" fill="#fff0fc"><g><path d="M 40 10C 23.431458 10.000001 10.000002 23.431458 10.000002 40C 10.000002 56.568542 23.431459 70 40.000004 70C 56.568542 70 70 56.568542 70 40C 70 23.431458 56.568546 9.999999 40 10ZM 22.85 32.275002L 20.700001 31.025C 20.018152 30.761011 19.551956 30.124741 19.505724 29.395035C 19.459492 28.665329 19.841656 27.975307 20.484735 27.627375C 21.127813 27.279442 21.91449 27.337069 22.5 27.775L 24.65 29.025C 25.515818 29.535917 25.824615 30.638763 25.35 31.525002C 24.822754 32.370964 23.731377 32.665638 22.85 32.200001ZM 23.125 40C 23.111536 41.029903 22.279905 41.861534 21.25 41.875L 18.75 41.875C 17.714466 41.875 16.875 41.035534 16.875 40C 16.875 38.964466 17.714466 38.125 18.75 38.125L 21.25 38.125C 22.279905 38.138462 23.111536 38.970093 23.125 40ZM 45.625 40C 45.625 43.106602 43.106602 45.625 40 45.625C 36.893398 45.625 34.375 43.106602 34.375 40C 34.375 36.893398 36.893398 34.375 40 34.375L 40.200001 34.375C 40.422626 34.400787 40.642017 34.305397 40.775002 34.125L 49.275002 21.425001C 49.64576 20.874001 50.22052 20.493166 50.872456 20.366531C 51.524395 20.239895 52.199932 20.377867 52.75 20.75C 53.882065 21.520941 54.183041 23.059256 53.425003 24.199999L 45 36.700001C 44.824951 36.937939 44.824951 37.262062 45 37.5C 45.390316 38.275841 45.59568 39.131523 45.599998 40ZM 41.900002 21.4C 41.900002 22.435534 41.060535 23.275 40.025002 23.275C 38.989468 23.275 38.150002 22.435534 38.150002 21.4L 38.150002 18.9C 38.150002 17.864466 38.989468 17.025 40.025002 17.025C 41.060535 17.025 41.900002 17.864466 41.900002 18.9ZM 28.475 20C 29.362673 19.538857 30.45586 19.844948 30.974998 20.699999L 32.225002 22.875C 32.699615 23.761238 32.39082 24.864084 31.525002 25.375C 31.245415 25.541553 30.925423 25.628038 30.599998 25.625C 29.932268 25.628017 29.313314 25.275692 28.975 24.700001L 27.725 22.525002C 27.242168 21.619883 27.576357 20.494778 28.475 20ZM 28.75 52.5C 28.75 51.809647 29.309643 51.25 30 51.25L 50 51.25C 50.690353 51.25 51.25 51.809647 51.25 52.5L 51.25 57.5C 51.25 58.190353 50.690353 58.75 50 58.75L 30 58.75C 29.309643 58.75 28.75 58.190353 28.75 57.5ZM 54.524998 31.75C 54.032063 30.871847 54.332066 29.760719 55.200001 29.25L 57.375 28C 58.253155 27.507061 59.364285 27.807066 59.875 28.675001C 60.353973 29.554846 60.056721 30.655792 59.200001 31.175001L 57.024998 32.424999C 56.741863 32.583 56.424179 32.668861 56.100002 32.674999C 55.451504 32.655788 54.857639 32.307011 54.524998 31.75ZM 56.725002 40.174999C 56.725002 39.139465 57.564468 38.300003 58.600002 38.300003L 61.100002 38.299999C 62.135536 38.300003 62.975002 39.139465 62.975002 40.175003C 62.975002 41.210533 62.135536 42.050003 61.100002 42.050003L 58.600002 42.049999C 57.570095 42.036537 56.738464 41.204906 56.725002 40.174999Z"></path></g></g></g><g id="g-root-ic_edit_1qehagv7to9vn-fill" data-item-order="-3600" transform="translate(386, 710)"><g id="ic_edit_1qehagv7to9vn-fill" stroke="none" fill="#fff0fc"><g><path d="M 10 10M 31.35 67.75L 33.224998 58.400002C 33.429237 57.444687 33.917206 56.573318 34.625 55.899998L 53.674999 36.849998C 55.349182 35.111397 57.595692 34.03698 60 33.825001C 60.342636 33.818546 60.668251 33.674435 60.903416 33.425156C 61.13858 33.17588 61.2635 32.84243 61.25 32.5L 61.25 25C 61.298679 22.586197 59.615616 20.482368 57.25 20C 56.667919 19.881184 56.249882 19.369085 56.25 18.775L 56.25 15C 56.25 12.238576 54.011425 10 51.25 10L 20 10C 15.857864 10 12.5 13.357864 12.5 17.5L 12.5 62.5C 12.5 66.642136 15.857864 70 20 70L 30 70C 30.331509 70.004036 30.6493 69.867844 30.875 69.625C 31.108282 69.392685 31.242657 69.07914 31.25 68.75C 31.24589 68.413979 31.279432 68.078552 31.35 67.75ZM 17.5 17.5C 17.5 16.119287 18.619287 15 20 15L 50.625 15C 50.970177 15 51.25 15.279821 51.25 15.625L 51.25 19.375C 51.25 19.720179 50.970177 20 50.625 20L 20 20C 18.619287 20 17.5 18.880713 17.5 17.5ZM 10 10M 36.600002 70L 44.349998 67.800003C 44.774281 67.665947 45.102951 67.327888 45.224998 66.899994C 45.325867 66.466324 45.193192 66.011444 44.875 65.699997L 39.349998 60.174999C 39.041672 59.851753 38.579311 59.726528 38.149998 59.849998C 37.72258 59.947872 37.38522 60.275597 37.275002 60.700001L 35 68.400002C 34.872276 68.837006 34.99744 69.308792 35.325001 69.625C 35.642838 69.984291 36.138252 70.129997 36.600002 70ZM 40.125 55.599998C 39.645542 56.094532 39.645542 56.880463 40.125 57.374996L 47.625 64.875C 47.871586 65.09864 48.192108 65.223289 48.525002 65.224998C 48.850174 65.221878 49.162373 65.097 49.399998 64.875L 61.900002 52.375C 62.136642 52.140293 62.269749 51.820797 62.269749 51.487499C 62.269749 51.154205 62.136642 50.834709 61.900002 50.599998L 54.400002 43.099998C 54.173164 42.858307 53.856464 42.721203 53.525002 42.721203C 53.193531 42.721203 52.876831 42.858307 52.649998 43.099998ZM 55.825001 40.424999C 55.832344 40.754143 55.966717 41.067688 56.199997 41.299999L 63.699997 48.800003C 63.958889 49.033707 64.302208 49.151161 64.649994 49.125C 64.999557 49.099773 65.328156 48.948799 65.574997 48.699997C 68.10981 46.111359 68.065598 41.957809 65.476257 39.42371C 62.886925 36.889614 58.733387 36.934963 56.199997 39.524998C 55.969261 39.769127 55.835873 40.089268 55.825005 40.425003Z"></path></g></g></g><g id="g-root-ic_race_13zw2tb7twqv9-fill" data-item-order="-3600" transform="translate(566, 410)"><g id="ic_race_13zw2tb7twqv9-fill" stroke="none" fill="#fff0fc"><g><path d="M 65.25 53.525002C 65.033028 53.653698 64.914703 53.900215 64.949997 54.150002C 64.963463 54.333084 64.963463 54.516914 64.950005 54.700005C 64.956161 59.605568 61.17952 63.686447 56.288162 64.059608C 51.396805 64.43277 47.044807 60.972038 46.306728 56.122307C 45.568653 51.272575 48.694084 46.673855 53.475002 45.575001C 53.722614 45.515945 53.915947 45.322617 53.974998 45.075001L 54.699997 41.150002C 54.727203 40.953873 54.673004 40.755157 54.549999 40.599998C 54.406467 40.472031 54.21661 40.408745 54.025002 40.424999C 47.710438 41.148632 42.624187 45.939877 41.524998 52.199997L 33.800003 52.199997C 32.209091 52.200161 30.632154 52.496891 29.15 53.074997L 28.25 53.449997C 25.452467 49.366272 20.0882 47.943775 15.634715 50.104679C 11.181231 52.265587 8.978856 57.359543 10.455333 62.08427C 11.93181 66.808998 16.642778 69.742538 21.534235 68.983147C 26.425694 68.223755 30.025503 63.999985 30 59.050003L 30 58.175003L 31.125 57.724998C 32.008408 57.375851 32.9501 57.197689 33.900002 57.200005L 41.575001 57.199997C 42.886078 64.523506 49.568562 69.63649 56.980091 68.986923C 64.391617 68.337357 70.082825 62.139915 70.100006 54.700005C 70.105286 53.18684 69.860313 51.683228 69.375 50.25C 69.307724 50.001015 69.082901 49.827286 68.825005 49.825001C 68.56266 49.797588 68.315315 49.952179 68.225006 50.200001C 67.580704 51.575989 66.546158 52.732246 65.25 53.525002ZM 20 64.050003C 17.238577 64.050003 15 61.811424 15 59.050003C 15 56.288574 17.238577 54.050003 20 54.050003C 22.761423 54.050003 25 56.288574 25 59.050003C 25 61.811424 22.761423 64.050003 20 64.050003ZM 40.625 17.200001C 40.625 20.651781 43.423222 23.450001 46.875 23.450001C 50.326782 23.450001 53.125 20.651781 53.125 17.200001C 53.125 13.74822 50.326782 10.95 46.875 10.95C 43.423222 10.95 40.625 13.74822 40.625 17.200001M 65.25 27.5C 63.597893 25.648073 61.231735 24.592403 58.75 24.6C 58.169937 24.585835 57.590393 24.644629 57.024998 24.775L 47.799999 27.275C 45.832603 27.746284 44.593678 29.693169 45 31.674999L 46.199997 37.724998C 46.246094 37.897923 46.352497 38.048664 46.5 38.150002C 46.667213 38.223816 46.85778 38.223816 47.024998 38.149998L 52.975002 36.075001C 53.274845 35.969719 53.454609 35.663067 53.399998 35.349998L 53.274998 34.775002C 53.157574 34.126247 53.54438 33.492317 54.174995 33.299999L 58.625 32.149998C 58.997543 32.103954 59.367126 32.255581 59.599998 32.549999C 59.922424 32.961159 60.007664 33.510468 59.825001 34L 57.474998 46.5C 57.095051 48.536667 58.438217 50.495682 60.474926 50.875412C 62.511635 51.255135 64.470505 49.911751 64.849998 47.875L 67.175003 35.525002C 67.928291 32.696545 67.204437 29.678938 65.25 27.5Z"></path></g></g></g><g id="g-root-ic_buil_4mbuin7u2dce-fill" data-item-order="-3600" transform="translate(566, 206)"><g id="ic_buil_4mbuin7u2dce-fill" stroke="none" fill="#fff0fc"><g><path d="M 49.549999 17.125C 49.154175 16.902277 48.670818 16.902277 48.274998 17.125L 42.025002 20.875C 41.640572 21.096939 41.402679 21.506111 41.400002 21.950001L 41.400002 36.950001C 41.400002 37.640358 41.959644 38.200001 42.650002 38.200001L 45.150002 38.200001C 45.840355 38.200001 46.400002 37.640358 46.400002 36.950001L 46.400002 35.700001C 46.4133 35.015228 46.965225 34.463303 47.649998 34.450001L 50.149998 34.450001C 50.840355 34.450001 51.399998 35.009644 51.399998 35.700001L 51.399998 36.950001C 51.399998 37.640358 51.959644 38.200001 52.649998 38.200001L 55.149998 38.200001C 55.840355 38.200001 56.399998 37.640358 56.399998 36.950001L 56.399998 21.950001C 56.397709 21.512451 56.171207 21.10664 55.799999 20.875ZM 52.649998 29.450001C 52.649998 30.140358 52.090355 30.699999 51.399998 30.699999L 46.400002 30.699999C 45.709644 30.699999 45.150002 30.140358 45.150002 29.450001C 45.1633 28.765228 45.715225 28.213299 46.399998 28.199999L 51.399998 28.200001C 52.090355 28.200001 52.649998 28.759644 52.649998 29.450001ZM 51.399998 24.450001L 46.400002 24.450001C 45.709644 24.450001 45.150002 23.890356 45.150002 23.200001C 45.1633 22.515228 45.715225 21.963299 46.399998 21.949999L 51.399998 21.950001C 52.090355 21.950001 52.649998 22.509644 52.649998 23.200001C 52.649998 23.890356 52.090355 24.450001 51.399998 24.450001ZM 45.825001 56.450001C 44.992088 56.463657 44.18927 56.138805 43.600235 55.54977C 43.011196 54.960728 42.686344 54.157913 42.700001 53.325001L 42.700001 47.5L 40 47.5C 38.619286 47.5 37.5 46.380714 37.5 45C 37.5 43.619286 38.619286 42.5 40 42.5L 43.950001 42.5C 46.021069 42.5 47.700001 44.178932 47.700001 46.25L 47.700001 49.900002L 57.5 43.299999C 58.207558 42.736771 59.096905 42.452179 60 42.5L 64.450005 42.5C 64.795181 42.5 65.075005 42.220177 65.075005 41.875L 65.075005 15.625C 65.077377 15.440364 64.998001 15.264125 64.858139 15.143559C 64.718285 15.022992 64.532272 14.97044 64.349998 15L 33.450001 15C 33.104824 15 32.825001 15.279821 32.825001 15.625L 32.825001 32.025002C 32.825001 33.405712 31.705711 34.525002 30.325001 34.525002C 28.944288 34.525002 27.825001 33.405712 27.825001 32.025002L 27.825001 13.75C 27.825001 11.678932 29.503933 10 31.575001 10L 66.224998 10C 67.223885 9.99334 68.184151 10.385487 68.89283 11.089472C 69.601509 11.793456 70.000023 12.751091 70 13.75L 70 43.75C 70 45.821068 68.321068 47.5 66.25 47.5L 60.324997 47.5L 47.5 55.925003C 47.002098 56.253929 46.421577 56.435886 45.825001 56.450001ZM 38.625 66.625C 37.5 66.125 33.625 64.425003 30.625 63.349998C 30.195978 63.147221 29.896042 62.744183 29.824999 62.275002C 29.588219 61.180313 29.824236 60.036541 30.474998 59.125C 33.029102 56.586525 34.305275 53.033443 33.950001 49.450001C 34.15757 46.973495 33.299213 44.525993 31.590305 42.721615C 29.881393 40.917236 27.484121 39.927227 24.999998 39.999996C 22.517754 39.926437 20.122383 40.917137 18.417267 42.722557C 16.712151 44.527973 15.85983 46.976006 16.075001 49.450001C 15.708738 53.034798 16.986561 56.59248 19.550001 59.125004C 20.192087 60.040367 20.418964 61.18383 20.175001 62.275002C 20.113361 62.740654 19.822313 63.144363 19.4 63.349998C 16.5 64.425003 12.5 66.125 11.425 66.625C 10.56792 66.984795 10.007505 67.820496 10 68.750008C 10 69.440353 10.559644 70 11.25 70L 38.75 70C 39.440353 70 40 69.440353 40 68.75C 40.001163 67.832397 39.462513 66.999939 38.625 66.625Z"></path></g></g></g><g id="g-root-ic_comp_1d1rtxb7tzj7t-fill" data-item-order="-3600" transform="translate(386, 314)"><g id="ic_comp_1d1rtxb7tzj7t-fill" stroke="none" fill="#fff0fc"><g><path d="M 52.5 49.075001C 51.119289 49.075001 50 50.194286 50 51.574997L 50 52.824997L 15 52.824997L 15 30.325001L 27.5 30.325001C 28.880713 30.325001 30 29.205711 30 27.825001C 30 26.444288 28.880713 25.325001 27.5 25.325001L 15 25.325001C 12.238576 25.325001 10 27.563576 10 30.325001L 10 56.574997C 10 59.336426 12.238576 61.574997 15 61.574997L 30 61.574997L 30 65.324997L 22.5 65.324997C 21.119287 65.324997 20 66.44429 20 67.824997C 20 69.205711 21.119287 70.324997 22.5 70.324997L 42.5 70.324997C 43.880714 70.324997 45 69.205711 45 67.824997C 45 66.44429 43.880714 65.324997 42.5 65.324997L 35 65.324997L 35 61.574997L 50 61.574997C 52.761425 61.574997 55 59.336426 55 56.574997L 55 51.574997C 55 50.194286 53.880711 49.075001 52.5 49.075001ZM 66.474998 24.775C 63.626221 21.933426 59.540794 20.712494 55.599998 21.525L 53.674999 19.6C 52.942959 18.868866 51.757046 18.868866 51.025002 19.6L 49.174999 21.475L 46.5 18.825001C 46.151779 18.46763 45.673969 18.266075 45.175003 18.266075C 44.676033 18.266075 44.198219 18.46763 43.850002 18.825001C 43.118866 19.557043 43.118866 20.742956 43.849998 21.475L 46.524998 24.125L 44.299999 26.35C 43.568871 27.082045 43.568871 28.267958 44.299999 29L 46.224998 30.9C 45.098099 36.515614 48.096882 42.144836 53.386047 44.342503C 58.675213 46.540169 64.780212 44.693596 67.964699 39.932911C 71.149178 35.17223 70.525345 28.824656 66.474998 24.775002ZM 48.25 16.35C 48.51226 16.486406 48.804432 16.555153 49.099998 16.549999C 49.806915 16.551407 50.454536 16.155104 50.775002 15.525L 52.024998 13.025C 52.461632 12.098768 52.08572 10.993131 51.174999 10.525C 50.24963 10.074013 49.133705 10.453426 48.674999 11.375L 47.424999 13.875C 46.972477 14.786489 47.341087 15.892323 48.25 16.35ZM 39.024998 16.625C 39.37307 16.981522 39.851772 17.180227 40.350002 17.175001C 40.847668 17.177349 41.325291 16.979092 41.674999 16.625C 42.406136 15.892956 42.406136 14.707044 41.674999 13.975L 39.174999 11.475C 38.436226 10.786602 37.284973 10.806913 36.570946 11.520945C 35.856915 12.234975 35.836605 13.386226 36.525002 14.125ZM 35.975002 26.549999C 36.262993 26.558832 36.548023 26.489733 36.799999 26.35L 39.299999 25.1C 40.221573 24.641296 40.60099 23.525375 40.150002 22.6C 39.68187 21.68928 38.576233 21.313364 37.649998 21.75L 35.150002 23C 34.237854 23.467716 33.870388 24.581255 34.325001 25.5C 34.629921 26.135876 35.269829 26.543091 35.975002 26.550001ZM 37.5 37.200001C 37.5 36.164467 36.660534 35.325001 35.625 35.325001L 21.875 35.325001C 20.839466 35.325001 20 36.164467 20 37.200001C 20 38.235535 20.839466 39.075001 21.875 39.075001L 35.625 39.075001C 36.654903 39.061535 37.486534 38.229904 37.5 37.200001ZM 21.875 44.075001C 20.839466 44.075001 20 44.914467 20 45.950001C 20 46.985535 20.839466 47.825001 21.875 47.825001L 29.375 47.825001C 30.410536 47.825001 31.25 46.985535 31.25 45.950001C 31.25 44.914467 30.410536 44.075001 29.375 44.075001Z"></path></g></g></g><g id="g-root-ic_cog_1ly1b9b7u55ab-fill" data-item-order="-3600" transform="translate(386, 110)"><g id="ic_cog_1ly1b9b7u55ab-fill" stroke="none" fill="#fff0fc"><g><path d="M 43.547501 14.26C 42.615238 15.216113 41.332829 15.749848 39.997498 15.737499C 38.663898 15.748482 37.383553 15.214854 36.452499 14.259999L 34.087502 11.6C 32.612499 10.12 30.539999 9.53 28.475 10.4175C 26.699999 11.3025 25.225 13.077499 25.5175 15.1475L 25.815001 18.692499C 25.815001 20.172499 25.2225 21.355 24.335001 22.5375C 23.450001 23.422501 21.970001 24.012501 20.4925 24.012501L 16.945 23.719999C 14.8775 23.719999 13.1025 24.9025 12.215 26.674999C 11.33 28.450001 11.92 30.8125 13.3975 32.2925L 16.059999 34.657501C 16.945 35.5425 17.535 37.022499 17.535 38.202499C 17.535 39.682499 16.945 40.864998 16.059999 41.752502L 13.3975 44.114998C 11.9225 45.592503 11.33 47.665001 12.215 49.732498C 13.1025 51.5075 14.8775 52.982502 16.945 52.6875L 20.494999 52.392502C 21.970001 52.392502 23.1525 52.982502 24.335001 53.870003C 25.2225 54.7575 25.815001 56.235001 25.815001 57.712498L 25.5175 61.262497C 25.5175 63.330002 26.699999 65.104996 28.475 65.989998C 30.25 66.877502 32.612499 66.285004 34.09 64.807503L 35.105 63.665001C 35.787498 64.290001 36.5975 64.772499 37.502502 65.089996L 37.502502 67.375C 37.502502 68.755714 38.621788 69.875 40.002502 69.875C 41.383213 69.875 42.502502 68.755714 42.502502 67.375L 42.502502 65.059998C 43.389999 64.730003 44.182503 64.235001 44.852501 63.612499L 45.915001 64.807503C 47.389999 66.285004 49.7575 66.877502 51.529999 65.989998C 53.338737 65.108063 54.48658 63.272293 54.487499 61.259998L 54.190002 57.712498C 54.190002 56.237503 54.782501 54.7575 55.669998 53.870003C 56.852497 52.985001 58.035004 52.395 59.512501 52.395L 63.060001 52.6875C 65.127502 52.985001 66.902496 51.504997 67.790001 49.732498C 68.674995 47.662498 68.084999 45.595001 66.607498 44.114998L 63.945 41.75C 62.991062 40.81852 62.458359 39.538227 62.469997 38.204998C 62.470001 37.022499 63.060001 35.5425 63.945 34.655003L 66.607498 32.2925C 68.082497 30.8125 68.674995 28.4475 67.790001 26.674999C 66.907356 24.867235 65.071732 23.720453 63.059998 23.719999L 59.510002 24.014999C 58.035004 24.014999 56.555 23.422501 55.669998 22.5375C 54.782501 21.355 54.190002 20.172499 54.190002 18.692499L 54.487499 15.1475C 54.780003 13.075 53.299999 11.3 51.525002 10.4175C 49.4575 9.53 47.387501 10.12 45.91 11.6L 43.545002 14.26ZM 27.967499 41.822502C 27.967213 35.17762 33.353874 29.79073 39.998749 29.79073C 46.643631 29.79073 52.030289 35.17762 52.029999 41.822502C 52.029716 48.466972 46.643223 53.85323 39.998749 53.85323C 33.354279 53.85323 27.967787 48.466972 27.967499 41.822502ZM 36.592499 58.34L 36.592499 57.234997C 38.83807 57.729755 41.164429 57.729755 43.41 57.234997L 43.41 58.34C 43.41 60.152504 41.959999 61.75 40 61.75C 37.974998 61.75 36.59 60.364998 36.59 58.34Z"></path></g></g></g><g id="g-root-ic_chec_v492kf7tmwp3-fill" data-item-order="-3600" transform="translate(566, 806)"><g id="ic_chec_v492kf7tmwp3-fill" stroke="none" fill="#fff0fc"><g><path d="M 10 10M 61.774998 39.625L 66.925003 35.350002C 68.127426 34.322189 68.555595 32.650387 67.99527 31.171112C 67.434937 29.691837 66.006615 28.723251 64.425003 28.75L 49.275002 28.75C 48.748711 28.749775 48.278938 28.419935 48.099998 27.924999L 42.625 12.5C 42.077084 11.034596 40.676991 10.063333 39.112503 10.063333C 37.548012 10.063333 36.147919 11.034596 35.600002 12.5L 30.150002 27.924999C 29.971062 28.419935 29.501287 28.749775 28.975 28.75L 13.75 28.75C 12.164681 28.754456 10.753435 29.755341 10.225 31.25C 9.694511 32.740173 10.14261 34.403118 11.35 35.424999L 24.299999 46.174999C 24.698198 46.499969 24.856892 47.035561 24.700001 47.525002L 19.25 63.800003C 18.73761 65.343201 19.278147 67.040794 20.588491 68.003609C 21.898834 68.966431 23.68038 68.975067 25 68.025002L 38.150002 58.375C 40.228828 65.39048 46.739967 70.151367 54.055496 70.004967C 61.371021 69.858574 67.686478 64.840996 69.482971 57.747974C 71.279457 50.654949 68.113861 43.236053 61.75 39.625ZM 53.75 65C 47.536797 65 42.5 59.963203 42.5 53.75C 42.5 47.536797 47.536797 42.5 53.75 42.5C 59.963203 42.5 65 47.536797 65 53.75C 64.986252 59.9575 59.9575 64.986252 53.75 65ZM 10 10M 57.924999 49.349998L 51.975002 56.849998L 48.825001 53.699997C 48.086227 53.011604 46.934975 53.031918 46.220947 53.745949C 45.506916 54.459976 45.486603 55.611229 46.174999 56.350002L 49.549999 59.75C 50.261349 60.435635 51.229343 60.788685 52.215076 60.722012C 53.200806 60.655346 54.11245 60.175171 54.724998 59.400002L 60.825001 51.900002C 61.325119 51.391724 61.493649 50.643764 61.259838 49.970123C 61.02602 49.296478 60.430336 48.81377 59.722862 48.72464C 59.015385 48.635513 58.318592 48.955399 57.924999 49.550003Z"></path></g></g></g><g id="g-root-tx_6_mbqfr37u2cqr-fill" data-item-order="0" transform="translate(284, 410)"><g id="tx_6_mbqfr37u2cqr-fill" stroke="none" fill="#fff0fc"><g><text style="font-style: normal; font-variant-caps: normal; font-weight: bold; font-width: normal; font-size: 30px; line-height: normal; font-family: &quot;DM Mono Regular&quot;, monospace; font-size-adjust: none; font-kerning: auto; font-variant-alternates: normal; font-variant-ligatures: normal; font-variant-numeric: normal; font-variant-east-asian: normal; font-variant-position: normal; font-variant-emoji: normal; font-feature-settings: normal; font-optical-sizing: auto; font-variation-settings: normal; white-space: pre;"><tspan x="12.58" y="47" dominant-baseline="ideographic">6</tspan></text></g></g></g><g id="g-root-tx_collectu_18k2wjj7u2brh-fill" data-item-order="0" transform="translate(782, 344)"><g id="tx_collectu_18k2wjj7u2brh-fill" stroke="none" fill="#fff0fc"><g><text style="font-style: normal; font-variant-caps: normal; font-weight: normal; font-width: normal; font-size: 15px; line-height: normal; font-family: &quot;DM Mono Regular&quot;, monospace; font-size-adjust: none; font-kerning: auto; font-variant-alternates: normal; font-variant-ligatures: normal; font-variant-numeric: normal; font-variant-east-asian: normal; font-variant-position: normal; font-variant-emoji: normal; font-feature-settings: normal; font-optical-sizing: auto; font-variation-settings: normal; white-space: pre;"><tspan x="12" y="29" dominant-baseline="ideographic">Collect user </tspan><tspan x="12" y="47" dominant-baseline="ideographic">feedback to </tspan><tspan x="12" y="65" dominant-baseline="ideographic">understand their </tspan><tspan x="12" y="83" dominant-baseline="ideographic">experience and </tspan><tspan x="12" y="101" dominant-baseline="ideographic">identify areas for </tspan><tspan x="12" y="119" dominant-baseline="ideographic">improvement.</tspan></text></g></g></g><g id="g-root-tx_continuo_4myblr7tzjew-fill" data-item-order="0" transform="translate(74, 434)"><g id="tx_continuo_4myblr7tzjew-fill" stroke="none" fill="#fff0fc"><g><text style="font-style: normal; font-variant-caps: normal; font-weight: normal; font-width: normal; font-size: 15px; line-height: normal; font-family: &quot;DM Mono Regular&quot;, monospace; font-size-adjust: none; font-kerning: auto; font-variant-alternates: normal; font-variant-ligatures: normal; font-variant-numeric: normal; font-variant-east-asian: normal; font-variant-position: normal; font-variant-emoji: normal; font-feature-settings: normal; font-optical-sizing: auto; font-variation-settings: normal; white-space: pre;"><tspan x="68" y="29" dominant-baseline="ideographic">Continuously </tspan><tspan x="14" y="47" dominant-baseline="ideographic">monitor the system </tspan><tspan x="23" y="65" dominant-baseline="ideographic">for any issues or </tspan><tspan x="86" y="83" dominant-baseline="ideographic">anomalies.</tspan></text></g></g></g><g id="g-root-tx_ensureal_1q6d4cf7tmvwu-fill" data-item-order="0" transform="translate(782, 926)"><g id="tx_ensureal_1q6d4cf7tmvwu-fill" stroke="none" fill="#fff0fc"><g><text style="font-style: normal; font-variant-caps: normal; font-weight: normal; font-width: normal; font-size: 15px; line-height: normal; font-family: &quot;DM Mono Regular&quot;, monospace; font-size-adjust: none; font-kerning: auto; font-variant-alternates: normal; font-variant-ligatures: normal; font-variant-numeric: normal; font-variant-east-asian: normal; font-variant-position: normal; font-variant-emoji: normal; font-feature-settings: normal; font-optical-sizing: auto; font-variation-settings: normal; white-space: pre;"><tspan x="12" y="32" dominant-baseline="ideographic">Ensure all tests </tspan><tspan x="12" y="50" dominant-baseline="ideographic">are successful to </tspan><tspan x="12" y="68" dominant-baseline="ideographic">validate the </tspan><tspan x="12" y="86" dominant-baseline="ideographic">system's </tspan><tspan x="12" y="104" dominant-baseline="ideographic">functionality.</tspan></text></g></g></g><g id="g-root-tx_5_1czwenz7tzk7i-fill" data-item-order="0" transform="translate(716, 500)"><g id="tx_5_1czwenz7tzk7i-fill" stroke="none" fill="#fff0fc"><g><text style="font-style: normal; font-variant-caps: normal; font-weight: bold; font-width: normal; font-size: 30px; line-height: normal; font-family: &quot;DM Mono Regular&quot;, monospace; font-size-adjust: none; font-kerning: auto; font-variant-alternates: normal; font-variant-ligatures: normal; font-variant-numeric: normal; font-variant-east-asian: normal; font-variant-position: normal; font-variant-emoji: normal; font-feature-settings: normal; font-optical-sizing: auto; font-variation-settings: normal; white-space: pre;"><tspan x="12.58" y="47" dominant-baseline="ideographic">5</tspan></text></g></g></g><g id="g-root-tx_meetacce_qn6m9r7twqa3-fill" data-item-order="0" transform="translate(782, 488)"><g id="tx_meetacce_qn6m9r7twqa3-fill" stroke="none" fill="#fff0fc"><g><text style="font-style: normal; font-variant-caps: normal; font-weight: bold; font-width: normal; font-size: 20px; line-height: normal; font-family: &quot;DM Mono Regular&quot;, monospace; font-size-adjust: none; font-kerning: auto; font-variant-alternates: normal; font-variant-ligatures: normal; font-variant-numeric: normal; font-variant-east-asian: normal; font-variant-position: normal; font-variant-emoji: normal; font-feature-settings: normal; font-optical-sizing: auto; font-variation-settings: normal; white-space: pre;"><tspan x="12" y="35" dominant-baseline="ideographic">Meet </tspan><tspan x="12" y="59" dominant-baseline="ideographic">Accessibility</tspan></text></g></g></g><g id="g-root-tx_ensureth_w2m77twqa4-fill" data-item-order="0" transform="translate(782, 548)"><g id="tx_ensureth_w2m77twqa4-fill" stroke="none" fill="#fff0fc"><g><text style="font-style: normal; font-variant-caps: normal; font-weight: normal; font-width: normal; font-size: 15px; line-height: normal; font-family: &quot;DM Mono Regular&quot;, monospace; font-size-adjust: none; font-kerning: auto; font-variant-alternates: normal; font-variant-ligatures: normal; font-variant-numeric: normal; font-variant-east-asian: normal; font-variant-position: normal; font-variant-emoji: normal; font-feature-settings: normal; font-optical-sizing: auto; font-variation-settings: normal; white-space: pre;"><tspan x="12" y="32" dominant-baseline="ideographic">Ensure the system </tspan><tspan x="12" y="50" dominant-baseline="ideographic">is accessible to </tspan><tspan x="12" y="68" dominant-baseline="ideographic">all users, </tspan><tspan x="12" y="86" dominant-baseline="ideographic">including those </tspan><tspan x="12" y="104" dominant-baseline="ideographic">with disabilities.</tspan></text></g></g></g><g id="g-root-tx_meetperf_qqxgsf7ttwr2-fill" data-item-order="0" transform="translate(98, 596)"><g id="tx_meetperf_qqxgsf7ttwr2-fill" stroke="none" fill="#fff0fc"><g><text style="font-style: normal; font-variant-caps: normal; font-weight: bold; font-width: normal; font-size: 20px; line-height: normal; font-family: &quot;DM Mono Regular&quot;, monospace; font-size-adjust: none; font-kerning: auto; font-variant-alternates: normal; font-variant-ligatures: normal; font-variant-numeric: normal; font-variant-east-asian: normal; font-variant-position: normal; font-variant-emoji: normal; font-feature-settings: normal; font-optical-sizing: auto; font-variation-settings: normal; white-space: pre;"><tspan x="101" y="35" dominant-baseline="ideographic">Meet </tspan><tspan x="13" y="59" dominant-baseline="ideographic">Performance</tspan></text></g></g></g><g id="g-root-tx_7_6ice77u54w8-fill" data-item-order="0" transform="translate(716, 296)"><g id="tx_7_6ice77u54w8-fill" stroke="none" fill="#fff0fc"><g><text style="font-style: normal; font-variant-caps: normal; font-weight: bold; font-width: normal; font-size: 30px; line-height: normal; font-family: &quot;DM Mono Regular&quot;, monospace; font-size-adjust: none; font-kerning: auto; font-variant-alternates: normal; font-variant-ligatures: normal; font-variant-numeric: normal; font-variant-east-asian: normal; font-variant-position: normal; font-variant-emoji: normal; font-feature-settings: normal; font-optical-sizing: auto; font-variation-settings: normal; white-space: pre;"><tspan x="12.58" y="47" dominant-baseline="ideographic">7</tspan></text></g></g></g><g id="g-root-tx_4_1d3n96n7tvchu-fill" data-item-order="0" transform="translate(284, 608)"><g id="tx_4_1d3n96n7tvchu-fill" stroke="none" fill="#fff0fc"><g><text style="font-style: normal; font-variant-caps: normal; font-weight: bold; font-width: normal; font-size: 30px; line-height: normal; font-family: &quot;DM Mono Regular&quot;, monospace; font-size-adjust: none; font-kerning: auto; font-variant-alternates: normal; font-variant-ligatures: normal; font-variant-numeric: normal; font-variant-east-asian: normal; font-variant-position: normal; font-variant-emoji: normal; font-feature-settings: normal; font-optical-sizing: auto; font-variation-settings: normal; white-space: pre;"><tspan x="12.58" y="47" dominant-baseline="ideographic">4</tspan></text></g></g></g><g id="g-root-tx_developa_hz1b277u54p6-fill" data-item-order="0" transform="translate(62, 254)"><g id="tx_developa_hz1b277u54p6-fill" stroke="none" fill="#fff0fc"><g><text style="font-style: normal; font-variant-caps: normal; font-weight: normal; font-width: normal; font-size: 15px; line-height: normal; font-family: &quot;DM Mono Regular&quot;, monospace; font-size-adjust: none; font-kerning: auto; font-variant-alternates: normal; font-variant-ligatures: normal; font-variant-numeric: normal; font-variant-east-asian: normal; font-variant-position: normal; font-variant-emoji: normal; font-feature-settings: normal; font-optical-sizing: auto; font-variation-settings: normal; white-space: pre;"><tspan x="26" y="32" dominant-baseline="ideographic">Develop a plan for </tspan><tspan x="17" y="50" dominant-baseline="ideographic">future enhancements </tspan><tspan x="35" y="68" dominant-baseline="ideographic">based on feedback </tspan><tspan x="98" y="86" dominant-baseline="ideographic">and system </tspan><tspan x="80" y="104" dominant-baseline="ideographic">performance.</tspan></text></g></g></g><g id="g-root-tx_confirmt_909xdr7ttvyf-fill" data-item-order="0" transform="translate(86, 656)"><g id="tx_confirmt_909xdr7ttvyf-fill" stroke="none" fill="#fff0fc"><g><text style="font-style: normal; font-variant-caps: normal; font-weight: normal; font-width: normal; font-size: 15px; line-height: normal; font-family: &quot;DM Mono Regular&quot;, monospace; font-size-adjust: none; font-kerning: auto; font-variant-alternates: normal; font-variant-ligatures: normal; font-variant-numeric: normal; font-variant-east-asian: normal; font-variant-position: normal; font-variant-emoji: normal; font-feature-settings: normal; font-optical-sizing: auto; font-variation-settings: normal; white-space: pre;"><tspan x="20" y="29" dominant-baseline="ideographic">Confirm that the </tspan><tspan x="20" y="47" dominant-baseline="ideographic">system meets all </tspan><tspan x="65" y="65" dominant-baseline="ideographic">performance </tspan><tspan x="47" y="83" dominant-baseline="ideographic">requirements.</tspan></text></g></g></g><g id="g-root-tx_3_1hd80fz7ttwr1-fill" data-item-order="0" transform="translate(716, 704)"><g id="tx_3_1hd80fz7ttwr1-fill" stroke="none" fill="#fff0fc"><g><text style="font-style: normal; font-variant-caps: normal; font-weight: bold; font-width: normal; font-size: 30px; line-height: normal; font-family: &quot;DM Mono Regular&quot;, monospace; font-size-adjust: none; font-kerning: auto; font-variant-alternates: normal; font-variant-ligatures: normal; font-variant-numeric: normal; font-variant-east-asian: normal; font-variant-position: normal; font-variant-emoji: normal; font-feature-settings: normal; font-optical-sizing: auto; font-variation-settings: normal; white-space: pre;"><tspan x="12.58" y="47" dominant-baseline="ideographic">3</tspan></text></g></g></g><g id="g-root-tx_security_meut6n7tr408-fill" data-item-order="0" transform="translate(782, 692)"><g id="tx_security_meut6n7tr408-fill" stroke="none" fill="#fff0fc"><g><text style="font-style: normal; font-variant-caps: normal; font-weight: bold; font-width: normal; font-size: 20px; line-height: normal; font-family: &quot;DM Mono Regular&quot;, monospace; font-size-adjust: none; font-kerning: auto; font-variant-alternates: normal; font-variant-ligatures: normal; font-variant-numeric: normal; font-variant-east-asian: normal; font-variant-position: normal; font-variant-emoji: normal; font-feature-settings: normal; font-optical-sizing: auto; font-variation-settings: normal; white-space: pre;"><tspan x="12" y="35" dominant-baseline="ideographic">Security </tspan><tspan x="12" y="59" dominant-baseline="ideographic">Review</tspan></text></g></g></g><g id="g-root-tx_8_253y77tmxvp-fill" data-item-order="0" transform="translate(284, 206)"><g id="tx_8_253y77tmxvp-fill" stroke="none" fill="#fff0fc"><g><text style="font-style: normal; font-variant-caps: normal; font-weight: bold; font-width: normal; font-size: 30px; line-height: normal; font-family: &quot;DM Mono Regular&quot;, monospace; font-size-adjust: none; font-kerning: auto; font-variant-alternates: normal; font-variant-ligatures: normal; font-variant-numeric: normal; font-variant-east-asian: normal; font-variant-position: normal; font-variant-emoji: normal; font-feature-settings: normal; font-optical-sizing: auto; font-variation-settings: normal; white-space: pre;"><tspan x="12.58" y="47" dominant-baseline="ideographic">8</tspan></text></g></g></g><g id="g-root-tx_conducta_1utobi77tr3t5-fill" data-item-order="0" transform="translate(782, 752)"><g id="tx_conducta_1utobi77tr3t5-fill" stroke="none" fill="#fff0fc"><g><text style="font-style: normal; font-variant-caps: normal; font-weight: normal; font-width: normal; font-size: 15px; line-height: normal; font-family: &quot;DM Mono Regular&quot;, monospace; font-size-adjust: none; font-kerning: auto; font-variant-alternates: normal; font-variant-ligatures: normal; font-variant-numeric: normal; font-variant-east-asian: normal; font-variant-position: normal; font-variant-emoji: normal; font-feature-settings: normal; font-optical-sizing: auto; font-variation-settings: normal; white-space: pre;"><tspan x="12" y="32" dominant-baseline="ideographic">Conduct a thorough </tspan><tspan x="12" y="50" dominant-baseline="ideographic">security review to </tspan><tspan x="12" y="68" dominant-baseline="ideographic">identify and </tspan><tspan x="12" y="86" dominant-baseline="ideographic">address </tspan><tspan x="12" y="104" dominant-baseline="ideographic">vulnerabilities.</tspan></text></g></g></g><g id="g-root-tx_complete_18lybsv7toa2p-fill" data-item-order="0" transform="translate(74, 794)"><g id="tx_complete_18lybsv7toa2p-fill" stroke="none" fill="#fff0fc"><g><text style="font-style: normal; font-variant-caps: normal; font-weight: bold; font-width: normal; font-size: 20px; line-height: normal; font-family: &quot;DM Mono Regular&quot;, monospace; font-size-adjust: none; font-kerning: auto; font-variant-alternates: normal; font-variant-ligatures: normal; font-variant-numeric: normal; font-variant-east-asian: normal; font-variant-position: normal; font-variant-emoji: normal; font-feature-settings: normal; font-optical-sizing: auto; font-variation-settings: normal; white-space: pre;"><tspan x="75" y="35" dominant-baseline="ideographic">Complete </tspan><tspan x="12" y="59" dominant-baseline="ideographic">Documentation</tspan></text></g></g></g><g id="g-root-tx_planenha_18lbupr7u54p5-fill" data-item-order="0" transform="translate(86, 194)"><g id="tx_planenha_18lbupr7u54p5-fill" stroke="none" fill="#fff0fc"><g><text style="font-style: normal; font-variant-caps: normal; font-weight: bold; font-width: normal; font-size: 20px; line-height: normal; font-family: &quot;DM Mono Regular&quot;, monospace; font-size-adjust: none; font-kerning: auto; font-variant-alternates: normal; font-variant-ligatures: normal; font-variant-numeric: normal; font-variant-east-asian: normal; font-variant-position: normal; font-variant-emoji: normal; font-feature-settings: normal; font-optical-sizing: auto; font-variation-settings: normal; white-space: pre;"><tspan x="113" y="35" dominant-baseline="ideographic">Plan </tspan><tspan x="13" y="59" dominant-baseline="ideographic">Enhancements</tspan></text></g></g></g><g id="g-root-tx_2_145iclb7tr4sv-fill" data-item-order="0" transform="translate(284, 806)"><g id="tx_2_145iclb7tr4sv-fill" stroke="none" fill="#fff0fc"><g><text style="font-style: normal; font-variant-caps: normal; font-weight: bold; font-width: normal; font-size: 30px; line-height: normal; font-family: &quot;DM Mono Regular&quot;, monospace; font-size-adjust: none; font-kerning: auto; font-variant-alternates: normal; font-variant-ligatures: normal; font-variant-numeric: normal; font-variant-east-asian: normal; font-variant-position: normal; font-variant-emoji: normal; font-feature-settings: normal; font-optical-sizing: auto; font-variation-settings: normal; white-space: pre;"><tspan x="12.58" y="47" dominant-baseline="ideographic">2</tspan></text></g></g></g><g id="g-root-tx_finalize_hzns5b7toa2q-fill" data-item-order="0" transform="translate(62, 854)"><g id="tx_finalize_hzns5b7toa2q-fill" stroke="none" fill="#fff0fc"><g><text style="font-style: normal; font-variant-caps: normal; font-weight: normal; font-width: normal; font-size: 15px; line-height: normal; font-family: &quot;DM Mono Regular&quot;, monospace; font-size-adjust: none; font-kerning: auto; font-variant-alternates: normal; font-variant-ligatures: normal; font-variant-numeric: normal; font-variant-east-asian: normal; font-variant-position: normal; font-variant-emoji: normal; font-feature-settings: normal; font-optical-sizing: auto; font-variation-settings: normal; white-space: pre;"><tspan x="17" y="32" dominant-baseline="ideographic">Finalize and verify </tspan><tspan x="17" y="50" dominant-baseline="ideographic">the accuracy of all </tspan><tspan x="62" y="68" dominant-baseline="ideographic">documentation.</tspan></text></g></g></g><g id="g-root-tx_achievin_18ntr277tlhjg-fill" data-item-order="0" transform="translate(266, 38)"><g id="tx_achievin_18ntr277tlhjg-fill" stroke="none" fill="#fff0fc"><g><text style="font-style: normal; font-variant-caps: normal; font-weight: bold; font-width: normal; font-size: 25px; line-height: normal; font-family: &quot;DM Mono Regular&quot;, monospace; font-size-adjust: none; font-kerning: auto; font-variant-alternates: normal; font-variant-ligatures: normal; font-variant-numeric: normal; font-variant-east-asian: normal; font-variant-position: normal; font-variant-emoji: normal; font-feature-settings: normal; font-optical-sizing: auto; font-variation-settings: normal; white-space: pre;"><tspan x="12.37" y="44" dominant-baseline="ideographic">Achieving Successful Deployment</tspan></text></g></g></g><g id="g-root-tx_1_74thb7toa9s-fill" data-item-order="0" transform="translate(716, 902)"><g id="tx_1_74thb7toa9s-fill" stroke="none" fill="#fff0fc"><g><text style="font-style: normal; font-variant-caps: normal; font-weight: bold; font-width: normal; font-size: 30px; line-height: normal; font-family: &quot;DM Mono Regular&quot;, monospace; font-size-adjust: none; font-kerning: auto; font-variant-alternates: normal; font-variant-ligatures: normal; font-variant-numeric: normal; font-variant-east-asian: normal; font-variant-position: normal; font-variant-emoji: normal; font-feature-settings: normal; font-optical-sizing: auto; font-variation-settings: normal; white-space: pre;"><tspan x="12.58" y="47" dominant-baseline="ideographic">1</tspan></text></g></g></g><g id="g-root-tx_passallt_dbq3wf7tmww5-fill" data-item-order="0" transform="translate(782, 890)"><g id="tx_passallt_dbq3wf7tmww5-fill" stroke="none" fill="#fff0fc"><g><text style="font-style: normal; font-variant-caps: normal; font-weight: bold; font-width: normal; font-size: 20px; line-height: normal; font-family: &quot;DM Mono Regular&quot;, monospace; font-size-adjust: none; font-kerning: auto; font-variant-alternates: normal; font-variant-ligatures: normal; font-variant-numeric: normal; font-variant-east-asian: normal; font-variant-position: normal; font-variant-emoji: normal; font-feature-settings: normal; font-optical-sizing: auto; font-variation-settings: normal; white-space: pre;"><tspan x="12" y="35" dominant-baseline="ideographic">Pass All Tests</tspan></text></g></g></g><g id="g-root-tx_monitori_v98v9b7tzjev-fill" data-item-order="0" transform="translate(62, 398)"><g id="tx_monitori_v98v9b7tzjev-fill" stroke="none" fill="#fff0fc"><g><text style="font-style: normal; font-variant-caps: normal; font-weight: bold; font-width: normal; font-size: 20px; line-height: normal; font-family: &quot;DM Mono Regular&quot;, monospace; font-size-adjust: none; font-kerning: auto; font-variant-alternates: normal; font-variant-ligatures: normal; font-variant-numeric: normal; font-variant-east-asian: normal; font-variant-position: normal; font-variant-emoji: normal; font-feature-settings: normal; font-optical-sizing: auto; font-variation-settings: normal; white-space: pre;"><tspan x="12" y="35" dominant-baseline="ideographic">Monitor Issues</tspan></text></g></g></g><g id="g-root-tx_gatherfe_59e7z7u2byk-fill" data-item-order="0" transform="translate(782, 284)"><g id="tx_gatherfe_59e7z7u2byk-fill" stroke="none" fill="#fff0fc"><g><text style="font-style: normal; font-variant-caps: normal; font-weight: bold; font-width: normal; font-size: 20px; line-height: normal; font-family: &quot;DM Mono Regular&quot;, monospace; font-size-adjust: none; font-kerning: auto; font-variant-alternates: normal; font-variant-ligatures: normal; font-variant-numeric: normal; font-variant-east-asian: normal; font-variant-position: normal; font-variant-emoji: normal; font-feature-settings: normal; font-optical-sizing: auto; font-variation-settings: normal; white-space: pre;"><tspan x="12" y="35" dominant-baseline="ideographic">Gather </tspan><tspan x="12" y="59" dominant-baseline="ideographic">Feedback</tspan></text></g></g></g><g id="g-root-cp_8_g-8_1usfdbz7tliis-stroke" data-item-order="-992006" transform="translate(350, 183.699951171875)"><g id="cp_8_g-8_1usfdbz7tliis-stroke" fill="none" stroke-linecap="round" stroke-linejoin="round" stroke-miterlimit="4" stroke="#fff0fc" stroke-width="2"><g><path d="M 15.3686 45.960349C 11.7895 44.590649 10 42.795349 10 41.000049C 10 39.204749 11.7895 37.409449 15.3686 36.039749L 78.0391 12.054649C 85.1972 9.315149 96.8028 9.315149 103.9609 12.054649L 166.6314 36.039749C 170.2061 37.407749 171.9956 39.200349 172 40.993349C 172 40.997849 172 41.002249 172 41.006749C 171.9956 42.799749 170.2061 44.592349 166.6314 45.960349L 159.2234 48.795549L 116.5 65.146449L 103.9609 69.945449C 96.8028 72.684949 85.1972 72.684949 78.0391 69.945449L 15.3686 45.960349ZM 78.0391 69.945449L 15.3686 45.960349C 11.7895 44.590649 10 42.795349 10 41.000049L 10 61.500049C 10 63.295349 11.7895 65.090649 15.3686 66.460349L 78.0391 90.445449C 85.1972 93.184949 96.8028 93.184949 103.9609 90.445449L 116.5 85.646449L 116.5 65.146449L 103.9609 69.945449C 96.8028 72.684949 85.1972 72.684949 78.0391 69.945449ZM 172 41.006749C 171.9956 42.799749 170.2061 44.592349 166.6314 45.960349L 159.2234 48.795549L 172 55.186549L 172 41.006749Z"></path></g></g></g><g id="g-root-cp_7_g-7_1lwsd337tljbi-stroke" data-item-order="-992002" transform="translate(456.44140625, 222.501953125)"><g id="cp_7_g-7_1lwsd337tljbi-stroke" fill="none" stroke-linecap="round" stroke-linejoin="round" stroke-miterlimit="4" stroke="#fff0fc" stroke-width="2"><g><path d="M 67.2522 77.4884L 67.2522 85.0116L 110.0841 68.7503L 110.0718 61.2269L 67.2522 77.4884ZM 95.7987 54.0837L 52.9791 70.3453L 67.2522 77.4884L 110.0718 61.2269L 95.7987 54.0837ZM 52.9791 62.8221L 52.9791 70.3453L 95.7987 54.0837L 95.7986 46.5607L 52.9791 62.8221ZM 81.5377 39.4174L 38.7059 55.6794L 52.9791 62.8221L 95.7986 46.5607L 81.5377 39.4174ZM 38.6936 48.1558L 38.7059 55.6794L 81.5377 39.4174L 81.5377 31.8946L 38.6936 48.1558ZM 24.4205 41.0132L 34.9136 46.2536L 38.6936 48.1558L 81.5377 31.8946L 67.2523 24.7519L 24.4205 41.0132ZM 24.4205 33.49L 24.4205 41.0132L 67.2523 24.7519L 67.2523 17.2286L 24.4205 33.49ZM 10 26.2859L 24.4205 33.49L 67.2523 17.2286L 52.795 10L 10 26.2859ZM 70.9272 106.4584C 67.5357 105.1604 65.7511 103.4804 65.5733 101.7803C 65.5635 101.6863 65.5586 101.5922 65.5586 101.498C 65.5586 99.7028 67.3481 97.9075 70.9272 96.5377L 81.8723 92.3489L 124.5732 76.0065L 133.5977 72.5527C 140.7558 69.8132 152.3614 69.8132 159.5195 72.5527L 222.19 96.5377C 225.7646 97.9058 227.5542 99.6983 227.5586 101.4914C 227.5586 101.4958 227.5586 101.5003 227.5586 101.5047C 227.5542 103.2978 225.7646 105.0903 222.19 106.4584L 159.5195 130.4434C 152.3614 133.1829 140.7558 133.1829 133.5977 130.4434L 121.5586 125.8358L 78.8092 109.475L 70.9272 106.4584ZM 24.4205 41.0132L 24.4205 33.49L 10 26.2859L 10 46.8091L 65.5719 103.7632L 65.5733 101.7803C 65.5635 101.6863 65.5586 101.5922 65.5586 101.498C 65.5586 99.7028 67.3481 97.9075 70.9272 96.5377L 81.8723 92.3489L 67.2522 85.0116L 67.2522 77.4884L 52.9791 70.3453L 52.9791 62.8221L 38.7059 55.6794L 38.6936 48.1558L 34.9136 46.2536L 24.4205 41.0132ZM 110.0841 68.7503L 67.2522 85.0116L 81.8723 92.3489L 124.5732 76.0065L 110.0841 68.7503ZM 222.19 106.4584L 159.5195 130.4434C 152.3614 133.1829 140.7558 133.1829 133.5977 130.4434L 121.5586 125.8358L 121.5586 146.3358L 133.5977 150.9434C 140.7558 153.6829 152.3614 153.6829 159.5195 150.9434L 222.19 126.9584C 225.7646 125.5903 227.5542 123.7978 227.5586 122.0047L 227.5586 101.5047C 227.5542 103.2978 225.7646 105.0903 222.19 106.4584ZM 65.5733 101.7803L 65.5719 103.7632L 65.5629 116.1146L 78.8092 109.475L 70.9272 106.4584C 67.5357 105.1604 65.7511 103.4804 65.5733 101.7803ZM 227.5586 101.4914L 227.5586 101.5047L 227.5586 101.4914Z"></path></g></g></g><g id="g-root-cp_6_g-6_1hhlc1r7tlgy0-stroke" data-item-order="-991998" transform="translate(350.44140625, 322)"><g id="cp_6_g-6_1hhlc1r7tlgy0-stroke" fill="none" stroke-linecap="round" stroke-linejoin="round" stroke-miterlimit="4" stroke="#fff0fc" stroke-width="2"><g><path d="M 170.306392 77.4884L 170.306392 85.0116L 127.474492 68.7503L 127.486792 61.2269L 170.306392 77.4884ZM 141.759892 54.0837L 184.579492 70.3453L 170.306392 77.4884L 127.486792 61.2269L 141.759892 54.0837ZM 184.579492 62.8221L 184.579492 70.3453L 141.759892 54.0837L 141.759992 46.5607L 184.579492 62.8221ZM 156.020892 39.4174L 198.852692 55.6794L 184.579492 62.8221L 141.759992 46.5607L 156.020892 39.4174ZM 198.864992 48.1558L 198.852692 55.6794L 156.020892 39.4174L 156.020892 31.8946L 198.864992 48.1558ZM 213.138192 41.0132L 202.644992 46.2536L 198.864992 48.1558L 156.020892 31.8946L 170.306392 24.7519L 213.138192 41.0132ZM 213.138192 33.49L 213.138192 41.0132L 170.306392 24.7519L 170.306292 17.2286L 213.138192 33.49ZM 227.558592 26.2859L 213.138192 33.49L 170.306292 17.2286L 184.763592 10L 227.558592 26.2859ZM 166.631392 106.4584C 170.022892 105.1604 171.807492 103.4804 171.985292 101.7803C 171.995092 101.6863 171.999992 101.5922 171.999992 101.498C 171.999992 99.7028 170.210492 97.9075 166.631392 96.5377L 155.686292 92.3489L 112.985392 76.0065L 103.960892 72.5527C 96.802792 69.8132 85.197192 69.8132 78.039092 72.5527L 15.368592 96.5377C 11.793992 97.9058 10.004392 99.6983 9.999992 101.4914C 9.999992 101.4958 9.999992 101.5003 9.999992 101.5047C 10.004392 103.2978 11.793992 105.0903 15.368592 106.4584L 78.039092 130.4434C 85.197192 133.1829 96.802792 133.1829 103.960892 130.4434L 115.999992 125.8358L 158.749392 109.475L 166.631392 106.4584ZM 213.138192 41.0132L 213.138192 33.49L 227.558592 26.2859L 227.558592 46.8091L 171.986692 103.7632L 171.985292 101.7803C 171.995092 101.6863 171.999992 101.5922 171.999992 101.498C 171.999992 99.7028 170.210492 97.9075 166.631392 96.5377L 155.686292 92.3489L 170.306392 85.0116L 170.306392 77.4884L 184.579492 70.3453L 184.579492 62.8221L 198.852692 55.6794L 198.864992 48.1558L 202.644992 46.2536L 213.138192 41.0132ZM 127.474492 68.7503L 170.306392 85.0116L 155.686292 92.3489L 112.985392 76.0065L 127.474492 68.7503ZM 15.368592 106.4584L 78.039092 130.4434C 85.197192 133.1829 96.802792 133.1829 103.960892 130.4434L 115.999992 125.8358L 115.999992 146.3358L 103.960892 150.9434C 96.802792 153.6829 85.197192 153.6829 78.039092 150.9434L 15.368592 126.9584C 11.793992 125.5903 10.004392 123.7978 9.999992 122.0047L 9.999992 101.5047C 10.004392 103.2978 11.793992 105.0903 15.368592 106.4584ZM 171.986692 103.7632L 171.985292 101.7803C 171.807492 103.4804 170.022892 105.1604 166.631392 106.4584L 158.749392 109.475L 171.995692 116.1146L 171.986692 103.7632ZM 9.999992 101.4914L 9.999992 101.5047L 9.999992 101.4914Z"></path></g></g></g><g id="g-root-cp_5_g-5_1d1rtxb7tlhqa-stroke" data-item-order="-991994" transform="translate(456.44140625, 421.501953125)"><g id="cp_5_g-5_1d1rtxb7tlhqa-stroke" fill="none" stroke-linecap="round" stroke-linejoin="round" stroke-miterlimit="4" stroke="#fff0fc" stroke-width="2"><g><path d="M 67.2522 77.4884L 67.2522 85.0116L 110.0841 68.7503L 110.0718 61.2269L 67.2522 77.4884ZM 95.7987 54.0837L 52.9791 70.3453L 67.2522 77.4884L 110.0718 61.2269L 95.7987 54.0837ZM 52.9791 62.8221L 52.9791 70.3453L 95.7987 54.0837L 95.7986 46.5607L 52.9791 62.8221ZM 81.5377 39.4174L 38.7059 55.6794L 52.9791 62.8221L 95.7986 46.5607L 81.5377 39.4174ZM 38.6936 48.1558L 38.7059 55.6794L 81.5377 39.4174L 81.5377 31.8946L 38.6936 48.1558ZM 24.4205 41.0132L 34.9136 46.2536L 38.6936 48.1558L 81.5377 31.8946L 67.2523 24.7519L 24.4205 41.0132ZM 24.4205 33.49L 24.4205 41.0132L 67.2523 24.7519L 67.2523 17.2286L 24.4205 33.49ZM 10 26.2859L 24.4205 33.49L 67.2523 17.2286L 52.795 10L 10 26.2859ZM 70.9272 106.4584C 67.5357 105.1604 65.7511 103.4804 65.5733 101.7803C 65.5635 101.6863 65.5586 101.5922 65.5586 101.498C 65.5586 99.7028 67.3481 97.9075 70.9272 96.5377L 81.8723 92.3489L 124.5732 76.0065L 133.5977 72.5527C 140.7558 69.8132 152.3614 69.8132 159.5195 72.5527L 222.19 96.5377C 225.7646 97.9058 227.5542 99.6983 227.5586 101.4914C 227.5586 101.4958 227.5586 101.5003 227.5586 101.5047C 227.5542 103.2978 225.7646 105.0903 222.19 106.4584L 159.5195 130.4434C 152.3614 133.1829 140.7558 133.1829 133.5977 130.4434L 121.5586 125.8358L 78.8092 109.475L 70.9272 106.4584ZM 24.4205 41.0132L 24.4205 33.49L 10 26.2859L 10 46.8091L 65.5719 103.7632L 65.5733 101.7803C 65.5635 101.6863 65.5586 101.5922 65.5586 101.498C 65.5586 99.7028 67.3481 97.9075 70.9272 96.5377L 81.8723 92.3489L 67.2522 85.0116L 67.2522 77.4884L 52.9791 70.3453L 52.9791 62.8221L 38.7059 55.6794L 38.6936 48.1558L 34.9136 46.2536L 24.4205 41.0132ZM 110.0841 68.7503L 67.2522 85.0116L 81.8723 92.3489L 124.5732 76.0065L 110.0841 68.7503ZM 222.19 106.4584L 159.5195 130.4434C 152.3614 133.1829 140.7558 133.1829 133.5977 130.4434L 121.5586 125.8358L 121.5586 146.3358L 133.5977 150.9434C 140.7558 153.6829 152.3614 153.6829 159.5195 150.9434L 222.19 126.9584C 225.7646 125.5903 227.5542 123.7978 227.5586 122.0047L 227.5586 101.5047C 227.5542 103.2978 225.7646 105.0903 222.19 106.4584ZM 65.5733 101.7803L 65.5719 103.7632L 65.5629 116.1146L 78.8092 109.475L 70.9272 106.4584C 67.5357 105.1604 65.7511 103.4804 65.5733 101.7803ZM 227.5586 101.4914L 227.5586 101.5047L 227.5586 101.4914Z"></path></g></g></g><g id="g-root-cp_4_g-4_1464tof7tlij0-stroke" data-item-order="-991990" transform="translate(350.44140625, 521)"><g id="cp_4_g-4_1464tof7tlij0-stroke" fill="none" stroke-linecap="round" stroke-linejoin="round" stroke-miterlimit="4" stroke="#fff0fc" stroke-width="2"><g><path d="M 170.306392 77.4884L 170.306392 85.0116L 127.474492 68.7503L 127.486792 61.2269L 170.306392 77.4884ZM 141.759892 54.0837L 184.579492 70.3453L 170.306392 77.4884L 127.486792 61.2269L 141.759892 54.0837ZM 184.579492 62.8221L 184.579492 70.3453L 141.759892 54.0837L 141.759992 46.5607L 184.579492 62.8221ZM 156.020892 39.4174L 198.852692 55.6794L 184.579492 62.8221L 141.759992 46.5607L 156.020892 39.4174ZM 198.864992 48.1558L 198.852692 55.6794L 156.020892 39.4174L 156.020892 31.8946L 198.864992 48.1558ZM 213.138192 41.0132L 202.644992 46.2536L 198.864992 48.1558L 156.020892 31.8946L 170.306392 24.7519L 213.138192 41.0132ZM 213.138192 33.49L 213.138192 41.0132L 170.306392 24.7519L 170.306292 17.2286L 213.138192 33.49ZM 227.558592 26.2859L 213.138192 33.49L 170.306292 17.2286L 184.763592 10L 227.558592 26.2859ZM 166.631392 106.4584C 170.022892 105.1604 171.807492 103.4804 171.985292 101.7803C 171.995092 101.6863 171.999992 101.5922 171.999992 101.498C 171.999992 99.7028 170.210492 97.9075 166.631392 96.5377L 155.686292 92.3489L 112.985392 76.0065L 103.960892 72.5527C 96.802792 69.8132 85.197192 69.8132 78.039092 72.5527L 15.368592 96.5377C 11.793992 97.9058 10.004392 99.6983 9.999992 101.4914C 9.999992 101.4958 9.999992 101.5003 9.999992 101.5047C 10.004392 103.2978 11.793992 105.0903 15.368592 106.4584L 78.039092 130.4434C 85.197192 133.1829 96.802792 133.1829 103.960892 130.4434L 115.999992 125.8358L 158.749392 109.475L 166.631392 106.4584ZM 213.138192 41.0132L 213.138192 33.49L 227.558592 26.2859L 227.558592 46.8091L 171.986692 103.7632L 171.985292 101.7803C 171.995092 101.6863 171.999992 101.5922 171.999992 101.498C 171.999992 99.7028 170.210492 97.9075 166.631392 96.5377L 155.686292 92.3489L 170.306392 85.0116L 170.306392 77.4884L 184.579492 70.3453L 184.579492 62.8221L 198.852692 55.6794L 198.864992 48.1558L 202.644992 46.2536L 213.138192 41.0132ZM 127.474492 68.7503L 170.306392 85.0116L 155.686292 92.3489L 112.985392 76.0065L 127.474492 68.7503ZM 15.368592 106.4584L 78.039092 130.4434C 85.197192 133.1829 96.802792 133.1829 103.960892 130.4434L 115.999992 125.8358L 115.999992 146.3358L 103.960892 150.9434C 96.802792 153.6829 85.197192 153.6829 78.039092 150.9434L 15.368592 126.9584C 11.793992 125.5903 10.004392 123.7978 9.999992 122.0047L 9.999992 101.5047C 10.004392 103.2978 11.793992 105.0903 15.368592 106.4584ZM 171.986692 103.7632L 171.985292 101.7803C 171.807492 103.4804 170.022892 105.1604 166.631392 106.4584L 158.749392 109.475L 171.995692 116.1146L 171.986692 103.7632ZM 9.999992 101.4914L 9.999992 101.5047L 9.999992 101.4914Z"></path></g></g></g><g id="g-root-cp_3_g-3_zqbbjz7tljba-stroke" data-item-order="-991986" transform="translate(456.44140625, 620.501953125)"><g id="cp_3_g-3_zqbbjz7tljba-stroke" fill="none" stroke-linecap="round" stroke-linejoin="round" stroke-miterlimit="4" stroke="#fff0fc" stroke-width="2"><g><path d="M 67.2522 77.4884L 67.2522 85.0116L 110.0841 68.7503L 110.0718 61.2269L 67.2522 77.4884ZM 95.7987 54.0837L 52.9791 70.3453L 67.2522 77.4884L 110.0718 61.2269L 95.7987 54.0837ZM 52.9791 62.8221L 52.9791 70.3453L 95.7987 54.0837L 95.7986 46.5607L 52.9791 62.8221ZM 81.5377 39.4174L 38.7059 55.6794L 52.9791 62.8221L 95.7986 46.5607L 81.5377 39.4174ZM 38.6936 48.1558L 38.7059 55.6794L 81.5377 39.4174L 81.5377 31.8946L 38.6936 48.1558ZM 24.4205 41.0132L 34.9136 46.2536L 38.6936 48.1558L 81.5377 31.8946L 67.2523 24.7519L 24.4205 41.0132ZM 24.4205 33.49L 24.4205 41.0132L 67.2523 24.7519L 67.2523 17.2286L 24.4205 33.49ZM 10 26.2859L 24.4205 33.49L 67.2523 17.2286L 52.795 10L 10 26.2859ZM 70.9272 106.4584C 67.5357 105.1604 65.7511 103.4804 65.5733 101.7803C 65.5635 101.6863 65.5586 101.5922 65.5586 101.498C 65.5586 99.7028 67.3481 97.9075 70.9272 96.5377L 81.8723 92.3489L 124.5732 76.0065L 133.5977 72.5527C 140.7558 69.8132 152.3614 69.8132 159.5195 72.5527L 222.19 96.5377C 225.7646 97.9058 227.5542 99.6983 227.5586 101.4914C 227.5586 101.4958 227.5586 101.5003 227.5586 101.5047C 227.5542 103.2978 225.7646 105.0903 222.19 106.4584L 159.5195 130.4434C 152.3614 133.1829 140.7558 133.1829 133.5977 130.4434L 121.5586 125.8358L 78.8092 109.475L 70.9272 106.4584ZM 24.4205 41.0132L 24.4205 33.49L 10 26.2859L 10 46.8091L 65.5719 103.7632L 65.5733 101.7803C 65.5635 101.6863 65.5586 101.5922 65.5586 101.498C 65.5586 99.7028 67.3481 97.9075 70.9272 96.5377L 81.8723 92.3489L 67.2522 85.0116L 67.2522 77.4884L 52.9791 70.3453L 52.9791 62.8221L 38.7059 55.6794L 38.6936 48.1558L 34.9136 46.2536L 24.4205 41.0132ZM 110.0841 68.7503L 67.2522 85.0116L 81.8723 92.3489L 124.5732 76.0065L 110.0841 68.7503ZM 222.19 106.4584L 159.5195 130.4434C 152.3614 133.1829 140.7558 133.1829 133.5977 130.4434L 121.5586 125.8358L 121.5586 146.3358L 133.5977 150.9434C 140.7558 153.6829 152.3614 153.6829 159.5195 150.9434L 222.19 126.9584C 225.7646 125.5903 227.5542 123.7978 227.5586 122.0047L 227.5586 101.5047C 227.5542 103.2978 225.7646 105.0903 222.19 106.4584ZM 65.5733 101.7803L 65.5719 103.7632L 65.5629 116.1146L 78.8092 109.475L 70.9272 106.4584C 67.5357 105.1604 65.7511 103.4804 65.5733 101.7803ZM 227.5586 101.4914L 227.5586 101.5047L 227.5586 101.4914Z"></path></g></g></g><g id="g-root-cp_2_g-2_vb4ain7tlgxs-stroke" data-item-order="-991982" transform="translate(350.44140625, 720)"><g id="cp_2_g-2_vb4ain7tlgxs-stroke" fill="none" stroke-linecap="round" stroke-linejoin="round" stroke-miterlimit="4" stroke="#fff0fc" stroke-width="2"><g><path d="M 170.3064 77.4884L 170.3064 85.0116L 127.4745 68.7503L 127.4868 61.2269L 170.3064 77.4884ZM 141.7599 54.0837L 184.5795 70.3453L 170.3064 77.4884L 127.4868 61.2269L 141.7599 54.0837ZM 184.5795 62.8221L 184.5795 70.3453L 141.7599 54.0837L 141.76 46.5607L 184.5795 62.8221ZM 156.0209 39.4174L 198.8527 55.6794L 184.5795 62.8221L 141.76 46.5607L 156.0209 39.4174ZM 198.865 48.1558L 198.8527 55.6794L 156.0209 39.4174L 156.0209 31.8946L 198.865 48.1558ZM 213.1382 41.0132L 202.645 46.2536L 198.865 48.1558L 156.0209 31.8946L 170.3064 24.7519L 213.1382 41.0132ZM 213.1382 33.49L 213.1382 41.0132L 170.3064 24.7519L 170.3063 17.2286L 213.1382 33.49ZM 227.5586 26.2859L 213.1382 33.49L 170.3063 17.2286L 184.7636 10L 227.5586 26.2859ZM 166.6314 106.4584C 170.0229 105.1604 171.8075 103.4804 171.9853 101.7803C 171.9951 101.6863 172 101.5922 172 101.498C 172 99.7028 170.2105 97.9075 166.6314 96.5377L 155.6863 92.3489L 112.9854 76.0065L 103.9609 72.5527C 96.8028 69.8132 85.1972 69.8132 78.0391 72.5527L 15.3686 96.5377C 11.794 97.9058 10.0044 99.6983 10 101.4914C 10 101.4958 10 101.5003 10 101.5047C 10.0044 103.2978 11.794 105.0903 15.3686 106.4584L 78.0391 130.4434C 85.1972 133.1829 96.8028 133.1829 103.9609 130.4434L 116 125.8358L 158.7494 109.475L 166.6314 106.4584ZM 213.1382 41.0132L 213.1382 33.49L 227.5586 26.2859L 227.5586 46.8091L 171.9867 103.7632L 171.9853 101.7803C 171.9951 101.6863 172 101.5922 172 101.498C 172 99.7028 170.2105 97.9075 166.6314 96.5377L 155.6863 92.3489L 170.3064 85.0116L 170.3064 77.4884L 184.5795 70.3453L 184.5795 62.8221L 198.8527 55.6794L 198.865 48.1558L 202.645 46.2536L 213.1382 41.0132ZM 127.4745 68.7503L 170.3064 85.0116L 155.6863 92.3489L 112.9854 76.0065L 127.4745 68.7503ZM 15.3686 106.4584L 78.0391 130.4434C 85.1972 133.1829 96.8028 133.1829 103.9609 130.4434L 116 125.8358L 116 146.3358L 103.9609 150.9434C 96.8028 153.6829 85.1972 153.6829 78.0391 150.9434L 15.3686 126.9584C 11.794 125.5903 10.0044 123.7978 10 122.0047L 10 101.5047C 10.0044 103.2978 11.794 105.0903 15.3686 106.4584ZM 171.9867 103.7632L 171.9853 101.7803C 171.8075 103.4804 170.0229 105.1604 166.6314 106.4584L 158.7494 109.475L 171.9957 116.1146L 171.9867 103.7632ZM 10 101.4914L 10 101.5047L 10 101.4914Z"></path></g></g></g><g id="g-root-cp_1_g-1_mfha9r7tlhqi-stroke" data-item-order="-991978" transform="translate(456.220703125, 819.501953125)"><g id="cp_1_g-1_mfha9r7tlhqi-stroke" fill="none" stroke-linecap="round" stroke-linejoin="round" stroke-miterlimit="4" stroke="#fff0fc" stroke-width="2"><g><path d="M 222.19 106.4584L 159.5195 130.4434C 152.3614 133.1829 140.7558 133.1829 133.5977 130.4434L 70.9272 106.4584C 67.5357 105.1604 65.7511 103.4804 65.5733 101.7803L 65.5719 103.7632L 65.5586 121.998C 65.5586 123.7933 67.3481 125.5886 70.9272 126.9584L 133.5977 150.9434C 140.7558 153.6829 152.3614 153.6829 159.5195 150.9434L 222.19 126.9584C 225.7646 125.5903 227.5542 123.7978 227.5586 122.0047L 227.5586 101.5047C 227.5542 103.2978 225.7646 105.0903 222.19 106.4584ZM 222.19 96.5377L 159.5195 72.5527C 152.3614 69.8132 140.7558 69.8132 133.5977 72.5527L 124.5732 76.0065L 81.8723 92.3489L 70.9272 96.5377C 67.3481 97.9075 65.5586 99.7028 65.5586 101.498C 65.5586 101.5922 65.5635 101.6863 65.5733 101.7803C 65.7511 103.4804 67.5357 105.1604 70.9272 106.4584L 133.5977 130.4434C 140.7558 133.1829 152.3614 133.1829 159.5195 130.4434L 222.19 106.4584C 225.7646 105.0903 227.5542 103.2978 227.5586 101.5047L 227.5586 101.4914C 227.5542 99.6983 225.7646 97.9058 222.19 96.5377ZM 24.4205 41.0132L 24.4205 33.49L 10 26.2859L 10 46.8091L 65.5719 103.7632L 65.5733 101.7803C 65.5635 101.6863 65.5586 101.5922 65.5586 101.498C 65.5586 99.7028 67.3481 97.9075 70.9272 96.5377L 81.8723 92.3489L 67.2522 85.0116L 67.2522 77.4884L 52.9791 70.3453L 52.9791 62.8221L 38.7059 55.6794L 38.6936 48.1558L 34.9136 46.2536L 24.4205 41.0132ZM 110.0841 68.7503L 67.2522 85.0116L 81.8723 92.3489L 124.5732 76.0065L 110.0841 68.7503ZM 67.2522 77.4884L 67.2522 85.0116L 110.0841 68.7503L 110.0718 61.2269L 67.2522 77.4884ZM 95.7987 54.0837L 52.9791 70.3453L 67.2522 77.4884L 110.0718 61.2269L 95.7987 54.0837ZM 52.9791 62.8221L 52.9791 70.3453L 95.7987 54.0837L 95.7986 46.5607L 52.9791 62.8221ZM 81.5377 39.4174L 38.7059 55.6794L 52.9791 62.8221L 95.7986 46.5607L 81.5377 39.4174ZM 38.6936 48.1558L 38.7059 55.6794L 81.5377 39.4174L 81.5377 31.8946L 38.6936 48.1558ZM 24.4205 41.0132L 34.9136 46.2536L 38.6936 48.1558L 81.5377 31.8946L 67.2523 24.7519L 24.4205 41.0132ZM 24.4205 33.49L 24.4205 41.0132L 67.2523 24.7519L 67.2523 17.2286L 24.4205 33.49ZM 10 26.2859L 24.4205 33.49L 67.2523 17.2286L 52.795 10L 10 26.2859ZM 227.5586 101.4914C 227.5586 101.4958 227.5586 101.5003 227.5586 101.5047L 227.5586 101.4914Z"></path></g></g></g><g id="g-root-cp_1_number_hzns5b7tliis-stroke" data-item-order="-991964" transform="translate(698, 890)"><g id="cp_1_number_hzns5b7tliis-stroke" fill="none" stroke-linecap="round" stroke-linejoin="round" stroke-miterlimit="4" stroke="#fff0fc" stroke-width="2"><g><path d="M 10 40C 10 23.4315 23.4315 10 40 10C 56.5685 10 70 23.4315 70 40C 70 56.5685 56.5685 70 40 70C 23.4315 70 10 56.5685 10 40Z"></path></g></g></g><g id="g-root-cp_2_number_1_940rwf7tljbi-stroke" data-item-order="-991948" transform="translate(266, 794)"><g id="cp_2_number_1_940rwf7tljbi-stroke" fill="none" stroke-linecap="round" stroke-linejoin="round" stroke-miterlimit="4" stroke="#fff0fc" stroke-width="2"><g><path d="M 10 40C 10 23.4315 23.4315 10 40 10C 56.5685 10 70 23.4315 70 40C 70 56.5685 56.5685 70 40 70C 23.4315 70 10 56.5685 10 40Z"></path></g></g></g><g id="g-root-cp_3_number_2_4otqv37tlgy0-stroke" data-item-order="-991932" transform="translate(698, 692)"><g id="cp_3_number_2_4otqv37tlgy0-stroke" fill="none" stroke-linecap="round" stroke-linejoin="round" stroke-miterlimit="4" stroke="#fff0fc" stroke-width="2"><g><path d="M 10 40C 10 23.4315 23.4315 10 40 10C 56.5685 10 70 23.4315 70 40C 70 56.5685 56.5685 70 40 70C 23.4315 70 10 56.5685 10 40Z"></path></g></g></g><g id="g-root-cp_4_number_3_908qn7tlhqa-stroke" data-item-order="-991916" transform="translate(266, 596)"><g id="cp_4_number_3_908qn7tlhqa-stroke" fill="none" stroke-linecap="round" stroke-linejoin="round" stroke-miterlimit="4" stroke="#fff0fc" stroke-width="2"><g><path d="M 10 40C 10 23.4315 23.4315 10 40 10C 56.5685 10 70 23.4315 70 40C 70 56.5685 56.5685 70 40 70C 23.4315 70 10 56.5685 10 40Z"></path></g></g></g><g id="g-root-cp_5_number_4_908qn7tlhqc-stroke" data-item-order="-991900" transform="translate(698, 488)"><g id="cp_5_number_4_908qn7tlhqc-stroke" fill="none" stroke-linecap="round" stroke-linejoin="round" stroke-miterlimit="4" stroke="#fff0fc" stroke-width="2"><g><path d="M 10 40C 10 23.4315 23.4315 10 40 10C 56.5685 10 70 23.4315 70 40C 70 56.5685 56.5685 70 40 70C 23.4315 70 10 56.5685 10 40Z"></path></g></g></g><g id="g-root-cp_6_number_5_1qehagv7tliby-stroke" data-item-order="-991884" transform="translate(266, 398)"><g id="cp_6_number_5_1qehagv7tliby-stroke" fill="none" stroke-linecap="round" stroke-linejoin="round" stroke-miterlimit="4" stroke="#fff0fc" stroke-width="2"><g><path d="M 10 40C 10 23.4315 23.4315 10 40 10C 56.5685 10 70 23.4315 70 40C 70 56.5685 56.5685 70 40 70C 23.4315 70 10 56.5685 10 40Z"></path></g></g></g><g id="g-root-cp_7_number_6_1lynscf7tlj48-stroke" data-item-order="-991868" transform="translate(698, 284)"><g id="cp_7_number_6_1lynscf7tlj48-stroke" fill="none" stroke-linecap="round" stroke-linejoin="round" stroke-miterlimit="4" stroke="#fff0fc" stroke-width="2"><g><path d="M 10 40C 10 23.4315 23.4315 10 40 10C 56.5685 10 70 23.4315 70 40C 70 56.5685 56.5685 70 40 70C 23.4315 70 10 56.5685 10 40Z"></path></g></g></g><g id="g-root-cp_8_number_7_1hjgrb37tlgqq-stroke" data-item-order="-991852" transform="translate(266, 194)"><g id="cp_8_number_7_1hjgrb37tlgqq-stroke" fill="none" stroke-linecap="round" stroke-linejoin="round" stroke-miterlimit="4" stroke="#fff0fc" stroke-width="2"><g><path d="M 10 40C 10 23.4315 23.4315 10 40 10C 56.5685 10 70 23.4315 70 40C 70 56.5685 56.5685 70 40 70C 23.4315 70 10 56.5685 10 40Z"></path></g></g></g><g id="g-root-ic_key_147drun7tr3t6-stroke" data-item-order="-3600" transform="translate(566, 608)"></g><g id="g-root-ic_spee_1cz9xkv7ttwjk-stroke" data-item-order="-3600" transform="translate(386, 512)"></g><g id="g-root-ic_edit_1qehagv7to9vn-stroke" data-item-order="-3600" transform="translate(386, 710)"></g><g id="g-root-ic_race_13zw2tb7twqv9-stroke" data-item-order="-3600" transform="translate(566, 410)"></g><g id="g-root-ic_buil_4mbuin7u2dce-stroke" data-item-order="-3600" transform="translate(566, 206)"></g><g id="g-root-ic_comp_1d1rtxb7tzj7t-stroke" data-item-order="-3600" transform="translate(386, 314)"></g><g id="g-root-ic_cog_1ly1b9b7u55ab-stroke" data-item-order="-3600" transform="translate(386, 110)"></g><g id="g-root-ic_chec_v492kf7tmwp3-stroke" data-item-order="-3600" transform="translate(566, 806)"></g><g id="g-root-tx_6_mbqfr37u2cqr-stroke" data-item-order="0" transform="translate(284, 410)"></g><g id="g-root-tx_collectu_18k2wjj7u2brh-stroke" data-item-order="0" transform="translate(782, 344)"></g><g id="g-root-tx_continuo_4myblr7tzjew-stroke" data-item-order="0" transform="translate(74, 434)"></g><g id="g-root-tx_ensureal_1q6d4cf7tmvwu-stroke" data-item-order="0" transform="translate(782, 926)"></g><g id="g-root-tx_5_1czwenz7tzk7i-stroke" data-item-order="0" transform="translate(716, 500)"></g><g id="g-root-tx_meetacce_qn6m9r7twqa3-stroke" data-item-order="0" transform="translate(782, 488)"></g><g id="g-root-tx_ensureth_w2m77twqa4-stroke" data-item-order="0" transform="translate(782, 548)"></g><g id="g-root-tx_meetperf_qqxgsf7ttwr2-stroke" data-item-order="0" transform="translate(98, 596)"></g><g id="g-root-tx_7_6ice77u54w8-stroke" data-item-order="0" transform="translate(716, 296)"></g><g id="g-root-tx_4_1d3n96n7tvchu-stroke" data-item-order="0" transform="translate(284, 608)"></g><g id="g-root-tx_developa_hz1b277u54p6-stroke" data-item-order="0" transform="translate(62, 254)"></g><g id="g-root-tx_confirmt_909xdr7ttvyf-stroke" data-item-order="0" transform="translate(86, 656)"></g><g id="g-root-tx_3_1hd80fz7ttwr1-stroke" data-item-order="0" transform="translate(716, 704)"></g><g id="g-root-tx_security_meut6n7tr408-stroke" data-item-order="0" transform="translate(782, 692)"></g><g id="g-root-tx_8_253y77tmxvp-stroke" data-item-order="0" transform="translate(284, 206)"></g><g id="g-root-tx_conducta_1utobi77tr3t5-stroke" data-item-order="0" transform="translate(782, 752)"></g><g id="g-root-tx_complete_18lybsv7toa2p-stroke" data-item-order="0" transform="translate(74, 794)"></g><g id="g-root-tx_planenha_18lbupr7u54p5-stroke" data-item-order="0" transform="translate(86, 194)"></g><g id="g-root-tx_2_145iclb7tr4sv-stroke" data-item-order="0" transform="translate(284, 806)"></g><g id="g-root-tx_finalize_hzns5b7toa2q-stroke" data-item-order="0" transform="translate(62, 854)"></g><g id="g-root-tx_achievin_18ntr277tlhjg-stroke" data-item-order="0" transform="translate(266, 38)"></g><g id="g-root-tx_1_74thb7toa9s-stroke" data-item-order="0" transform="translate(716, 902)"></g><g id="g-root-tx_passallt_dbq3wf7tmww5-stroke" data-item-order="0" transform="translate(782, 890)"></g><g id="g-root-tx_monitori_v98v9b7tzjev-stroke" data-item-order="0" transform="translate(62, 398)"></g><g id="g-root-tx_gatherfe_59e7z7u2byk-stroke" data-item-order="0" transform="translate(782, 284)"></g></g></g><path id="w140i0xr8o153c" d="M65.283 12.757a.35.35 0 0 0 .584.157l5.203-5.141-6.183 3.523.396 1.461zm-2.216-11.7a.35.35 0 0 0-.522.305v3.111l3.276-1.868-2.754-1.548zm3.728 2.105l-4.25 2.421v2.445l6.391-3.644-2.141-1.222zm4.708 3.303a.35.35 0 0 0 0-.609l-1.592-.9-7.365 4.199v1.782a.35.35 0 0 0 .523.305l8.435-4.777z M44.542 2.513c0-.433.355-.783.792-.783s.792.35.792.783-.355.783-.792.783-.792-.35-.792-.783zm59.171 0c0-.433.355-.783.792-.783s.792.35.792.783-.355.783-.792.783-.792-.35-.792-.783zm-85.951 7.636h-1.27v-.487c-.276.201-.864.609-1.881.609-1.202 0-2.274-.794-2.137-2.078.118-1.106 1.153-1.584 1.848-1.727l2.17-.345c0-.539-.29-.956-1.064-1.006s-1.21.305-1.571 1.017l-1.124-.605c1.218-2.631 5.029-1.764 5.029.414v4.207zm-1.27-2.86c.006.396-.062 1.112-.819 1.59-.587.37-1.841.299-1.903-.395-.049-.555.461-.791.906-.898l1.816-.297zm72.662 2.86h-1.27v-.487c-.276.201-.864.609-1.881.609-1.202 0-2.274-.794-2.137-2.078.118-1.106 1.153-1.584 1.848-1.727l2.17-.345c0-.539-.29-.956-1.064-1.006s-1.21.305-1.571 1.017l-1.124-.605c1.218-2.631 5.029-1.764 5.029.414v4.207zm-1.27-2.86c.006.396-.062 1.112-.82 1.59-.587.37-1.841.299-1.903-.395-.049-.555.461-.791.906-.898l1.816-.297zM99.096 10.149H97.85v-8.45h1.246v4.895l2.68-2.559h1.738l-2.633 2.535 2.715 3.578h-1.556l-2.077-2.707-.867.844v1.863zm6.053-6.114h-1.255v6.113h1.255V4.035zm-59.2 0h-1.255v6.113h1.255V4.035zm5.584 6.113V1.697h1.255v2.695c.361-.346 1-.485 1.47-.485 1.452 0 2.477 1.082 2.457 2.448v3.792h-1.27v-3.68c0-.408-.214-1.339-1.315-1.339-.968 0-1.342.756-1.342 1.339v3.681h-1.255zm-4.76-4.894V4.039h.621a.45.45 0 0 0 .45-.45v-.855h1.251v1.305h1.309v1.215h-1.309v3.109c0 .293.105.664.648.664.365 0 .531-.035.736-.07v1.137s-.361.113-.857.113c-1.398 0-1.777-1.051-1.777-1.788V5.254h-1.071zM36.528 4.039h-1.394l2.191 6.106h1.125l1.234-3.918 1.238 3.918h1.129l2.188-6.106h-1.383l-1.359 3.93-1.256-3.93h-1.124l-1.242 3.957-1.348-3.957zM26.212 7.141c-.02 1.566 1.187 3.129 3.223 3.129 1.566 0 2.383-.918 2.734-1.719L31.172 8c-.315.399-.801 1.094-1.738 1.094-1.145 0-1.825-.781-1.891-1.52h4.625c.074-.284.148-.995-.03-1.559-.336-1.064-1.221-2.102-2.839-2.102s-3.088 1.152-3.088 3.227zm1.363-.75h3.348c-.055-.43-.566-1.301-1.623-1.301a1.79 1.79 0 0 0-1.725 1.301zm-8.758.75c.038 1.758 1.277 3.133 3.145 3.133 1.074 0 1.723-.477 1.961-.672v.547h1.242V1.703h-1.258v2.888c-.414-.36-1.062-.68-1.93-.68-1.91 0-3.198 1.473-3.16 3.23zm1.309-.08c0 1.119.723 1.978 1.836 1.978a1.88 1.88 0 0 0 1.94-1.904c0-1.371-1.011-1.99-1.972-1.99s-1.805.798-1.805 1.916zm76.683-.028C96.771 5.275 95.532 3.9 93.664 3.9c-1.074 0-1.723.477-1.961.672v-.547h-1.242v8.22h1.258V9.583c.414.36 1.063.68 1.93.68 1.91 0 3.198-1.473 3.16-3.23zm-1.309.08c0-1.119-.723-1.978-1.836-1.978a1.88 1.88 0 0 0-1.94 1.904c0 1.371 1.011 1.99 1.972 1.99S95.5 8.231 95.5 7.113zM106.441 10.173V4.036h1.254v.382c.361-.346 1-.485 1.47-.485 1.452 0 2.477 1.082 2.457 2.448v3.792h-1.27V6.492c0-.408-.214-1.339-1.315-1.339-.969 0-1.342.756-1.342 1.339v3.681h-1.254zm-30.383-.021V1.824h1.084l4.215 5.777V1.824h1.32v8.328h-1.094l-4.207-5.796v5.796h-1.319zM5.24 10.149H4V2.377h1.014l2.664 3.597 2.654-3.592h1.03v7.766h-1.256V4.762L7.678 8.068 5.24 4.742v5.407z" transform="translate(20, 1058)" fill="#ababab88" stroke="none"></path></svg>